{
DisplayStrings = (
"/C_z.liga y Warszawa\012ma sw\U00F3j \012charakter?"
);
classes = (
{
automatic = 1;
code = "A Aogonek B C Cacute D E Eogonek F G H I J K L Lslash M N Nacute O Oacute P Q R S Sacute T U V W X Y Z Zacute Zdotaccent";
name = Uppercase;
}
);
date = "2016-10-16 21:02:29 +0000";
designer = "Joanna Angulska";
familyName = "Havana";
featurePrefixes = (
{
automatic = 1;
code = "languagesystem DFLT dflt;\012languagesystem latn dflt;\012";
name = Languagesystems;
}
);
features = (
{
code = "";
name = calt;
},
{
automatic = 1;
code = "sub C z by C_z.liga;\012sub F i by F_i.liga;\012sub c z by c_z.liga;\012sub lslash lslash by lslash_lslash.liga;\012sub o o by o_o.liga;\012sub r z by r_z.liga;\012sub s z by s_z.liga;\012sub t t by t_t.liga;\012";
name = liga;
},
{
automatic = 1;
code = "pos @Uppercase <5 0 10 0>;\012";
name = cpsp;
}
);
fontMaster = (
{
alignmentZones = (
"{750, 16}",
"{720, 43}",
"{496, 16}",
"{0, -15}",
"{-222, -15}"
);
ascender = 744;
capHeight = 690;
descender = "-256";
horizontalStems = (
55,
58
);
id = "2B556C7D-ACF4-4058-9F01-0A4D9389EAED";
userData = {
GSCornerRadius = 15;
GSOffsetHorizontal = 15;
GSOffsetMakeStroke = 1;
GSOffsetVertical = 15;
};
verticalStems = (
60,
68
);
xHeight = 480;
}
);
glyphs = (
{
glyphname = A;
lastChange = "2016-10-31 14:32:31 +0000";
layers = (
{
layerId = "2B556C7D-ACF4-4058-9F01-0A4D9389EAED";
name = Regular;
paths = (
{
closed = 1;
nodes = (
"540 692 OFFCURVE",
"520 685 OFFCURVE",
"508 663 CURVE SMOOTH",
"491 632 OFFCURVE",
"423 492 OFFCURVE",
"368 382 CURVE SMOOTH",
"268 183 OFFCURVE",
"196 54 OFFCURVE",
"122 54 CURVE SMOOTH",
"88 54 OFFCURVE",
"62 70 OFFCURVE",
"62 107 CURVE SMOOTH",
"62 132 OFFCURVE",
"68 146 OFFCURVE",
"84 169 CURVE SMOOTH",
"102 195 OFFCURVE",
"91 219 OFFCURVE",
"68 219 CURVE SMOOTH",
"26 219 OFFCURVE",
"0 153 OFFCURVE",
"0 107 CURVE SMOOTH",
"0 30 OFFCURVE",
"52 -4 OFFCURVE",
"120 -4 CURVE SMOOTH",
"211 -4 OFFCURVE",
"275 68 OFFCURVE",
"372 257 CURVE SMOOTH",
"434 378 OFFCURVE",
"525 570 OFFCURVE",
"550 626 CURVE",
"543 626 LINE",
"527 496 OFFCURVE",
"512 277 OFFCURVE",
"506 162 CURVE",
"515 162 LINE",
"499 205 OFFCURVE",
"463 248 OFFCURVE",
"426 272 CURVE",
"423 264 LINE",
"503 270 OFFCURVE",
"642 293 OFFCURVE",
"767 354 CURVE SMOOTH",
"808 374 OFFCURVE",
"785 423 OFFCURVE",
"749 407 CURVE SMOOTH",
"509 298 OFFCURVE",
"380 318 OFFCURVE",
"242 345 CURVE SMOOTH",
"219 350 OFFCURVE",
"200 340 OFFCURVE",
"200 322 CURVE SMOOTH",
"200 294 OFFCURVE",
"236 286 OFFCURVE",
"267 282 CURVE SMOOTH",
"406 266 OFFCURVE",
"500 120 OFFCURVE",
"500 37 CURVE SMOOTH",
"500 14 OFFCURVE",
"514 1 OFFCURVE",
"531 1 CURVE SMOOTH",
"547 1 OFFCURVE",
"560 12 OFFCURVE",
"561 35 CURVE SMOOTH",
"570 216 OFFCURVE",
"589 501 OFFCURVE",
"598 633 CURVE SMOOTH",
"601 675 OFFCURVE",
"578 692 OFFCURVE",
"555 692 CURVE SMOOTH"
);
}
);
width = 789;
}
);
leftKerningGroup = A;
rightKerningGroup = A;
unicode = 0041;
},
{
glyphname = Aogonek;
lastChange = "2016-10-31 14:32:31 +0000";
layers = (
{
layerId = "2B556C7D-ACF4-4058-9F01-0A4D9389EAED";
rightMetricsKey = A;
name = Regular;
paths = (
{
closed = 1;
nodes = (
"534 691 OFFCURVE",
"517 675 OFFCURVE",
"502 651 CURVE SMOOTH",
"482 620 OFFCURVE",
"422 494 OFFCURVE",
"367 382 CURVE SMOOTH",
"269 182 OFFCURVE",
"196 54 OFFCURVE",
"122 54 CURVE SMOOTH",
"88 54 OFFCURVE",
"62 70 OFFCURVE",
"62 107 CURVE SMOOTH",
"62 132 OFFCURVE",
"68 146 OFFCURVE",
"84 169 CURVE SMOOTH",
"102 195 OFFCURVE",
"91 219 OFFCURVE",
"68 219 CURVE SMOOTH",
"26 219 OFFCURVE",
"0 153 OFFCURVE",
"0 107 CURVE SMOOTH",
"0 30 OFFCURVE",
"52 -4 OFFCURVE",
"120 -4 CURVE SMOOTH",
"211 -4 OFFCURVE",
"275 68 OFFCURVE",
"372 257 CURVE SMOOTH",
"434 378 OFFCURVE",
"525 570 OFFCURVE",
"550 626 CURVE",
"543 626 LINE",
"527 496 OFFCURVE",
"506 152 OFFCURVE",
"500 37 CURVE SMOOTH",
"499 11 OFFCURVE",
"511 1 OFFCURVE",
"527 1 CURVE SMOOTH",
"542 1 OFFCURVE",
"573 16 OFFCURVE",
"591 24 CURVE",
"577 30 LINE",
"572 18 OFFCURVE",
"556 -10 OFFCURVE",
"556 -64 CURVE SMOOTH",
"556 -94 OFFCURVE",
"570 -148 OFFCURVE",
"633 -148 CURVE SMOOTH",
"672 -148 OFFCURVE",
"715 -118 OFFCURVE",
"736 -81 CURVE SMOOTH",
"742 -70 OFFCURVE",
"745 -59 OFFCURVE",
"745 -51 CURVE SMOOTH",
"745 -30 OFFCURVE",
"728 -21 OFFCURVE",
"716 -21 CURVE SMOOTH",
"709 -21 OFFCURVE",
"702 -25 OFFCURVE",
"698 -32 CURVE SMOOTH",
"669 -86 OFFCURVE",
"644 -92 OFFCURVE",
"633 -92 CURVE SMOOTH",
"606 -92 OFFCURVE",
"606 -35 OFFCURVE",
"641 46 CURVE SMOOTH",
"643 51 OFFCURVE",
"677 88 OFFCURVE",
"688 106 CURVE SMOOTH",
"698 123 OFFCURVE",
"698 153 OFFCURVE",
"668 153 CURVE SMOOTH",
"663 153 OFFCURVE",
"653 149 OFFCURVE",
"644 140 CURVE SMOOTH",
"586 81 OFFCURVE",
"554 65 OFFCURVE",
"545 62 CURVE",
"558 56 LINE",
"575 260 OFFCURVE",
"592 525 OFFCURVE",
"598 633 CURVE SMOOTH",
"600 671 OFFCURVE",
"582 683 OFFCURVE",
"558 687 CURVE SMOOTH"
);
},
{
closed = 1;
nodes = (
"509 298 OFFCURVE",
"380 318 OFFCURVE",
"242 345 CURVE SMOOTH",
"219 350 OFFCURVE",
"200 340 OFFCURVE",
"200 322 CURVE SMOOTH",
"200 294 OFFCURVE",
"236 289 OFFCURVE",
"267 282 CURVE SMOOTH",
"319 270 OFFCURVE",
"368 264 OFFCURVE",
"423 264 CURVE SMOOTH",
"503 264 OFFCURVE",
"642 293 OFFCURVE",
"767 354 CURVE SMOOTH",
"808 374 OFFCURVE",
"785 423 OFFCURVE",
"749 407 CURVE SMOOTH"
);
}
);
width = 789;
}
);
leftKerningGroup = A;
leftMetricsKey = A;
rightKerningGroup = Aogonek;
rightMetricsKey = A;
unicode = 0104;
},
{
glyphname = B;
lastChange = "2016-10-31 14:32:31 +0000";
layers = (
{
layerId = "2B556C7D-ACF4-4058-9F01-0A4D9389EAED";
name = Regular;
paths = (
{
closed = 1;
nodes = (
"292 652 OFFCURVE",
"145 616 OFFCURVE",
"15 475 CURVE SMOOTH",
"6 465 OFFCURVE",
"0 454 OFFCURVE",
"0 445 CURVE SMOOTH",
"0 429 OFFCURVE",
"12 418 OFFCURVE",
"27 418 CURVE SMOOTH",
"37 418 OFFCURVE",
"49 422 OFFCURVE",
"60 435 CURVE SMOOTH",
"161 548 OFFCURVE",
"289 596 OFFCURVE",
"399 596 CURVE SMOOTH",
"453 596 OFFCURVE",
"523 570 OFFCURVE",
"523 503 CURVE SMOOTH",
"523 391 OFFCURVE",
"387 328 OFFCURVE",
"227 328 CURVE SMOOTH",
"205 328 OFFCURVE",
"196 317 OFFCURVE",
"196 299 CURVE SMOOTH",
"196 287 OFFCURVE",
"206 274 OFFCURVE",
"227 274 CURVE SMOOTH",
"325 274 OFFCURVE",
"460 279 OFFCURVE",
"460 188 CURVE SMOOTH",
"460 118 OFFCURVE",
"395 55 OFFCURVE",
"297 55 CURVE SMOOTH",
"273 55 OFFCURVE",
"249 61 OFFCURVE",
"232 68 CURVE SMOOTH",
"205 79 OFFCURVE",
"191 68 OFFCURVE",
"187 59 CURVE SMOOTH",
"175 32 OFFCURVE",
"205 -1 OFFCURVE",
"299 -1 CURVE SMOOTH",
"427 -1 OFFCURVE",
"522 84 OFFCURVE",
"522 187 CURVE SMOOTH",
"522 261 OFFCURVE",
"467 308 OFFCURVE",
"413 315 CURVE",
"408 299 LINE",
"528 345 OFFCURVE",
"583 419 OFFCURVE",
"585 503 CURVE SMOOTH",
"587 575 OFFCURVE",
"532 652 OFFCURVE",
"391 652 CURVE SMOOTH"
);
},
{
closed = 1;
nodes = (
"179 693 OFFCURVE",
"165 682 OFFCURVE",
"162 658 CURVE SMOOTH",
"130 459 OFFCURVE",
"79 164 OFFCURVE",
"61 43 CURVE SMOOTH",
"59 25 OFFCURVE",
"60 1 OFFCURVE",
"88 1 CURVE SMOOTH",
"113 1 OFFCURVE",
"120 21 OFFCURVE",
"122 36 CURVE SMOOTH",
"145 184 OFFCURVE",
"196 481 OFFCURVE",
"223 655 CURVE SMOOTH",
"227 680 OFFCURVE",
"212 693 OFFCURVE",
"197 693 CURVE SMOOTH"
);
}
);
width = 585;
}
);
leftKerningGroup = B;
rightKerningGroup = B;
unicode = 0042;
},
{
glyphname = C;
lastChange = "2016-10-31 14:32:31 +0000";
layers = (
{
layerId = "2B556C7D-ACF4-4058-9F01-0A4D9389EAED";
name = Regular;
paths = (
{
closed = 1;
nodes = (
"77 688 OFFCURVE",
"0 419 OFFCURVE",
"0 216 CURVE SMOOTH",
"0 134 OFFCURVE",
"22 -4 OFFCURVE",
"158 -4 CURVE SMOOTH",
"268 -4 OFFCURVE",
"376 63 OFFCURVE",
"451 213 CURVE SMOOTH",
"474 258 OFFCURVE",
"422 284 OFFCURVE",
"398 243 CURVE SMOOTH",
"308 86 OFFCURVE",
"230 53 OFFCURVE",
"159 53 CURVE SMOOTH",
"76 53 OFFCURVE",
"64 162 OFFCURVE",
"64 200 CURVE SMOOTH",
"64 446 OFFCURVE",
"146 631 OFFCURVE",
"256 631 CURVE SMOOTH",
"303 631 OFFCURVE",
"336 559 OFFCURVE",
"304 448 CURVE SMOOTH",
"291 404 OFFCURVE",
"351 396 OFFCURVE",
"365 436 CURVE SMOOTH",
"401 538 OFFCURVE",
"378 690 OFFCURVE",
"253 689 CURVE SMOOTH"
);
}
);
width = 457;
}
);
leftKerningGroup = C;
rightKerningGroup = C;
unicode = 0043;
},
{
glyphname = Cacute;
lastChange = "2016-10-31 14:32:31 +0000";
layers = (
{
layerId = "2B556C7D-ACF4-4058-9F01-0A4D9389EAED";
leftMetricsKey = C;
rightMetricsKey = C;
name = Regular;
paths = (
{
closed = 1;
nodes = (
"86 622 OFFCURVE",
"0 402 OFFCURVE",
"0 207 CURVE SMOOTH",
"0 136 OFFCURVE",
"21 -4 OFFCURVE",
"157 -4 CURVE SMOOTH",
"272 -4 OFFCURVE",
"375 63 OFFCURVE",
"450 213 CURVE SMOOTH",
"473 258 OFFCURVE",
"421 284 OFFCURVE",
"397 243 CURVE SMOOTH",
"307 86 OFFCURVE",
"224 53 OFFCURVE",
"158 53 CURVE SMOOTH",
"75 53 OFFCURVE",
"63 162 OFFCURVE",
"63 218 CURVE SMOOTH",
"63 390 OFFCURVE",
"141 565 OFFCURVE",
"245 565 CURVE SMOOTH",
"302 565 OFFCURVE",
"342 493 OFFCURVE",
"303 382 CURVE SMOOTH",
"290 338 OFFCURVE",
"350 330 OFFCURVE",
"364 370 CURVE SMOOTH",
"403 472 OFFCURVE",
"378 624 OFFCURVE",
"242 623 CURVE SMOOTH"
);
},
{
closed = 1;
nodes = (
"296 833 OFFCURVE",
"281 827 OFFCURVE",
"272 809 CURVE SMOOTH",
"254 770 OFFCURVE",
"244 746 OFFCURVE",
"229 711 CURVE SMOOTH",
"218 687 OFFCURVE",
"231 669 OFFCURVE",
"247 666 CURVE SMOOTH",
"259 664 OFFCURVE",
"274 670 OFFCURVE",
"282 686 CURVE SMOOTH",
"309 737 OFFCURVE",
"315 751 OFFCURVE",
"330 783 CURVE SMOOTH",
"341 807 OFFCURVE",
"328 828 OFFCURVE",
"309 831 CURVE SMOOTH"
);
}
);
width = 456;
}
);
leftKerningGroup = C;
leftMetricsKey = C;
rightKerningGroup = C;
rightMetricsKey = C;
unicode = 0106;
},
{
glyphname = D;
lastChange = "2016-10-31 14:32:31 +0000";
layers = (
{
layerId = "2B556C7D-ACF4-4058-9F01-0A4D9389EAED";
name = Regular;
paths = (
{
closed = 1;
nodes = (
"243 486 OFFCURVE",
"182 218 OFFCURVE",
"142 101 CURVE SMOOTH",
"132 72 OFFCURVE",
"119 59 OFFCURVE",
"104 59 CURVE SMOOTH",
"74 59 OFFCURVE",
"59 86 OFFCURVE",
"59 118 CURVE SMOOTH",
"59 147 OFFCURVE",
"73 168 OFFCURVE",
"93 168 CURVE SMOOTH",
"154 170 OFFCURVE",
"282 -26 OFFCURVE",
"480 -24 CURVE SMOOTH",
"602 -24 OFFCURVE",
"685 49 OFFCURVE",
"685 172 CURVE SMOOTH",
"685 370 OFFCURVE",
"467 623 OFFCURVE",
"240 620 CURVE SMOOTH",
"144 619 OFFCURVE",
"89 555 OFFCURVE",
"95 466 CURVE SMOOTH",
"108 287 OFFCURVE",
"307 202 OFFCURVE",
"487 202 CURVE SMOOTH",
"584 202 OFFCURVE",
"708 225 OFFCURVE",
"796 275 CURVE SMOOTH",
"833 296 OFFCURVE",
"814 342 OFFCURVE",
"777 325 CURVE SMOOTH",
"693 287 OFFCURVE",
"579 258 OFFCURVE",
"482 258 CURVE SMOOTH",
"311 258 OFFCURVE",
"156 352 OFFCURVE",
"156 486 CURVE SMOOTH",
"156 541 OFFCURVE",
"199 564 OFFCURVE",
"253 564 CURVE SMOOTH",
"404 564 OFFCURVE",
"621 353 OFFCURVE",
"622 173 CURVE SMOOTH",
"622 85 OFFCURVE",
"568 32 OFFCURVE",
"486 32 CURVE SMOOTH",
"303 32 OFFCURVE",
"201 225 OFFCURVE",
"87 223 CURVE SMOOTH",
"29 222 OFFCURVE",
"0 167 OFFCURVE",
"0 115 CURVE SMOOTH",
"0 47 OFFCURVE",
"49 1 OFFCURVE",
"101 1 CURVE SMOOTH",
"137 1 OFFCURVE",
"173 10 OFFCURVE",
"194 70 CURVE SMOOTH",
"226 159 OFFCURVE",
"299 455 OFFCURVE",
"343 649 CURVE SMOOTH",
"353 694 OFFCURVE",
"293 703 OFFCURVE",
"284 663 CURVE SMOOTH"
);
}
);
width = 816;
}
);
leftKerningGroup = D;
rightKerningGroup = D;
unicode = 0044;
},
{
glyphname = E;
lastChange = "2016-10-31 14:32:31 +0000";
layers = (
{
layerId = "2B556C7D-ACF4-4058-9F01-0A4D9389EAED";
name = Regular;
paths = (
{
closed = 1;
nodes = (
"112 688 OFFCURVE",
"41 508 OFFCURVE",
"41 394 CURVE SMOOTH",
"41 240 OFFCURVE",
"125 191 OFFCURVE",
"194 191 CURVE SMOOTH",
"254 191 OFFCURVE",
"301 230 OFFCURVE",
"301 274 CURVE SMOOTH",
"301 308 OFFCURVE",
"267 340 OFFCURVE",
"211 340 CURVE SMOOTH",
"97 340 OFFCURVE",
"0 224 OFFCURVE",
"0 104 CURVE SMOOTH",
"0 43 OFFCURVE",
"42 -27 OFFCURVE",
"164 -27 CURVE SMOOTH",
"276 -27 OFFCURVE",
"409 38 OFFCURVE",
"523 260 CURVE SMOOTH",
"548 309 OFFCURVE",
"494 331 OFFCURVE",
"472 292 CURVE SMOOTH",
"356 84 OFFCURVE",
"253 30 OFFCURVE",
"161 30 CURVE SMOOTH",
"88 30 OFFCURVE",
"63 68 OFFCURVE",
"63 118 CURVE SMOOTH",
"63 164 OFFCURVE",
"88 214 OFFCURVE",
"131 251 CURVE SMOOTH",
"160 276 OFFCURVE",
"194 285 OFFCURVE",
"209 285 CURVE SMOOTH",
"233 285 OFFCURVE",
"242 278 OFFCURVE",
"242 271 CURVE SMOOTH",
"242 260 OFFCURVE",
"224 248 OFFCURVE",
"199 248 CURVE SMOOTH",
"156 248 OFFCURVE",
"99 282 OFFCURVE",
"105 411 CURVE SMOOTH",
"110 514 OFFCURVE",
"179 629 OFFCURVE",
"245 629 CURVE SMOOTH",
"274 629 OFFCURVE",
"304 609 OFFCURVE",
"304 539 CURVE SMOOTH",
"304 496 OFFCURVE",
"294 459 OFFCURVE",
"284 433 CURVE SMOOTH",
"275 403 OFFCURVE",
"291 389 OFFCURVE",
"310 389 CURVE SMOOTH",
"324 389 OFFCURVE",
"339 397 OFFCURVE",
"344 413 CURVE SMOOTH",
"355 440 OFFCURVE",
"367 484 OFFCURVE",
"367 538 CURVE SMOOTH",
"367 648 OFFCURVE",
"314 688 OFFCURVE",
"250 688 CURVE SMOOTH"
);
}
);
width = 529;
}
);
leftKerningGroup = E;
rightKerningGroup = E;
unicode = 0045;
},
{
glyphname = Eogonek;
lastChange = "2016-10-31 14:32:31 +0000";
layers = (
{
layerId = "2B556C7D-ACF4-4058-9F01-0A4D9389EAED";
rightMetricsKey = E;
name = Regular;
paths = (
{
closed = 1;
nodes = (
"112 688 OFFCURVE",
"41 508 OFFCURVE",
"41 394 CURVE SMOOTH",
"41 240 OFFCURVE",
"125 191 OFFCURVE",
"194 191 CURVE SMOOTH",
"254 191 OFFCURVE",
"301 230 OFFCURVE",
"301 274 CURVE SMOOTH",
"301 308 OFFCURVE",
"267 340 OFFCURVE",
"211 340 CURVE SMOOTH",
"97 340 OFFCURVE",
"0 224 OFFCURVE",
"0 104 CURVE SMOOTH",
"0 43 OFFCURVE",
"42 -25 OFFCURVE",
"164 -25 CURVE SMOOTH",
"183 -25 OFFCURVE",
"208 -19 OFFCURVE",
"218 -15 CURVE",
"199 0 LINE",
"178 -31 OFFCURVE",
"162 -87 OFFCURVE",
"162 -118 CURVE SMOOTH",
"162 -162 OFFCURVE",
"183 -200 OFFCURVE",
"240 -200 CURVE SMOOTH",
"279 -200 OFFCURVE",
"327 -174 OFFCURVE",
"348 -135 CURVE SMOOTH",
"354 -124 OFFCURVE",
"356 -115 OFFCURVE",
"356 -107 CURVE SMOOTH",
"356 -86 OFFCURVE",
"343 -75 OFFCURVE",
"329 -75 CURVE SMOOTH",
"321 -75 OFFCURVE",
"313 -79 OFFCURVE",
"309 -86 CURVE SMOOTH",
"280 -140 OFFCURVE",
"253 -144 OFFCURVE",
"242 -144 CURVE SMOOTH",
"197 -144 OFFCURVE",
"234 -38 OFFCURVE",
"267 -7 CURVE SMOOTH",
"297 22 OFFCURVE",
"347 52 OFFCURVE",
"347 93 CURVE SMOOTH",
"347 123 OFFCURVE",
"313 130 OFFCURVE",
"294 115 CURVE SMOOTH",
"278 103 OFFCURVE",
"233 57 OFFCURVE",
"204 11 CURVE",
"258 52 LINE",
"226 37 OFFCURVE",
"195 30 OFFCURVE",
"161 30 CURVE SMOOTH",
"88 30 OFFCURVE",
"63 68 OFFCURVE",
"63 118 CURVE SMOOTH",
"63 164 OFFCURVE",
"88 214 OFFCURVE",
"131 251 CURVE SMOOTH",
"160 276 OFFCURVE",
"194 285 OFFCURVE",
"209 285 CURVE SMOOTH",
"233 285 OFFCURVE",
"242 278 OFFCURVE",
"242 271 CURVE SMOOTH",
"242 260 OFFCURVE",
"224 248 OFFCURVE",
"199 248 CURVE SMOOTH",
"156 248 OFFCURVE",
"99 282 OFFCURVE",
"105 411 CURVE SMOOTH",
"110 514 OFFCURVE",
"179 629 OFFCURVE",
"245 629 CURVE SMOOTH",
"274 629 OFFCURVE",
"304 609 OFFCURVE",
"304 539 CURVE SMOOTH",
"304 496 OFFCURVE",
"294 459 OFFCURVE",
"284 433 CURVE SMOOTH",
"275 403 OFFCURVE",
"291 389 OFFCURVE",
"310 389 CURVE SMOOTH",
"324 389 OFFCURVE",
"339 397 OFFCURVE",
"344 413 CURVE SMOOTH",
"355 440 OFFCURVE",
"367 484 OFFCURVE",
"367 538 CURVE SMOOTH",
"367 648 OFFCURVE",
"314 688 OFFCURVE",
"250 688 CURVE SMOOTH"
);
}
);
width = 367;
}
);
leftKerningGroup = E;
leftMetricsKey = E;
rightKerningGroup = Eogonek;
rightMetricsKey = E;
unicode = 0118;
},
{
glyphname = F;
lastChange = "2016-10-31 14:32:31 +0000";
layers = (
{
associatedMasterId = "2B556C7D-ACF4-4058-9F01-0A4D9389EAED";
layerId = "E9D6CD34-4CA4-4397-83AA-D8D134D39333";
name = "Regular Oct 11 16, 15:06";
paths = (
{
closed = 1;
nodes = (
"374 509 OFFCURVE",
"339 300 OFFCURVE",
"285 42 CURVE SMOOTH",
"279 14 OFFCURVE",
"297 1 OFFCURVE",
"315 1 CURVE SMOOTH",
"328 1 OFFCURVE",
"340 9 OFFCURVE",
"346 32 CURVE SMOOTH",
"381 189 OFFCURVE",
"453 580 OFFCURVE",
"464 632 CURVE SMOOTH",
"471 663 OFFCURVE",
"414 685 OFFCURVE",
"405 644 CURVE SMOOTH"
);
},
{
closed = 1;
nodes = (
"449 255 OFFCURVE",
"345 250 OFFCURVE",
"289 246 CURVE SMOOTH",
"266 244 OFFCURVE",
"263 225 OFFCURVE",
"263 220 CURVE SMOOTH",
"263 198 OFFCURVE",
"278 191 OFFCURVE",
"304 192 CURVE SMOOTH",
"422 197 OFFCURVE",
"532 202 OFFCURVE",
"571 205 CURVE SMOOTH",
"589 207 OFFCURVE",
"599 221 OFFCURVE",
"599 235 CURVE SMOOTH",
"599 252 OFFCURVE",
"584 262 OFFCURVE",
"567 261 CURVE SMOOTH"
);
},
{
closed = 1;
nodes = (
"173 448 OFFCURVE",
"60 430 OFFCURVE",
"60 506 CURVE SMOOTH",
"60 568 OFFCURVE",
"135 596 OFFCURVE",
"240 601 CURVE SMOOTH",
"358 607 OFFCURVE",
"517 613 OFFCURVE",
"662 618 CURVE SMOOTH",
"686 619 OFFCURVE",
"698 634 OFFCURVE",
"698 648 CURVE SMOOTH",
"698 668 OFFCURVE",
"683 677 OFFCURVE",
"658 676 CURVE SMOOTH",
"523 670 OFFCURVE",
"283 660 OFFCURVE",
"215 654 CURVE SMOOTH",
"93 644 OFFCURVE",
"-1 598 OFFCURVE",
"-2 504 CURVE SMOOTH",
"-4 356 OFFCURVE",
"183 387 OFFCURVE",
"246 431 CURVE SMOOTH",
"263 443 OFFCURVE",
"272 455 OFFCURVE",
"272 470 CURVE SMOOTH",
"272 494 OFFCURVE",
"248 503 OFFCURVE",
"224 485 CURVE SMOOTH"
);
}
);
width = 692;
},
{
layerId = "2B556C7D-ACF4-4058-9F01-0A4D9389EAED";
name = Regular;
paths = (
{
closed = 1;
nodes = (
"552 559 OFFCURVE",
"374 662 OFFCURVE",
"190 662 CURVE SMOOTH",
"93 662 OFFCURVE",
"1 631 OFFCURVE",
"0 522 CURVE SMOOTH",
"-1 385 OFFCURVE",
"183 402 OFFCURVE",
"246 446 CURVE SMOOTH",
"263 458 OFFCURVE",
"272 470 OFFCURVE",
"272 485 CURVE SMOOTH",
"272 509 OFFCURVE",
"248 518 OFFCURVE",
"224 500 CURVE SMOOTH",
"173 463 OFFCURVE",
"63 462 OFFCURVE",
"63 524 CURVE SMOOTH",
"63 577 OFFCURVE",
"111 604 OFFCURVE",
"193 604 CURVE SMOOTH",
"377 604 OFFCURVE",
"567 491 OFFCURVE",
"721 627 CURVE SMOOTH",
"753 655 OFFCURVE",
"714 700 OFFCURVE",
"675 666 CURVE SMOOTH"
);
},
{
closed = 1;
nodes = (
"449 255 OFFCURVE",
"345 250 OFFCURVE",
"289 246 CURVE SMOOTH",
"266 244 OFFCURVE",
"263 225 OFFCURVE",
"263 220 CURVE SMOOTH",
"263 198 OFFCURVE",
"278 191 OFFCURVE",
"304 192 CURVE SMOOTH",
"422 197 OFFCURVE",
"532 202 OFFCURVE",
"571 205 CURVE SMOOTH",
"589 207 OFFCURVE",
"599 221 OFFCURVE",
"599 235 CURVE SMOOTH",
"599 252 OFFCURVE",
"584 262 OFFCURVE",
"567 261 CURVE SMOOTH"
);
},
{
closed = 1;
nodes = (
"363 461 OFFCURVE",
"339 300 OFFCURVE",
"285 42 CURVE SMOOTH",
"279 14 OFFCURVE",
"297 1 OFFCURVE",
"315 1 CURVE SMOOTH",
"328 1 OFFCURVE",
"340 9 OFFCURVE",
"346 32 CURVE SMOOTH",
"381 189 OFFCURVE",
"441 532 OFFCURVE",
"452 584 CURVE SMOOTH",
"459 615 OFFCURVE",
"403 637 OFFCURVE",
"394 596 CURVE SMOOTH"
);
}
);
width = 733;
}
);
leftKerningGroup = F;
rightKerningGroup = F;
unicode = 0046;
},
{
glyphname = G;
lastChange = "2016-10-31 14:32:31 +0000";
layers = (
{
layerId = "2B556C7D-ACF4-4058-9F01-0A4D9389EAED";
name = Regular;
paths = (
{
closed = 1;
nodes = (
"123 690 OFFCURVE",
"0 462 OFFCURVE",
"0 189 CURVE SMOOTH",
"0 116 OFFCURVE",
"21 0 OFFCURVE",
"149 0 CURVE SMOOTH",
"263 0 OFFCURVE",
"335 104 OFFCURVE",
"359 187 CURVE SMOOTH",
"368 219 OFFCURVE",
"382 259 OFFCURVE",
"343 259 CURVE SMOOTH",
"325 259 OFFCURVE",
"317 237 OFFCURVE",
"305 206 CURVE SMOOTH",
"267 104 OFFCURVE",
"209 56 OFFCURVE",
"145 56 CURVE SMOOTH",
"102 56 OFFCURVE",
"64 95 OFFCURVE",
"64 188 CURVE SMOOTH",
"63 388 OFFCURVE",
"148 633 OFFCURVE",
"282 633 CURVE SMOOTH",
"323 633 OFFCURVE",
"363 601 OFFCURVE",
"362 508 CURVE SMOOTH",
"362 496 OFFCURVE",
"358 464 OFFCURVE",
"352 429 CURVE SMOOTH",
"349 412 OFFCURVE",
"356 399 OFFCURVE",
"377 399 CURVE SMOOTH",
"414 399 OFFCURVE",
"426 465 OFFCURVE",
"426 514 CURVE SMOOTH",
"426 626 OFFCURVE",
"365 690 OFFCURVE",
"282 690 CURVE SMOOTH"
);
},
{
closed = 1;
nodes = (
"295 281 OFFCURVE",
"232 276 OFFCURVE",
"176 272 CURVE SMOOTH",
"153 270 OFFCURVE",
"150 251 OFFCURVE",
"150 246 CURVE SMOOTH",
"150 224 OFFCURVE",
"165 217 OFFCURVE",
"191 218 CURVE SMOOTH",
"299 223 OFFCURVE",
"378 228 OFFCURVE",
"417 231 CURVE SMOOTH",
"435 233 OFFCURVE",
"445 247 OFFCURVE",
"445 261 CURVE SMOOTH",
"445 278 OFFCURVE",
"430 288 OFFCURVE",
"413 287 CURVE SMOOTH"
);
}
);
width = 445;
}
);
leftKerningGroup = G;
rightKerningGroup = G;
unicode = 0047;
},
{
glyphname = H;
lastChange = "2016-10-31 14:32:31 +0000";
layers = (
{
layerId = "2B556C7D-ACF4-4058-9F01-0A4D9389EAED";
name = Regular;
paths = (
{
closed = 1;
nodes = (
"603 689 OFFCURVE",
"587 682 OFFCURVE",
"580 655 CURVE SMOOTH",
"514 403 OFFCURVE",
"494 391 OFFCURVE",
"424 326 CURVE SMOOTH",
"344 251 OFFCURVE",
"235 205 OFFCURVE",
"160 205 CURVE SMOOTH",
"100 205 OFFCURVE",
"61 248 OFFCURVE",
"61 326 CURVE SMOOTH",
"61 386 OFFCURVE",
"76 439 OFFCURVE",
"108 439 CURVE SMOOTH",
"161 439 OFFCURVE",
"244 306 OFFCURVE",
"226 169 CURVE SMOOTH",
"217 97 OFFCURVE",
"212 61 OFFCURVE",
"210 39 CURVE SMOOTH",
"208 8 OFFCURVE",
"225 1 OFFCURVE",
"239 1 CURVE SMOOTH",
"252 1 OFFCURVE",
"268 5 OFFCURVE",
"273 39 CURVE SMOOTH",
"275 52 OFFCURVE",
"280 95 OFFCURVE",
"289 164 CURVE SMOOTH",
"301 254 OFFCURVE",
"326 396 OFFCURVE",
"383 642 CURVE SMOOTH",
"396 699 OFFCURVE",
"335 701 OFFCURVE",
"325 670 CURVE SMOOTH",
"304 606 OFFCURVE",
"269 436 OFFCURVE",
"248 319 CURVE",
"267 328 LINE",
"247 408 OFFCURVE",
"190 496 OFFCURVE",
"110 495 CURVE SMOOTH",
"51 494 OFFCURVE",
"0 444 OFFCURVE",
"0 337 CURVE SMOOTH",
"0 206 OFFCURVE",
"60 149 OFFCURVE",
"154 149 CURVE SMOOTH",
"266 149 OFFCURVE",
"425 228 OFFCURVE",
"513 335 CURVE",
"505 344 LINE",
"478 190 OFFCURVE",
"467 84 OFFCURVE",
"461 35 CURVE SMOOTH",
"458 11 OFFCURVE",
"473 0 OFFCURVE",
"488 0 CURVE SMOOTH",
"505 0 OFFCURVE",
"520 9 OFFCURVE",
"524 43 CURVE SMOOTH",
"546 227 OFFCURVE",
"579 414 OFFCURVE",
"641 644 CURVE SMOOTH",
"646 664 OFFCURVE",
"641 689 OFFCURVE",
"615 689 CURVE SMOOTH"
);
}
);
width = 643;
}
);
leftKerningGroup = H;
rightKerningGroup = H;
unicode = 0048;
},
{
glyphname = I;
lastChange = "2016-10-31 14:32:31 +0000";
layers = (
{
layerId = "2B556C7D-ACF4-4058-9F01-0A4D9389EAED";
name = Regular;
paths = (
{
closed = 1;
nodes = (
"205 690 OFFCURVE",
"189 681 OFFCURVE",
"186 666 CURVE SMOOTH",
"158 545 OFFCURVE",
"81 99 OFFCURVE",
"81 44 CURVE SMOOTH",
"81 17 OFFCURVE",
"95 5 OFFCURVE",
"110 5 CURVE SMOOTH",
"126 5 OFFCURVE",
"140 17 OFFCURVE",
"143 41 CURVE SMOOTH",
"159 187 OFFCURVE",
"202 444 OFFCURVE",
"244 639 CURVE SMOOTH",
"252 675 OFFCURVE",
"236 690 OFFCURVE",
"218 690 CURVE SMOOTH"
);
},
{
closed = 1;
nodes = (
"93 49 OFFCURVE",
"72 50 OFFCURVE",
"28 48 CURVE SMOOTH",
"5 47 OFFCURVE",
"0 29 OFFCURVE",
"0 24 CURVE SMOOTH",
"-2 2 OFFCURVE",
"13 -6 OFFCURVE",
"39 -6 CURVE SMOOTH",
"123 -6 OFFCURVE",
"156 -7 OFFCURVE",
"187 -6 CURVE SMOOTH",
"205 -5 OFFCURVE",
"216 8 OFFCURVE",
"217 22 CURVE SMOOTH",
"218 39 OFFCURVE",
"204 50 OFFCURVE",
"186 51 CURVE SMOOTH"
);
},
{
closed = 1;
nodes = (
"183 693 OFFCURVE",
"173 692 OFFCURVE",
"125 691 CURVE SMOOTH",
"102 691 OFFCURVE",
"97 672 OFFCURVE",
"97 667 CURVE SMOOTH",
"95 645 OFFCURVE",
"110 637 OFFCURVE",
"136 636 CURVE SMOOTH",
"227 635 OFFCURVE",
"247 636 OFFCURVE",
"284 636 CURVE SMOOTH",
"302 637 OFFCURVE",
"313 650 OFFCURVE",
"314 664 CURVE SMOOTH",
"315 681 OFFCURVE",
"301 692 OFFCURVE",
"284 692 CURVE SMOOTH"
);
}
);
width = 327;
}
);
unicode = 0049;
},
{
glyphname = J;
lastChange = "2016-10-31 14:32:31 +0000";
layers = (
{
layerId = "2B556C7D-ACF4-4058-9F01-0A4D9389EAED";
name = Regular;
paths = (
{
closed = 1;
nodes = (
"338 685 OFFCURVE",
"204 668 OFFCURVE",
"147 644 CURVE SMOOTH",
"124 635 OFFCURVE",
"115 623 OFFCURVE",
"115 610 CURVE SMOOTH",
"115 592 OFFCURVE",
"135 579 OFFCURVE",
"166 590 CURVE SMOOTH",
"235 614 OFFCURVE",
"337 626 OFFCURVE",
"397 626 CURVE SMOOTH",
"443 626 OFFCURVE",
"454 607 OFFCURVE",
"454 572 CURVE SMOOTH",
"453 416 OFFCURVE",
"384 -66 OFFCURVE",
"152 -66 CURVE SMOOTH",
"90 -66 OFFCURVE",
"64 -17 OFFCURVE",
"64 35 CURVE SMOOTH",
"64 186 OFFCURVE",
"263 285 OFFCURVE",
"429 285 CURVE SMOOTH",
"489 285 OFFCURVE",
"548 277 OFFCURVE",
"607 273 CURVE SMOOTH",
"637 271 OFFCURVE",
"647 287 OFFCURVE",
"647 301 CURVE SMOOTH",
"647 317 OFFCURVE",
"635 329 OFFCURVE",
"614 332 CURVE SMOOTH",
"552 340 OFFCURVE",
"495 343 OFFCURVE",
"445 343 CURVE SMOOTH",
"212 343 OFFCURVE",
"0 224 OFFCURVE",
"0 33 CURVE SMOOTH",
"0 -49 OFFCURVE",
"54 -123 OFFCURVE",
"144 -123 CURVE SMOOTH",
"461 -123 OFFCURVE",
"517 447 OFFCURVE",
"517 571 CURVE SMOOTH",
"517 634 OFFCURVE",
"500 685 OFFCURVE",
"408 685 CURVE SMOOTH"
);
}
);
width = 647;
}
);
unicode = 004A;
},
{
glyphname = K;
lastChange = "2016-10-31 14:32:31 +0000";
layers = (
{
layerId = "2B556C7D-ACF4-4058-9F01-0A4D9389EAED";
name = Regular;
paths = (
{
closed = 1;
nodes = (
"49 449 OFFCURVE",
"0 181 OFFCURVE",
"0 70 CURVE SMOOTH",
"0 34 OFFCURVE",
"4 1 OFFCURVE",
"41 1 CURVE SMOOTH",
"58 1 OFFCURVE",
"75 8 OFFCURVE",
"98 39 CURVE SMOOTH",
"136 92 OFFCURVE",
"170 157 OFFCURVE",
"203 208 CURVE",
"194 216 LINE",
"189 108 OFFCURVE",
"238 1 OFFCURVE",
"318 1 CURVE SMOOTH",
"394 1 OFFCURVE",
"472 63 OFFCURVE",
"541 261 CURVE SMOOTH",
"563 324 OFFCURVE",
"501 328 OFFCURVE",
"488 295 CURVE SMOOTH",
"414 101 OFFCURVE",
"361 58 OFFCURVE",
"321 58 CURVE SMOOTH",
"266 58 OFFCURVE",
"245 222 OFFCURVE",
"245 262 CURVE SMOOTH",
"245 268 OFFCURVE",
"365 453 OFFCURVE",
"437 583 CURVE SMOOTH",
"465 633 OFFCURVE",
"405 654 OFFCURVE",
"383 617 CURVE SMOOTH",
"218 333 OFFCURVE",
"85 121 OFFCURVE",
"50 79 CURVE",
"57 70 LINE",
"68 164 OFFCURVE",
"85 327 OFFCURVE",
"176 643 CURVE SMOOTH",
"192 698 OFFCURVE",
"130 708 OFFCURVE",
"116 663 CURVE SMOOTH"
);
}
);
width = 543;
}
);
unicode = 004B;
},
{
glyphname = L;
lastChange = "2016-10-31 14:32:31 +0000";
layers = (
{
layerId = "2B556C7D-ACF4-4058-9F01-0A4D9389EAED";
name = Regular;
paths = (
{
closed = 1;
nodes = (
"340 689 OFFCURVE",
"305 669 OFFCURVE",
"284 623 CURVE SMOOTH",
"228 501 OFFCURVE",
"171 281 OFFCURVE",
"101 100 CURVE",
"125 112 LINE",
"103 119 OFFCURVE",
"82 122 OFFCURVE",
"61 122 CURVE SMOOTH",
"28 122 OFFCURVE",
"0 101 OFFCURVE",
"0 68 CURVE SMOOTH",
"0 47 OFFCURVE",
"12 20 OFFCURVE",
"65 21 CURVE SMOOTH",
"98 21 OFFCURVE",
"133 38 OFFCURVE",
"141 37 CURVE SMOOTH",
"171 32 OFFCURVE",
"312 -31 OFFCURVE",
"410 -31 CURVE SMOOTH",
"555 -31 OFFCURVE",
"618 121 OFFCURVE",
"643 193 CURVE SMOOTH",
"661 244 OFFCURVE",
"605 264 OFFCURVE",
"587 217 CURVE SMOOTH",
"554 129 OFFCURVE",
"498 28 OFFCURVE",
"419 28 CURVE SMOOTH",
"324 28 OFFCURVE",
"235 75 OFFCURVE",
"156 103 CURVE",
"163 85 LINE",
"174 114 OFFCURVE",
"182 137 OFFCURVE",
"208 212 CURVE SMOOTH",
"275 406 OFFCURVE",
"329 631 OFFCURVE",
"375 631 CURVE SMOOTH",
"400 631 OFFCURVE",
"420 582 OFFCURVE",
"420 531 CURVE SMOOTH",
"420 427 OFFCURVE",
"370 369 OFFCURVE",
"267 369 CURVE SMOOTH",
"225 369 OFFCURVE",
"177 378 OFFCURVE",
"130 394 CURVE SMOOTH",
"101 404 OFFCURVE",
"84 388 OFFCURVE",
"84 370 CURVE SMOOTH",
"84 357 OFFCURVE",
"93 342 OFFCURVE",
"114 336 CURVE SMOOTH",
"172 319 OFFCURVE",
"222 311 OFFCURVE",
"266 311 CURVE SMOOTH",
"404 311 OFFCURVE",
"483 395 OFFCURVE",
"483 523 CURVE SMOOTH",
"483 611 OFFCURVE",
"444 689 OFFCURVE",
"375 689 CURVE SMOOTH"
);
}
);
width = 647;
}
);
unicode = 004C;
},
{
glyphname = Lslash;
lastChange = "2016-10-31 14:32:31 +0000";
layers = (
{
layerId = "2B556C7D-ACF4-4058-9F01-0A4D9389EAED";
name = Regular;
paths = (
{
closed = 1;
nodes = (
"312 679 OFFCURVE",
"300 676 OFFCURVE",
"290 648 CURVE SMOOTH",
"234 486 OFFCURVE",
"170 289 OFFCURVE",
"100 100 CURVE",
"125 112 LINE",
"103 119 OFFCURVE",
"82 122 OFFCURVE",
"61 122 CURVE SMOOTH",
"28 122 OFFCURVE",
"0 101 OFFCURVE",
"0 68 CURVE SMOOTH",
"0 47 OFFCURVE",
"12 20 OFFCURVE",
"65 21 CURVE SMOOTH",
"98 21 OFFCURVE",
"133 38 OFFCURVE",
"141 37 CURVE SMOOTH",
"171 32 OFFCURVE",
"312 -31 OFFCURVE",
"410 -31 CURVE SMOOTH",
"563 -31 OFFCURVE",
"619 130 OFFCURVE",
"643 193 CURVE SMOOTH",
"659 237 OFFCURVE",
"606 267 OFFCURVE",
"587 217 CURVE SMOOTH",
"546 112 OFFCURVE",
"494 28 OFFCURVE",
"419 28 CURVE SMOOTH",
"324 28 OFFCURVE",
"235 75 OFFCURVE",
"156 103 CURVE",
"162 85 LINE",
"201 200 OFFCURVE",
"347 621 OFFCURVE",
"347 622 CURVE SMOOTH",
"360 660 OFFCURVE",
"343 679 OFFCURVE",
"324 679 CURVE SMOOTH"
);
},
{
closed = 1;
nodes = (
"258 352 OFFCURVE",
"222 331 OFFCURVE",
"57 273 CURVE SMOOTH",
"42 268 OFFCURVE",
"34 257 OFFCURVE",
"34 243 CURVE SMOOTH",
"34 226 OFFCURVE",
"50 210 OFFCURVE",
"79 220 CURVE SMOOTH",
"172 253 OFFCURVE",
"325 314 OFFCURVE",
"403 355 CURVE SMOOTH",
"414 361 OFFCURVE",
"420 373 OFFCURVE",
"420 384 CURVE SMOOTH",
"420 402 OFFCURVE",
"403 418 OFFCURVE",
"374 405 CURVE SMOOTH"
);
}
);
width = 646;
}
);
unicode = 0141;
},
{
glyphname = M;
lastChange = "2016-10-31 14:32:31 +0000";
layers = (
{
layerId = "2B556C7D-ACF4-4058-9F01-0A4D9389EAED";
name = Regular;
paths = (
{
closed = 1;
nodes = (
"475 688 OFFCURVE",
"459 674 OFFCURVE",
"454 657 CURVE SMOOTH",
"330 263 OFFCURVE",
"214 59 OFFCURVE",
"120 59 CURVE SMOOTH",
"85 59 OFFCURVE",
"61 78 OFFCURVE",
"61 122 CURVE SMOOTH",
"61 144 OFFCURVE",
"68 174 OFFCURVE",
"83 210 CURVE SMOOTH",
"97 243 OFFCURVE",
"80 263 OFFCURVE",
"61 263 CURVE SMOOTH",
"49 263 OFFCURVE",
"36 255 OFFCURVE",
"29 239 CURVE SMOOTH",
"10 196 OFFCURVE",
"0 154 OFFCURVE",
"0 118 CURVE SMOOTH",
"0 50 OFFCURVE",
"35 1 OFFCURVE",
"116 1 CURVE SMOOTH",
"297 1 OFFCURVE",
"414 342 OFFCURVE",
"508 637 CURVE SMOOTH",
"513 653 OFFCURVE",
"490 663 OFFCURVE",
"486 646 CURVE SMOOTH",
"451 495 OFFCURVE",
"444 208 OFFCURVE",
"438 99 CURVE SMOOTH",
"436 66 OFFCURVE",
"451 58 OFFCURVE",
"465 58 CURVE SMOOTH",
"479 58 OFFCURVE",
"491 67 OFFCURVE",
"506 97 CURVE SMOOTH",
"550 181 OFFCURVE",
"637 359 OFFCURVE",
"712 530 CURVE",
"696 535 LINE",
"674 448 OFFCURVE",
"645 283 OFFCURVE",
"645 198 CURVE SMOOTH",
"645 130 OFFCURVE",
"642 3 OFFCURVE",
"760 3 CURVE SMOOTH",
"856 3 OFFCURVE",
"924 72 OFFCURVE",
"968 235 CURVE SMOOTH",
"981 282 OFFCURVE",
"923 294 OFFCURVE",
"912 250 CURVE SMOOTH",
"881 118 OFFCURVE",
"820 60 OFFCURVE",
"763 60 CURVE SMOOTH",
"721 60 OFFCURVE",
"708 99 OFFCURVE",
"708 186 CURVE SMOOTH",
"708 281 OFFCURVE",
"732 427 OFFCURVE",
"775 613 CURVE SMOOTH",
"784 652 OFFCURVE",
"766 671 OFFCURVE",
"744 671 CURVE SMOOTH",
"729 671 OFFCURVE",
"712 661 OFFCURVE",
"704 643 CURVE SMOOTH",
"665 560 OFFCURVE",
"555 329 OFFCURVE",
"490 196 CURVE",
"503 196 LINE",
"512 340 OFFCURVE",
"526 505 OFFCURVE",
"534 633 CURVE SMOOTH",
"537 672 OFFCURVE",
"519 688 OFFCURVE",
"498 688 CURVE SMOOTH"
);
}
);
width = 979;
}
);
unicode = 004D;
},
{
glyphname = N;
lastChange = "2016-10-31 14:32:31 +0000";
layers = (
{
layerId = "2B556C7D-ACF4-4058-9F01-0A4D9389EAED";
name = Regular;
paths = (
{
closed = 1;
nodes = (
"195 689 OFFCURVE",
"60 495 OFFCURVE",
"2 293 CURVE SMOOTH",
"-11 248 OFFCURVE",
"47 225 OFFCURVE",
"60 274 CURVE SMOOTH",
"101 426 OFFCURVE",
"228 630 OFFCURVE",
"284 630 CURVE SMOOTH",
"337 630 OFFCURVE",
"225 173 OFFCURVE",
"198 50 CURVE SMOOTH",
"191 17 OFFCURVE",
"205 2 OFFCURVE",
"226 2 CURVE SMOOTH",
"242 2 OFFCURVE",
"256 15 OFFCURVE",
"262 42 CURVE SMOOTH",
"330 341 OFFCURVE",
"496 536 OFFCURVE",
"538 536 CURVE SMOOTH",
"586 536 OFFCURVE",
"495 245 OFFCURVE",
"495 111 CURVE SMOOTH",
"495 45 OFFCURVE",
"528 -3 OFFCURVE",
"598 -3 CURVE SMOOTH",
"680 -2 OFFCURVE",
"759 61 OFFCURVE",
"822 210 CURVE SMOOTH",
"845 265 OFFCURVE",
"787 286 OFFCURVE",
"768 241 CURVE SMOOTH",
"709 102 OFFCURVE",
"641 54 OFFCURVE",
"600 53 CURVE SMOOTH",
"572 53 OFFCURVE",
"558 67 OFFCURVE",
"558 121 CURVE SMOOTH",
"558 214 OFFCURVE",
"616 411 OFFCURVE",
"615 497 CURVE SMOOTH",
"614 563 OFFCURVE",
"591 595 OFFCURVE",
"546 595 CURVE SMOOTH",
"479 595 OFFCURVE",
"385 498 OFFCURVE",
"303 321 CURVE",
"315 320 LINE",
"349 469 OFFCURVE",
"361 525 OFFCURVE",
"361 596 CURVE SMOOTH",
"361 629 OFFCURVE",
"347 689 OFFCURVE",
"290 689 CURVE SMOOTH"
);
}
);
width = 827;
}
);
leftKerningGroup = N;
rightKerningGroup = N;
unicode = 004E;
},
{
glyphname = Nacute;
lastChange = "2016-10-31 14:32:31 +0000";
layers = (
{
layerId = "2B556C7D-ACF4-4058-9F01-0A4D9389EAED";
name = Regular;
paths = (
{
closed = 1;
nodes = (
"195 689 OFFCURVE",
"60 495 OFFCURVE",
"2 293 CURVE SMOOTH",
"-11 248 OFFCURVE",
"47 225 OFFCURVE",
"60 274 CURVE SMOOTH",
"101 426 OFFCURVE",
"228 630 OFFCURVE",
"284 630 CURVE SMOOTH",
"337 630 OFFCURVE",
"225 173 OFFCURVE",
"198 50 CURVE SMOOTH",
"191 17 OFFCURVE",
"205 2 OFFCURVE",
"226 2 CURVE SMOOTH",
"242 2 OFFCURVE",
"256 15 OFFCURVE",
"262 42 CURVE SMOOTH",
"330 341 OFFCURVE",
"496 536 OFFCURVE",
"538 536 CURVE SMOOTH",
"586 536 OFFCURVE",
"495 245 OFFCURVE",
"495 111 CURVE SMOOTH",
"495 45 OFFCURVE",
"528 -3 OFFCURVE",
"598 -3 CURVE SMOOTH",
"680 -2 OFFCURVE",
"759 61 OFFCURVE",
"822 210 CURVE SMOOTH",
"845 265 OFFCURVE",
"787 286 OFFCURVE",
"768 241 CURVE SMOOTH",
"709 102 OFFCURVE",
"641 54 OFFCURVE",
"600 53 CURVE SMOOTH",
"572 53 OFFCURVE",
"558 67 OFFCURVE",
"558 121 CURVE SMOOTH",
"558 214 OFFCURVE",
"616 411 OFFCURVE",
"615 497 CURVE SMOOTH",
"614 563 OFFCURVE",
"591 595 OFFCURVE",
"546 595 CURVE SMOOTH",
"479 595 OFFCURVE",
"385 498 OFFCURVE",
"303 321 CURVE",
"315 320 LINE",
"349 469 OFFCURVE",
"361 525 OFFCURVE",
"361 596 CURVE SMOOTH",
"361 629 OFFCURVE",
"347 689 OFFCURVE",
"290 689 CURVE SMOOTH"
);
},
{
closed = 1;
nodes = (
"543 816 OFFCURVE",
"528 810 OFFCURVE",
"519 792 CURVE SMOOTH",
"501 753 OFFCURVE",
"491 729 OFFCURVE",
"476 694 CURVE SMOOTH",
"465 670 OFFCURVE",
"478 652 OFFCURVE",
"494 649 CURVE SMOOTH",
"506 647 OFFCURVE",
"521 653 OFFCURVE",
"529 669 CURVE SMOOTH",
"556 720 OFFCURVE",
"562 734 OFFCURVE",
"577 766 CURVE SMOOTH",
"588 790 OFFCURVE",
"575 811 OFFCURVE",
"556 814 CURVE SMOOTH"
);
}
);
width = 827;
}
);
leftKerningGroup = N;
leftMetricsKey = N;
rightKerningGroup = N;
unicode = 0143;
},
{
glyphname = O;
lastChange = "2016-10-31 14:32:31 +0000";
layers = (
{
layerId = "2B556C7D-ACF4-4058-9F01-0A4D9389EAED";
name = Regular;
paths = (
{
closed = 1;
nodes = (
"111 690 OFFCURVE",
"23 534 OFFCURVE",
"26 376 CURVE SMOOTH",
"29 240 OFFCURVE",
"131 195 OFFCURVE",
"252 195 CURVE SMOOTH",
"375 195 OFFCURVE",
"472 235 OFFCURVE",
"557 290 CURVE SMOOTH",
"593 313 OFFCURVE",
"574 371 OFFCURVE",
"524 338 CURVE SMOOTH",
"420 268 OFFCURVE",
"327 253 OFFCURVE",
"250 253 CURVE SMOOTH",
"149 253 OFFCURVE",
"88 295 OFFCURVE",
"88 383 CURVE SMOOTH",
"87 501 OFFCURVE",
"145 633 OFFCURVE",
"246 633 CURVE SMOOTH",
"315 633 OFFCURVE",
"364 558 OFFCURVE",
"365 420 CURVE SMOOTH",
"366 279 OFFCURVE",
"296 57 OFFCURVE",
"162 57 CURVE SMOOTH",
"88 57 OFFCURVE",
"63 123 OFFCURVE",
"63 212 CURVE SMOOTH",
"63 247 OFFCURVE",
"72 281 OFFCURVE",
"84 329 CURVE SMOOTH",
"96 375 OFFCURVE",
"42 380 OFFCURVE",
"33 357 CURVE SMOOTH",
"14 314 OFFCURVE",
"0 262 OFFCURVE",
"0 204 CURVE SMOOTH",
"0 103 OFFCURVE",
"37 0 OFFCURVE",
"162 0 CURVE SMOOTH",
"347 0 OFFCURVE",
"428 246 OFFCURVE",
"428 433 CURVE SMOOTH",
"428 558 OFFCURVE",
"376 690 OFFCURVE",
"247 690 CURVE SMOOTH"
);
}
);
width = 576;
}
);
leftKerningGroup = O;
rightKerningGroup = O;
unicode = 004F;
},
{
glyphname = Oacute;
lastChange = "2016-10-31 14:32:31 +0000";
layers = (
{
layerId = "2B556C7D-ACF4-4058-9F01-0A4D9389EAED";
name = Regular;
paths = (
{
closed = 1;
nodes = (
"111 626 OFFCURVE",
"23 487 OFFCURVE",
"26 347 CURVE SMOOTH",
"29 184 OFFCURVE",
"143 153 OFFCURVE",
"252 153 CURVE SMOOTH",
"395 153 OFFCURVE",
"509 233 OFFCURVE",
"563 288 CURVE SMOOTH",
"588 313 OFFCURVE",
"577 348 OFFCURVE",
"552 348 CURVE SMOOTH",
"544 348 OFFCURVE",
"535 344 OFFCURVE",
"524 334 CURVE SMOOTH",
"438 257 OFFCURVE",
"350 211 OFFCURVE",
"250 211 CURVE SMOOTH",
"162 211 OFFCURVE",
"88 241 OFFCURVE",
"88 354 CURVE SMOOTH",
"87 455 OFFCURVE",
"145 569 OFFCURVE",
"246 569 CURVE SMOOTH",
"315 569 OFFCURVE",
"357 498 OFFCURVE",
"358 377 CURVE SMOOTH",
"359 227 OFFCURVE",
"281 57 OFFCURVE",
"162 57 CURVE SMOOTH",
"88 57 OFFCURVE",
"63 123 OFFCURVE",
"63 212 CURVE SMOOTH",
"63 247 OFFCURVE",
"72 281 OFFCURVE",
"84 329 CURVE SMOOTH",
"96 375 OFFCURVE",
"42 380 OFFCURVE",
"33 357 CURVE SMOOTH",
"14 314 OFFCURVE",
"0 262 OFFCURVE",
"0 204 CURVE SMOOTH",
"0 103 OFFCURVE",
"37 0 OFFCURVE",
"162 0 CURVE SMOOTH",
"333 0 OFFCURVE",
"421 203 OFFCURVE",
"421 390 CURVE SMOOTH",
"421 496 OFFCURVE",
"376 626 OFFCURVE",
"247 626 CURVE SMOOTH"
);
},
{
closed = 1;
nodes = (
"299 833 OFFCURVE",
"284 827 OFFCURVE",
"275 809 CURVE SMOOTH",
"257 770 OFFCURVE",
"247 746 OFFCURVE",
"232 711 CURVE SMOOTH",
"221 687 OFFCURVE",
"234 669 OFFCURVE",
"250 666 CURVE SMOOTH",
"262 664 OFFCURVE",
"277 670 OFFCURVE",
"285 686 CURVE SMOOTH",
"312 737 OFFCURVE",
"318 751 OFFCURVE",
"333 783 CURVE SMOOTH",
"344 807 OFFCURVE",
"331 828 OFFCURVE",
"312 831 CURVE SMOOTH"
);
}
);
width = 577;
}
);
leftKerningGroup = O;
leftMetricsKey = O;
rightKerningGroup = O;
unicode = 00D3;
},
{
glyphname = P;
lastChange = "2016-10-31 14:32:31 +0000";
layers = (
{
layerId = "2B556C7D-ACF4-4058-9F01-0A4D9389EAED";
name = Regular;
paths = (
{
closed = 1;
nodes = (
"246 689 OFFCURVE",
"0 508 OFFCURVE",
"0 291 CURVE SMOOTH",
"0 173 OFFCURVE",
"82 111 OFFCURVE",
"197 111 CURVE SMOOTH",
"267 111 OFFCURVE",
"355 141 OFFCURVE",
"399 205 CURVE",
"375 196 LINE",
"365 144 OFFCURVE",
"347 35 OFFCURVE",
"343 4 CURVE SMOOTH",
"340 -19 OFFCURVE",
"354 -30 OFFCURVE",
"370 -30 CURVE SMOOTH",
"385 -30 OFFCURVE",
"402 -20 OFFCURVE",
"405 1 CURVE SMOOTH",
"409 23 OFFCURVE",
"444 239 OFFCURVE",
"450 272 CURVE SMOOTH",
"457 309 OFFCURVE",
"442 316 OFFCURVE",
"432 316 CURVE SMOOTH",
"411 316 OFFCURVE",
"408 300 OFFCURVE",
"396 285 CURVE SMOOTH",
"343 219 OFFCURVE",
"274 169 OFFCURVE",
"203 169 CURVE SMOOTH",
"123 169 OFFCURVE",
"63 205 OFFCURVE",
"63 283 CURVE SMOOTH",
"63 474 OFFCURVE",
"285 631 OFFCURVE",
"482 631 CURVE SMOOTH",
"607 631 OFFCURVE",
"675 562 OFFCURVE",
"675 476 CURVE SMOOTH",
"675 391 OFFCURVE",
"621 306 OFFCURVE",
"528 238 CURVE SMOOTH",
"484 206 OFFCURVE",
"522 161 OFFCURVE",
"563 189 CURVE SMOOTH",
"689 275 OFFCURVE",
"738 392 OFFCURVE",
"738 474 CURVE SMOOTH",
"738 602 OFFCURVE",
"639 689 OFFCURVE",
"488 689 CURVE SMOOTH"
);
}
);
width = 738;
}
);
unicode = 0050;
},
{
glyphname = Q;
lastChange = "2016-10-31 14:32:31 +0000";
layers = (
{
layerId = "2B556C7D-ACF4-4058-9F01-0A4D9389EAED";
name = Regular;
paths = (
{
closed = 1;
nodes = (
"142 690 OFFCURVE",
"85 577 OFFCURVE",
"85 431 CURVE SMOOTH",
"85 244 OFFCURVE",
"169 82 OFFCURVE",
"362 -21 CURVE SMOOTH",
"401 -42 OFFCURVE",
"435 7 OFFCURVE",
"392 32 CURVE SMOOTH",
"215 136 OFFCURVE",
"146 269 OFFCURVE",
"147 446 CURVE SMOOTH",
"147 540 OFFCURVE",
"183 633 OFFCURVE",
"256 633 CURVE SMOOTH",
"318 633 OFFCURVE",
"365 563 OFFCURVE",
"366 420 CURVE SMOOTH",
"367 279 OFFCURVE",
"297 58 OFFCURVE",
"163 58 CURVE SMOOTH",
"89 58 OFFCURVE",
"62 114 OFFCURVE",
"62 172 CURVE SMOOTH",
"62 188 OFFCURVE",
"61 211 OFFCURVE",
"73 265 CURVE SMOOTH",
"80 292 OFFCURVE",
"63 304 OFFCURVE",
"48 304 CURVE SMOOTH",
"35 304 OFFCURVE",
"23 296 OFFCURVE",
"18 284 CURVE SMOOTH",
"4 245 OFFCURVE",
"0 213 OFFCURVE",
"0 168 CURVE SMOOTH",
"0 94 OFFCURVE",
"38 0 OFFCURVE",
"163 0 CURVE SMOOTH",
"348 0 OFFCURVE",
"429 246 OFFCURVE",
"429 433 CURVE SMOOTH",
"429 549 OFFCURVE",
"379 690 OFFCURVE",
"257 690 CURVE SMOOTH"
);
}
);
width = 464;
}
);
unicode = 0051;
},
{
glyphname = R;
lastChange = "2016-10-31 14:32:31 +0000";
layers = (
{
layerId = "2B556C7D-ACF4-4058-9F01-0A4D9389EAED";
name = Regular;
paths = (
{
closed = 1;
nodes = (
"259 688 OFFCURVE",
"111 610 OFFCURVE",
"73 578 CURVE SMOOTH",
"65 571 OFFCURVE",
"61 563 OFFCURVE",
"61 554 CURVE SMOOTH",
"61 533 OFFCURVE",
"82 514 OFFCURVE",
"112 534 CURVE SMOOTH",
"194 587 OFFCURVE",
"305 629 OFFCURVE",
"383 629 CURVE SMOOTH",
"460 629 OFFCURVE",
"487 593 OFFCURVE",
"487 528 CURVE SMOOTH",
"487 410 OFFCURVE",
"388 312 OFFCURVE",
"306 247 CURVE SMOOTH",
"291 235 OFFCURVE",
"281 228 OFFCURVE",
"281 215 CURVE SMOOTH",
"281 206 OFFCURVE",
"285 195 OFFCURVE",
"292 183 CURVE SMOOTH",
"334 115 OFFCURVE",
"406 1 OFFCURVE",
"505 1 CURVE SMOOTH",
"601 1 OFFCURVE",
"650 107 OFFCURVE",
"665 163 CURVE SMOOTH",
"673 189 OFFCURVE",
"661 211 OFFCURVE",
"644 211 CURVE SMOOTH",
"634 211 OFFCURVE",
"619 204 OFFCURVE",
"611 185 CURVE SMOOTH",
"572 88 OFFCURVE",
"537 58 OFFCURVE",
"508 58 CURVE SMOOTH",
"448 58 OFFCURVE",
"378 163 OFFCURVE",
"340 217 CURVE",
"333 198 LINE",
"465 277 OFFCURVE",
"551 416 OFFCURVE",
"551 527 CURVE SMOOTH",
"551 629 OFFCURVE",
"491 688 OFFCURVE",
"384 688 CURVE SMOOTH"
);
},
{
closed = 1;
nodes = (
"234 506 OFFCURVE",
"219 496 OFFCURVE",
"215 473 CURVE SMOOTH",
"199 377 OFFCURVE",
"183 284 OFFCURVE",
"170 219 CURVE SMOOTH",
"147 108 OFFCURVE",
"137 56 OFFCURVE",
"94 56 CURVE SMOOTH",
"81 56 OFFCURVE",
"40 68 OFFCURVE",
"73 174 CURVE SMOOTH",
"87 220 OFFCURVE",
"29 236 OFFCURVE",
"15 187 CURVE SMOOTH",
"-28 38 OFFCURVE",
"34 0 OFFCURVE",
"93 0 CURVE SMOOTH",
"181 0 OFFCURVE",
"200 58 OFFCURVE",
"230 210 CURVE SMOOTH",
"251 319 OFFCURVE",
"269 425 OFFCURVE",
"276 469 CURVE SMOOTH",
"280 492 OFFCURVE",
"264 506 OFFCURVE",
"249 506 CURVE SMOOTH"
);
}
);
width = 667;
}
);
unicode = 0052;
},
{
glyphname = S;
lastChange = "2016-10-31 14:32:31 +0000";
layers = (
{
layerId = "2B556C7D-ACF4-4058-9F01-0A4D9389EAED";
name = Regular;
paths = (
{
closed = 1;
nodes = (
"168 689 OFFCURVE",
"0 604 OFFCURVE",
"0 447 CURVE SMOOTH",
"0 218 OFFCURVE",
"271 250 OFFCURVE",
"271 137 CURVE SMOOTH",
"271 72 OFFCURVE",
"195 43 OFFCURVE",
"157 44 CURVE SMOOTH",
"126 44 OFFCURVE",
"108 62 OFFCURVE",
"108 85 CURVE SMOOTH",
"108 136 OFFCURVE",
"164 179 OFFCURVE",
"244 208 CURVE SMOOTH",
"333 240 OFFCURVE",
"464 252 OFFCURVE",
"515 252 CURVE SMOOTH",
"534 252 OFFCURVE",
"546 267 OFFCURVE",
"546 281 CURVE SMOOTH",
"546 296 OFFCURVE",
"534 311 OFFCURVE",
"508 310 CURVE SMOOTH",
"393 307 OFFCURVE",
"280 284 OFFCURVE",
"205 254 CURVE SMOOTH",
"106 214 OFFCURVE",
"45 158 OFFCURVE",
"45 87 CURVE SMOOTH",
"45 28 OFFCURVE",
"85 -14 OFFCURVE",
"156 -14 CURVE SMOOTH",
"221 -14 OFFCURVE",
"335 28 OFFCURVE",
"335 141 CURVE SMOOTH",
"335 297 OFFCURVE",
"64 259 OFFCURVE",
"64 443 CURVE SMOOTH",
"64 543 OFFCURVE",
"167 631 OFFCURVE",
"280 631 CURVE SMOOTH",
"350 631 OFFCURVE",
"395 593 OFFCURVE",
"395 532 CURVE SMOOTH",
"395 499 OFFCURVE",
"377 460 OFFCURVE",
"340 409 CURVE SMOOTH",
"306 362 OFFCURVE",
"360 339 OFFCURVE",
"389 372 CURVE SMOOTH",
"436 426 OFFCURVE",
"459 482 OFFCURVE",
"459 533 CURVE SMOOTH",
"459 620 OFFCURVE",
"405 689 OFFCURVE",
"277 689 CURVE SMOOTH"
);
}
);
width = 546;
}
);
leftKerningGroup = S;
rightKerningGroup = S;
unicode = 0053;
},
{
glyphname = Sacute;
lastChange = "2016-10-31 14:32:31 +0000";
layers = (
{
layerId = "2B556C7D-ACF4-4058-9F01-0A4D9389EAED";
leftMetricsKey = S;
name = Regular;
paths = (
{
closed = 1;
nodes = (
"168 619 OFFCURVE",
"0 534 OFFCURVE",
"0 377 CURVE SMOOTH",
"0 175 OFFCURVE",
"267 248 OFFCURVE",
"267 138 CURVE SMOOTH",
"267 85 OFFCURVE",
"201 44 OFFCURVE",
"157 44 CURVE SMOOTH",
"126 44 OFFCURVE",
"108 62 OFFCURVE",
"108 85 CURVE SMOOTH",
"108 136 OFFCURVE",
"164 179 OFFCURVE",
"244 208 CURVE SMOOTH",
"333 240 OFFCURVE",
"464 252 OFFCURVE",
"515 252 CURVE SMOOTH",
"534 252 OFFCURVE",
"546 267 OFFCURVE",
"546 281 CURVE SMOOTH",
"546 296 OFFCURVE",
"534 311 OFFCURVE",
"508 310 CURVE SMOOTH",
"393 307 OFFCURVE",
"280 284 OFFCURVE",
"205 254 CURVE SMOOTH",
"106 214 OFFCURVE",
"45 158 OFFCURVE",
"45 87 CURVE SMOOTH",
"45 28 OFFCURVE",
"85 -14 OFFCURVE",
"156 -14 CURVE SMOOTH",
"228 -14 OFFCURVE",
"330 40 OFFCURVE",
"330 136 CURVE SMOOTH",
"330 292 OFFCURVE",
"64 233 OFFCURVE",
"64 373 CURVE SMOOTH",
"64 473 OFFCURVE",
"167 561 OFFCURVE",
"280 561 CURVE SMOOTH",
"350 561 OFFCURVE",
"397 528 OFFCURVE",
"397 453 CURVE SMOOTH",
"397 413 OFFCURVE",
"371 378 OFFCURVE",
"367 371 CURVE SMOOTH",
"348 339 OFFCURVE",
"396 322 OFFCURVE",
"424 352 CURVE SMOOTH",
"440 369 OFFCURVE",
"459 413 OFFCURVE",
"459 461 CURVE SMOOTH",
"459 546 OFFCURVE",
"405 619 OFFCURVE",
"277 619 CURVE SMOOTH"
);
},
{
closed = 1;
nodes = (
"311 820 OFFCURVE",
"296 814 OFFCURVE",
"287 796 CURVE SMOOTH",
"269 757 OFFCURVE",
"259 733 OFFCURVE",
"244 698 CURVE SMOOTH",
"233 674 OFFCURVE",
"246 656 OFFCURVE",
"262 653 CURVE SMOOTH",
"274 651 OFFCURVE",
"289 657 OFFCURVE",
"297 673 CURVE SMOOTH",
"324 724 OFFCURVE",
"330 738 OFFCURVE",
"345 770 CURVE SMOOTH",
"356 794 OFFCURVE",
"343 815 OFFCURVE",
"324 818 CURVE SMOOTH"
);
}
);
width = 546;
}
);
leftKerningGroup = S;
leftMetricsKey = S;
rightKerningGroup = S;
unicode = 015A;
},
{
glyphname = T;
lastChange = "2016-10-31 14:32:31 +0000";
layers = (
{
layerId = "2B556C7D-ACF4-4058-9F01-0A4D9389EAED";
name = Regular;
paths = (
{
closed = 1;
nodes = (
"519 607 OFFCURVE",
"272 608 OFFCURVE",
"212 602 CURVE SMOOTH",
"90 592 OFFCURVE",
"-4 546 OFFCURVE",
"-5 452 CURVE SMOOTH",
"-7 304 OFFCURVE",
"180 335 OFFCURVE",
"243 379 CURVE SMOOTH",
"260 391 OFFCURVE",
"269 403 OFFCURVE",
"269 418 CURVE SMOOTH",
"269 442 OFFCURVE",
"245 451 OFFCURVE",
"221 433 CURVE SMOOTH",
"170 396 OFFCURVE",
"57 378 OFFCURVE",
"57 454 CURVE SMOOTH",
"57 516 OFFCURVE",
"132 544 OFFCURVE",
"255 550 CURVE SMOOTH",
"341 555 OFFCURVE",
"513 550 OFFCURVE",
"658 555 CURVE SMOOTH",
"682 556 OFFCURVE",
"694 571 OFFCURVE",
"694 585 CURVE SMOOTH",
"694 605 OFFCURVE",
"679 614 OFFCURVE",
"654 613 CURVE SMOOTH"
);
},
{
closed = 1;
nodes = (
"343 428 OFFCURVE",
"311 225 OFFCURVE",
"281 42 CURVE SMOOTH",
"276 14 OFFCURVE",
"293 1 OFFCURVE",
"311 1 CURVE SMOOTH",
"324 1 OFFCURVE",
"338 9 OFFCURVE",
"342 32 CURVE SMOOTH",
"377 234 OFFCURVE",
"422 506 OFFCURVE",
"433 577 CURVE SMOOTH",
"437 603 OFFCURVE",
"381 625 OFFCURVE",
"374 589 CURVE SMOOTH"
);
}
);
width = 699;
}
);
unicode = 0054;
},
{
glyphname = U;
lastChange = "2016-10-31 14:32:31 +0000";
layers = (
{
layerId = "2B556C7D-ACF4-4058-9F01-0A4D9389EAED";
name = Regular;
paths = (
{
closed = 1;
nodes = (
"113 688 OFFCURVE",
"100 680 OFFCURVE",
"94 660 CURVE SMOOTH",
"54 524 OFFCURVE",
"2 279 OFFCURVE",
"2 149 CURVE SMOOTH",
"2 68 OFFCURVE",
"13 1 OFFCURVE",
"94 1 CURVE SMOOTH",
"191 1 OFFCURVE",
"271 184 OFFCURVE",
"329 370 CURVE",
"315 373 LINE",
"286 179 OFFCURVE",
"279 6 OFFCURVE",
"385 5 CURVE SMOOTH",
"434 4 OFFCURVE",
"518 37 OFFCURVE",
"586 293 CURVE SMOOTH",
"600 347 OFFCURVE",
"543 350 OFFCURVE",
"533 314 CURVE SMOOTH",
"490 159 OFFCURVE",
"433 62 OFFCURVE",
"391 62 CURVE SMOOTH",
"330 62 OFFCURVE",
"355 371 OFFCURVE",
"407 600 CURVE SMOOTH",
"420 658 OFFCURVE",
"357 658 OFFCURVE",
"348 621 CURVE SMOOTH",
"286 382 OFFCURVE",
"165 58 OFFCURVE",
"88 58 CURVE SMOOTH",
"74 58 OFFCURVE",
"63 90 OFFCURVE",
"63 133 CURVE SMOOTH",
"63 277 OFFCURVE",
"106 464 OFFCURVE",
"154 647 CURVE SMOOTH",
"159 669 OFFCURVE",
"146 688 OFFCURVE",
"127 688 CURVE SMOOTH"
);
}
);
width = 588;
}
);
unicode = 0055;
},
{
glyphname = V;
lastChange = "2016-10-31 14:32:31 +0000";
layers = (
{
layerId = "2B556C7D-ACF4-4058-9F01-0A4D9389EAED";
name = Regular;
paths = (
{
closed = 1;
nodes = (
"233 688 OFFCURVE",
"189 618 OFFCURVE",
"189 555 CURVE SMOOTH",
"189 444 OFFCURVE",
"269 416 OFFCURVE",
"420 416 CURVE SMOOTH",
"443 416 OFFCURVE",
"471 417 OFFCURVE",
"495 420 CURVE SMOOTH",
"549 427 OFFCURVE",
"534 481 OFFCURVE",
"494 478 CURVE SMOOTH",
"477 477 OFFCURVE",
"447 473 OFFCURVE",
"414 473 CURVE SMOOTH",
"317 473 OFFCURVE",
"251 483 OFFCURVE",
"251 551 CURVE SMOOTH",
"251 594 OFFCURVE",
"271 631 OFFCURVE",
"296 631 CURVE SMOOTH",
"315 631 OFFCURVE",
"323 608 OFFCURVE",
"323 576 CURVE SMOOTH",
"323 502 OFFCURVE",
"278 348 OFFCURVE",
"223 229 CURVE SMOOTH",
"179 133 OFFCURVE",
"131 58 OFFCURVE",
"96 58 CURVE SMOOTH",
"75 58 OFFCURVE",
"61 90 OFFCURVE",
"61 165 CURVE SMOOTH",
"61 238 OFFCURVE",
"74 350 OFFCURVE",
"111 513 CURVE SMOOTH",
"123 567 OFFCURVE",
"65 588 OFFCURVE",
"52 535 CURVE SMOOTH",
"33 459 OFFCURVE",
"0 306 OFFCURVE",
"0 162 CURVE SMOOTH",
"0 77 OFFCURVE",
"24 0 OFFCURVE",
"92 0 CURVE SMOOTH",
"163 0 OFFCURVE",
"229 94 OFFCURVE",
"277 197 CURVE SMOOTH",
"346 342 OFFCURVE",
"384 496 OFFCURVE",
"385 570 CURVE SMOOTH",
"385 676 OFFCURVE",
"324 688 OFFCURVE",
"296 688 CURVE SMOOTH"
);
}
);
width = 532;
}
);
unicode = 0056;
},
{
glyphname = W;
lastChange = "2016-10-31 14:32:31 +0000";
layers = (
{
layerId = "2B556C7D-ACF4-4058-9F01-0A4D9389EAED";
name = Regular;
paths = (
{
closed = 1;
nodes = (
"411 684 OFFCURVE",
"373 623 OFFCURVE",
"374 547 CURVE SMOOTH",
"375 443 OFFCURVE",
"454 407 OFFCURVE",
"559 407 CURVE SMOOTH",
"614 406 OFFCURVE",
"704 410 OFFCURVE",
"741 417 CURVE SMOOTH",
"769 422 OFFCURVE",
"778 436 OFFCURVE",
"778 448 CURVE SMOOTH",
"779 474 OFFCURVE",
"757 479 OFFCURVE",
"743 477 CURVE SMOOTH",
"689 471 OFFCURVE",
"624 466 OFFCURVE",
"573 466 CURVE SMOOTH",
"500 466 OFFCURVE",
"437 473 OFFCURVE",
"437 555 CURVE SMOOTH",
"437 602 OFFCURVE",
"460 626 OFFCURVE",
"485 626 CURVE SMOOTH",
"522 626 OFFCURVE",
"531 560 OFFCURVE",
"531 504 CURVE SMOOTH",
"531 331 OFFCURVE",
"451 54 OFFCURVE",
"373 54 CURVE SMOOTH",
"334 54 OFFCURVE",
"284 132 OFFCURVE",
"341 432 CURVE SMOOTH",
"347 461 OFFCURVE",
"334 480 OFFCURVE",
"316 480 CURVE SMOOTH",
"298 480 OFFCURVE",
"284 469 OFFCURVE",
"278 442 CURVE SMOOTH",
"209 108 OFFCURVE",
"138 51 OFFCURVE",
"107 51 CURVE SMOOTH",
"80 51 OFFCURVE",
"64 82 OFFCURVE",
"64 144 CURVE SMOOTH",
"64 293 OFFCURVE",
"96 422 OFFCURVE",
"124 528 CURVE SMOOTH",
"136 573 OFFCURVE",
"118 584 OFFCURVE",
"101 584 CURVE SMOOTH",
"71 584 OFFCURVE",
"66 548 OFFCURVE",
"64 544 CURVE SMOOTH",
"27 416 OFFCURVE",
"1 273 OFFCURVE",
"1 163 CURVE SMOOTH",
"1 76 OFFCURVE",
"20 -7 OFFCURVE",
"106 -7 CURVE SMOOTH",
"183 -7 OFFCURVE",
"241 95 OFFCURVE",
"270 193 CURVE",
"259 196 LINE",
"253 76 OFFCURVE",
"302 -4 OFFCURVE",
"370 -4 CURVE SMOOTH",
"524 -4 OFFCURVE",
"594 353 OFFCURVE",
"594 491 CURVE SMOOTH",
"594 593 OFFCURVE",
"570 684 OFFCURVE",
"488 684 CURVE SMOOTH"
);
}
);
width = 778;
}
);
unicode = 0057;
},
{
glyphname = X;
lastChange = "2016-10-31 14:32:31 +0000";
layers = (
{
layerId = "2B556C7D-ACF4-4058-9F01-0A4D9389EAED";
name = Regular;
paths = (
{
closed = 1;
nodes = (
"395 689 OFFCURVE",
"381 683 OFFCURVE",
"373 670 CURVE SMOOTH",
"183 342 OFFCURVE",
"108 228 OFFCURVE",
"7 44 CURVE SMOOTH",
"-10 13 OFFCURVE",
"7 -8 OFFCURVE",
"28 -8 CURVE SMOOTH",
"41 -8 OFFCURVE",
"53 -2 OFFCURVE",
"62 14 CURVE SMOOTH",
"190 241 OFFCURVE",
"301 417 OFFCURVE",
"425 632 CURVE SMOOTH",
"443 663 OFFCURVE",
"428 689 OFFCURVE",
"405 689 CURVE SMOOTH"
);
},
{
closed = 1;
nodes = (
"56 676 OFFCURVE",
"41 652 OFFCURVE",
"52 625 CURVE SMOOTH",
"89 533 OFFCURVE",
"141 419 OFFCURVE",
"191 312 CURVE SMOOTH",
"249 188 OFFCURVE",
"303 74 OFFCURVE",
"334 19 CURVE SMOOTH",
"341 7 OFFCURVE",
"351 1 OFFCURVE",
"363 1 CURVE SMOOTH",
"384 1 OFFCURVE",
"404 21 OFFCURVE",
"387 55 CURVE SMOOTH",
"338 151 OFFCURVE",
"289 253 OFFCURVE",
"241 355 CURVE SMOOTH",
"195 454 OFFCURVE",
"151 554 OFFCURVE",
"112 649 CURVE SMOOTH",
"104 669 OFFCURVE",
"94 676 OFFCURVE",
"78 676 CURVE SMOOTH"
);
}
);
width = 433;
}
);
unicode = 0058;
},
{
glyphname = Y;
lastChange = "2016-10-31 14:32:31 +0000";
layers = (
{
layerId = "2B556C7D-ACF4-4058-9F01-0A4D9389EAED";
name = Regular;
paths = (
{
closed = 1;
nodes = (
"362 679 OFFCURVE",
"346 670 OFFCURVE",
"339 648 CURVE SMOOTH",
"251 359 OFFCURVE",
"141 98 OFFCURVE",
"85 98 CURVE SMOOTH",
"70 98 OFFCURVE",
"63 126 OFFCURVE",
"63 165 CURVE SMOOTH",
"63 261 OFFCURVE",
"87 423 OFFCURVE",
"135 613 CURVE SMOOTH",
"146 658 OFFCURVE",
"88 677 OFFCURVE",
"74 625 CURVE SMOOTH",
"42 505 OFFCURVE",
"0 314 OFFCURVE",
"0 167 CURVE SMOOTH",
"0 72 OFFCURVE",
"33 41 OFFCURVE",
"82 41 CURVE SMOOTH",
"152 41 OFFCURVE",
"230 161 OFFCURVE",
"298 368 CURVE",
"280 395 LINE",
"255 266 OFFCURVE",
"207 17 OFFCURVE",
"195 -59 CURVE SMOOTH",
"187 -104 OFFCURVE",
"178 -150 OFFCURVE",
"147 -150 CURVE SMOOTH",
"133 -150 OFFCURVE",
"125 -132 OFFCURVE",
"125 -117 CURVE SMOOTH",
"125 -57 OFFCURVE",
"174 -3 OFFCURVE",
"251 35 CURVE SMOOTH",
"302 61 OFFCURVE",
"365 71 OFFCURVE",
"434 71 CURVE SMOOTH",
"463 71 OFFCURVE",
"471 87 OFFCURVE",
"471 100 CURVE SMOOTH",
"471 115 OFFCURVE",
"460 128 OFFCURVE",
"435 129 CURVE SMOOTH",
"353 132 OFFCURVE",
"285 116 OFFCURVE",
"230 89 CURVE SMOOTH",
"117 36 OFFCURVE",
"62 -48 OFFCURVE",
"62 -113 CURVE SMOOTH",
"62 -168 OFFCURVE",
"92 -208 OFFCURVE",
"143 -208 CURVE SMOOTH",
"191 -208 OFFCURVE",
"238 -175 OFFCURVE",
"252 -96 CURVE SMOOTH",
"271 12 OFFCURVE",
"316 317 OFFCURVE",
"402 630 CURVE SMOOTH",
"410 660 OFFCURVE",
"394 679 OFFCURVE",
"375 679 CURVE SMOOTH"
);
}
);
width = 471;
}
);
unicode = 0059;
},
{
glyphname = Z;
lastChange = "2016-10-31 14:32:31 +0000";
layers = (
{
layerId = "2B556C7D-ACF4-4058-9F01-0A4D9389EAED";
name = Regular;
paths = (
{
closed = 1;
nodes = (
"63 683 OFFCURVE",
"57 654 OFFCURVE",
"57 635 CURVE SMOOTH",
"57 549 OFFCURVE",
"146 537 OFFCURVE",
"197 537 CURVE SMOOTH",
"242 537 OFFCURVE",
"323 551 OFFCURVE",
"361 579 CURVE",
"356 591 LINE",
"325 520 OFFCURVE",
"284 419 OFFCURVE",
"240 325 CURVE SMOOTH",
"154 142 OFFCURVE",
"118 58 OFFCURVE",
"87 58 CURVE SMOOTH",
"69 58 OFFCURVE",
"60 75 OFFCURVE",
"60 98 CURVE SMOOTH",
"60 124 OFFCURVE",
"72 149 OFFCURVE",
"94 149 CURVE SMOOTH",
"138 149 OFFCURVE",
"205 2 OFFCURVE",
"320 2 CURVE SMOOTH",
"401 2 OFFCURVE",
"485 134 OFFCURVE",
"514 241 CURVE SMOOTH",
"523 275 OFFCURVE",
"507 290 OFFCURVE",
"490 290 CURVE SMOOTH",
"477 290 OFFCURVE",
"466 281 OFFCURVE",
"462 269 CURVE SMOOTH",
"412 119 OFFCURVE",
"345 59 OFFCURVE",
"318 59 CURVE SMOOTH",
"258 59 OFFCURVE",
"173 208 OFFCURVE",
"96 208 CURVE SMOOTH",
"40 208 OFFCURVE",
"0 160 OFFCURVE",
"0 94 CURVE SMOOTH",
"0 33 OFFCURVE",
"42 1 OFFCURVE",
"84 1 CURVE SMOOTH",
"126 1 OFFCURVE",
"162 24 OFFCURVE",
"210 119 CURVE SMOOTH",
"265 227 OFFCURVE",
"380 480 OFFCURVE",
"430 607 CURVE SMOOTH",
"449 654 OFFCURVE",
"414 677 OFFCURVE",
"375 653 CURVE SMOOTH",
"332 626 OFFCURVE",
"260 594 OFFCURVE",
"199 594 CURVE SMOOTH",
"154 594 OFFCURVE",
"119 601 OFFCURVE",
"119 646 CURVE SMOOTH",
"119 675 OFFCURVE",
"106 683 OFFCURVE",
"91 683 CURVE SMOOTH"
);
}
);
width = 517;
}
);
leftKerningGroup = Z;
rightKerningGroup = Z;
unicode = 005A;
},
{
glyphname = Zacute;
lastChange = "2016-10-31 14:32:31 +0000";
layers = (
{
layerId = "2B556C7D-ACF4-4058-9F01-0A4D9389EAED";
leftMetricsKey = Z;
name = Regular;
paths = (
{
closed = 1;
nodes = (
"49 651 OFFCURVE",
"43 622 OFFCURVE",
"43 603 CURVE SMOOTH",
"43 517 OFFCURVE",
"132 505 OFFCURVE",
"183 505 CURVE SMOOTH",
"228 505 OFFCURVE",
"309 519 OFFCURVE",
"347 547 CURVE",
"342 559 LINE",
"311 488 OFFCURVE",
"284 419 OFFCURVE",
"240 325 CURVE SMOOTH",
"154 142 OFFCURVE",
"118 58 OFFCURVE",
"87 58 CURVE SMOOTH",
"69 58 OFFCURVE",
"60 75 OFFCURVE",
"60 98 CURVE SMOOTH",
"60 124 OFFCURVE",
"72 149 OFFCURVE",
"94 149 CURVE SMOOTH",
"138 149 OFFCURVE",
"205 2 OFFCURVE",
"320 2 CURVE SMOOTH",
"401 2 OFFCURVE",
"467 99 OFFCURVE",
"496 193 CURVE SMOOTH",
"507 227 OFFCURVE",
"489 242 OFFCURVE",
"472 242 CURVE SMOOTH",
"459 242 OFFCURVE",
"449 233 OFFCURVE",
"444 221 CURVE SMOOTH",
"394 88 OFFCURVE",
"345 59 OFFCURVE",
"318 59 CURVE SMOOTH",
"258 59 OFFCURVE",
"173 208 OFFCURVE",
"96 208 CURVE SMOOTH",
"40 208 OFFCURVE",
"0 160 OFFCURVE",
"0 94 CURVE SMOOTH",
"0 33 OFFCURVE",
"42 1 OFFCURVE",
"84 1 CURVE SMOOTH",
"126 1 OFFCURVE",
"162 24 OFFCURVE",
"210 119 CURVE SMOOTH",
"265 227 OFFCURVE",
"366 448 OFFCURVE",
"416 575 CURVE SMOOTH",
"435 622 OFFCURVE",
"400 645 OFFCURVE",
"361 621 CURVE SMOOTH",
"318 594 OFFCURVE",
"246 562 OFFCURVE",
"185 562 CURVE SMOOTH",
"140 562 OFFCURVE",
"105 569 OFFCURVE",
"105 614 CURVE SMOOTH",
"105 643 OFFCURVE",
"92 651 OFFCURVE",
"77 651 CURVE SMOOTH"
);
},
{
closed = 1;
nodes = (
"281 797 OFFCURVE",
"266 791 OFFCURVE",
"257 773 CURVE SMOOTH",
"239 734 OFFCURVE",
"229 710 OFFCURVE",
"214 675 CURVE SMOOTH",
"203 651 OFFCURVE",
"216 633 OFFCURVE",
"232 630 CURVE SMOOTH",
"244 628 OFFCURVE",
"259 634 OFFCURVE",
"267 650 CURVE SMOOTH",
"294 701 OFFCURVE",
"300 715 OFFCURVE",
"315 747 CURVE SMOOTH",
"326 771 OFFCURVE",
"313 792 OFFCURVE",
"294 795 CURVE SMOOTH"
);
}
);
width = 499;
}
);
leftKerningGroup = Z;
leftMetricsKey = Z;
rightKerningGroup = Z;
unicode = 0179;
},
{
glyphname = Zdotaccent;
lastChange = "2016-10-31 14:32:31 +0000";
layers = (
{
layerId = "2B556C7D-ACF4-4058-9F01-0A4D9389EAED";
leftMetricsKey = Z;
name = Regular;
paths = (
{
closed = 1;
nodes = (
"63 683 OFFCURVE",
"57 654 OFFCURVE",
"57 635 CURVE SMOOTH",
"57 549 OFFCURVE",
"146 537 OFFCURVE",
"197 537 CURVE SMOOTH",
"242 537 OFFCURVE",
"323 551 OFFCURVE",
"361 579 CURVE",
"356 591 LINE",
"325 520 OFFCURVE",
"284 419 OFFCURVE",
"240 325 CURVE SMOOTH",
"154 142 OFFCURVE",
"118 58 OFFCURVE",
"87 58 CURVE SMOOTH",
"69 58 OFFCURVE",
"60 75 OFFCURVE",
"60 98 CURVE SMOOTH",
"60 124 OFFCURVE",
"72 149 OFFCURVE",
"94 149 CURVE SMOOTH",
"138 149 OFFCURVE",
"205 2 OFFCURVE",
"320 2 CURVE SMOOTH",
"401 2 OFFCURVE",
"467 99 OFFCURVE",
"496 193 CURVE SMOOTH",
"507 227 OFFCURVE",
"489 242 OFFCURVE",
"472 242 CURVE SMOOTH",
"459 242 OFFCURVE",
"449 233 OFFCURVE",
"444 221 CURVE SMOOTH",
"394 88 OFFCURVE",
"345 59 OFFCURVE",
"318 59 CURVE SMOOTH",
"258 59 OFFCURVE",
"173 208 OFFCURVE",
"96 208 CURVE SMOOTH",
"40 208 OFFCURVE",
"0 160 OFFCURVE",
"0 94 CURVE SMOOTH",
"0 33 OFFCURVE",
"42 1 OFFCURVE",
"84 1 CURVE SMOOTH",
"126 1 OFFCURVE",
"162 24 OFFCURVE",
"210 119 CURVE SMOOTH",
"265 227 OFFCURVE",
"380 480 OFFCURVE",
"430 607 CURVE SMOOTH",
"449 654 OFFCURVE",
"414 677 OFFCURVE",
"375 653 CURVE SMOOTH",
"332 626 OFFCURVE",
"260 594 OFFCURVE",
"199 594 CURVE SMOOTH",
"154 594 OFFCURVE",
"119 601 OFFCURVE",
"119 646 CURVE SMOOTH",
"119 675 OFFCURVE",
"106 683 OFFCURVE",
"91 683 CURVE SMOOTH"
);
},
{
closed = 1;
nodes = (
"279 313 OFFCURVE",
"212 312 OFFCURVE",
"153 310 CURVE SMOOTH",
"130 309 OFFCURVE",
"127 292 OFFCURVE",
"127 284 CURVE SMOOTH",
"127 265 OFFCURVE",
"139 256 OFFCURVE",
"165 256 CURVE SMOOTH",
"274 256 OFFCURVE",
"321 256 OFFCURVE",
"360 257 CURVE SMOOTH",
"378 258 OFFCURVE",
"389 271 OFFCURVE",
"389 285 CURVE SMOOTH",
"389 303 OFFCURVE",
"376 313 OFFCURVE",
"359 313 CURVE SMOOTH"
);
}
);
width = 499;
}
);
leftKerningGroup = Z;
leftMetricsKey = Z;
rightKerningGroup = Z;
unicode = 017B;
},
{
glyphname = a;
lastChange = "2016-11-01 11:42:53 +0000";
layers = (
{
annotations = (
{
position = "{80.880, 291.008}";
type = Plus;
},
{
position = "{112, 237}";
type = Plus;
},
{
position = "{253, -3}";
type = Plus;
}
);
layerId = "2B556C7D-ACF4-4058-9F01-0A4D9389EAED";
name = Regular;
paths = (
{
closed = 1;
nodes = (
"311 489 OFFCURVE",
"297 479 OFFCURVE",
"290 458 CURVE SMOOTH",
"271 408 OFFCURVE",
"252 326 OFFCURVE",
"238 258 CURVE SMOOTH",
"217 157 OFFCURVE",
"156 53 OFFCURVE",
"109 53 CURVE SMOOTH",
"82 53 OFFCURVE",
"61 84 OFFCURVE",
"61 171 CURVE SMOOTH",
"61 268 OFFCURVE",
"110 422 OFFCURVE",
"181 422 CURVE SMOOTH",
"219 422 OFFCURVE",
"234 365 OFFCURVE",
"214 286 CURVE SMOOTH",
"207 257 OFFCURVE",
"255 262 OFFCURVE",
"266 288 CURVE SMOOTH",
"302 366 OFFCURVE",
"270 477 OFFCURVE",
"181 477 CURVE SMOOTH",
"63 477 OFFCURVE",
"0 310 OFFCURVE",
"0 156 CURVE SMOOTH",
"0 64 OFFCURVE",
"36 -1 OFFCURVE",
"109 -1 CURVE SMOOTH",
"184 -1 OFFCURVE",
"228 80 OFFCURVE",
"255 153 CURVE",
"230 164 LINE",
"230 18 OFFCURVE",
"281 -5 OFFCURVE",
"328 -5 CURVE SMOOTH",
"408 -5 OFFCURVE",
"488 93 OFFCURVE",
"529 215 CURVE SMOOTH",
"542 253 OFFCURVE",
"524 269 OFFCURVE",
"509 269 CURVE SMOOTH",
"498 269 OFFCURVE",
"489 263 OFFCURVE",
"482 245 CURVE SMOOTH",
"422 89 OFFCURVE",
"360 48 OFFCURVE",
"328 48 CURVE SMOOTH",
"310 48 OFFCURVE",
"291 65 OFFCURVE",
"291 141 CURVE SMOOTH",
"291 196 OFFCURVE",
"307 305 OFFCURVE",
"350 439 CURVE SMOOTH",
"360 470 OFFCURVE",
"343 489 OFFCURVE",
"325 489 CURVE SMOOTH"
);
}
);
width = 533;
}
);
leftKerningGroup = a;
rightKerningGroup = a;
unicode = 0061;
},
{
glyphname = aogonek;
lastChange = "2016-10-31 14:32:31 +0000";
layers = (
{
layerId = "2B556C7D-ACF4-4058-9F01-0A4D9389EAED";
leftMetricsKey = a;
rightMetricsKey = a;
name = Regular;
paths = (
{
closed = 1;
nodes = (
"311 489 OFFCURVE",
"297 479 OFFCURVE",
"290 458 CURVE SMOOTH",
"271 408 OFFCURVE",
"252 326 OFFCURVE",
"238 258 CURVE SMOOTH",
"217 157 OFFCURVE",
"156 53 OFFCURVE",
"109 53 CURVE SMOOTH",
"82 53 OFFCURVE",
"61 84 OFFCURVE",
"61 171 CURVE SMOOTH",
"61 268 OFFCURVE",
"110 422 OFFCURVE",
"181 422 CURVE SMOOTH",
"219 422 OFFCURVE",
"234 365 OFFCURVE",
"214 286 CURVE SMOOTH",
"207 257 OFFCURVE",
"255 262 OFFCURVE",
"266 288 CURVE SMOOTH",
"302 366 OFFCURVE",
"270 477 OFFCURVE",
"181 477 CURVE SMOOTH",
"63 477 OFFCURVE",
"0 310 OFFCURVE",
"0 156 CURVE SMOOTH",
"0 64 OFFCURVE",
"36 -1 OFFCURVE",
"109 -1 CURVE SMOOTH",
"184 -1 OFFCURVE",
"228 80 OFFCURVE",
"255 153 CURVE",
"230 164 LINE",
"230 18 OFFCURVE",
"281 -5 OFFCURVE",
"328 -5 CURVE SMOOTH",
"417 -5 OFFCURVE",
"497 115 OFFCURVE",
"498 166 CURVE SMOOTH",
"499 187 OFFCURVE",
"491 203 OFFCURVE",
"463 203 CURVE SMOOTH",
"396 203 OFFCURVE",
"310 53 OFFCURVE",
"310 -57 CURVE SMOOTH",
"310 -114 OFFCURVE",
"337 -150 OFFCURVE",
"385 -150 CURVE SMOOTH",
"436 -150 OFFCURVE",
"467 -113 OFFCURVE",
"483 -88 CURVE SMOOTH",
"497 -66 OFFCURVE",
"488 -47 OFFCURVE",
"478 -42 CURVE SMOOTH",
"465 -36 OFFCURVE",
"452 -39 OFFCURVE",
"437 -60 CURVE SMOOTH",
"422 -80 OFFCURVE",
"407 -97 OFFCURVE",
"388 -97 CURVE SMOOTH",
"373 -97 OFFCURVE",
"367 -80 OFFCURVE",
"367 -56 CURVE SMOOTH",
"367 4 OFFCURVE",
"406 117 OFFCURVE",
"448 160 CURVE",
"441 160 LINE",
"388 57 OFFCURVE",
"354 48 OFFCURVE",
"328 48 CURVE SMOOTH",
"310 48 OFFCURVE",
"291 65 OFFCURVE",
"291 141 CURVE SMOOTH",
"291 196 OFFCURVE",
"307 305 OFFCURVE",
"350 439 CURVE SMOOTH",
"360 470 OFFCURVE",
"343 489 OFFCURVE",
"325 489 CURVE SMOOTH"
);
}
);
width = 498;
}
);
leftKerningGroup = a;
leftMetricsKey = a;
rightKerningGroup = aogonek;
rightMetricsKey = a;
unicode = 0105;
},
{
glyphname = b;
lastChange = "2016-11-01 11:30:55 +0000";
layers = (
{
layerId = "2B556C7D-ACF4-4058-9F01-0A4D9389EAED";
name = Regular;
paths = (
{
closed = 1;
nodes = (
"133 729 OFFCURVE",
"117 721 OFFCURVE",
"107 692 CURVE SMOOTH",
"32 466 OFFCURVE",
"0 287 OFFCURVE",
"0 177 CURVE SMOOTH",
"0 73 OFFCURVE",
"33 -1 OFFCURVE",
"120 -1 CURVE SMOOTH",
"242 -1 OFFCURVE",
"314 171 OFFCURVE",
"314 307 CURVE SMOOTH",
"314 444 OFFCURVE",
"252 489 OFFCURVE",
"192 489 CURVE SMOOTH",
"101 489 OFFCURVE",
"49 377 OFFCURVE",
"49 277 CURVE SMOOTH",
"49 171 OFFCURVE",
"99 120 OFFCURVE",
"203 120 CURVE SMOOTH",
"304 120 OFFCURVE",
"406 191 OFFCURVE",
"468 246 CURVE SMOOTH",
"509 283 OFFCURVE",
"470 327 OFFCURVE",
"433 295 CURVE SMOOTH",
"358 231 OFFCURVE",
"280 173 OFFCURVE",
"203 173 CURVE SMOOTH",
"150 173 OFFCURVE",
"104 197 OFFCURVE",
"104 281 CURVE SMOOTH",
"104 350 OFFCURVE",
"140 436 OFFCURVE",
"192 436 CURVE SMOOTH",
"229 436 OFFCURVE",
"253 385 OFFCURVE",
"253 309 CURVE SMOOTH",
"253 172 OFFCURVE",
"181 53 OFFCURVE",
"122 53 CURVE SMOOTH",
"78 53 OFFCURVE",
"62 102 OFFCURVE",
"62 175 CURVE SMOOTH",
"62 333 OFFCURVE",
"120 531 OFFCURVE",
"169 676 CURVE SMOOTH",
"180 708 OFFCURVE",
"166 729 OFFCURVE",
"146 729 CURVE SMOOTH"
);
}
);
width = 486;
}
);
leftKerningGroup = b;
rightKerningGroup = b;
unicode = 0062;
},
{
glyphname = c;
lastChange = "2016-10-31 14:32:31 +0000";
layers = (
{
layerId = "2B556C7D-ACF4-4058-9F01-0A4D9389EAED";
name = Regular;
paths = (
{
closed = 1;
nodes = (
"66 490 OFFCURVE",
"0 319 OFFCURVE",
"0 178 CURVE SMOOTH",
"0 70 OFFCURVE",
"34 -3 OFFCURVE",
"126 -3 CURVE SMOOTH",
"226 -3 OFFCURVE",
"319 87 OFFCURVE",
"386 226 CURVE SMOOTH",
"403 261 OFFCURVE",
"386 281 OFFCURVE",
"369 281 CURVE SMOOTH",
"356 281 OFFCURVE",
"347 273 OFFCURVE",
"335 250 CURVE SMOOTH",
"250 84 OFFCURVE",
"168 52 OFFCURVE",
"130 52 CURVE SMOOTH",
"93 52 OFFCURVE",
"61 89 OFFCURVE",
"61 172 CURVE SMOOTH",
"61 262 OFFCURVE",
"102 434 OFFCURVE",
"178 434 CURVE SMOOTH",
"227 434 OFFCURVE",
"226 366 OFFCURVE",
"214 312 CURVE SMOOTH",
"208 287 OFFCURVE",
"223 273 OFFCURVE",
"239 273 CURVE SMOOTH",
"272 273 OFFCURVE",
"283 331 OFFCURVE",
"283 371 CURVE SMOOTH",
"283 435 OFFCURVE",
"253 490 OFFCURVE",
"180 490 CURVE SMOOTH"
);
}
);
width = 393;
}
);
leftKerningGroup = a;
rightKerningGroup = c;
unicode = 0063;
},
{
glyphname = cacute;
lastChange = "2016-10-31 14:32:31 +0000";
layers = (
{
associatedMasterId = "2B556C7D-ACF4-4058-9F01-0A4D9389EAED";
layerId = "6679F7B1-6466-4B40-9A8B-1208F5E88D4C";
name = "Regular Aug 18 16, 18:08";
paths = (
{
closed = 1;
nodes = (
"-4 508 OFFCURVE",
"-86 103 OFFCURVE",
"21 15 CURVE SMOOTH",
"57 -16 OFFCURVE",
"110 -18 OFFCURVE",
"158 1 CURVE SMOOTH",
"244 36 OFFCURVE",
"331 144 OFFCURVE",
"372 276 CURVE SMOOTH",
"383 311 OFFCURVE",
"345 334 OFFCURVE",
"327 295 CURVE SMOOTH",
"210 40 OFFCURVE",
"107 41 OFFCURVE",
"83 47 CURVE SMOOTH",
"-22 73 OFFCURVE",
"63 424 OFFCURVE",
"149 424 CURVE SMOOTH",
"177 424 OFFCURVE",
"204 391 OFFCURVE",
"181 303 CURVE SMOOTH",
"171 265 OFFCURVE",
"227 259 OFFCURVE",
"239 293 CURVE SMOOTH",
"265 367 OFFCURVE",
"246 467 OFFCURVE",
"168 480 CURVE SMOOTH"
);
},
{
closed = 1;
nodes = (
"166 672 OFFCURVE",
"153 620 OFFCURVE",
"144 583 CURVE SMOOTH",
"133 539 OFFCURVE",
"186 526 OFFCURVE",
"199 567 CURVE SMOOTH",
"216 622 OFFCURVE",
"228 658 OFFCURVE",
"237 692 CURVE SMOOTH",
"249 736 OFFCURVE",
"191 755 OFFCURVE",
"177 708 CURVE SMOOTH"
);
}
);
width = 322;
},
{
layerId = "2B556C7D-ACF4-4058-9F01-0A4D9389EAED";
leftMetricsKey = c;
rightMetricsKey = c;
name = Regular;
paths = (
{
closed = 1;
nodes = (
"66 490 OFFCURVE",
"0 319 OFFCURVE",
"0 178 CURVE SMOOTH",
"0 70 OFFCURVE",
"34 -3 OFFCURVE",
"126 -3 CURVE SMOOTH",
"226 -3 OFFCURVE",
"319 87 OFFCURVE",
"386 226 CURVE SMOOTH",
"403 261 OFFCURVE",
"386 281 OFFCURVE",
"369 281 CURVE SMOOTH",
"356 281 OFFCURVE",
"347 273 OFFCURVE",
"335 250 CURVE SMOOTH",
"250 84 OFFCURVE",
"168 52 OFFCURVE",
"130 52 CURVE SMOOTH",
"93 52 OFFCURVE",
"61 89 OFFCURVE",
"61 172 CURVE SMOOTH",
"61 262 OFFCURVE",
"102 434 OFFCURVE",
"178 434 CURVE SMOOTH",
"227 434 OFFCURVE",
"226 366 OFFCURVE",
"214 312 CURVE SMOOTH",
"208 287 OFFCURVE",
"223 273 OFFCURVE",
"239 273 CURVE SMOOTH",
"272 273 OFFCURVE",
"283 331 OFFCURVE",
"283 371 CURVE SMOOTH",
"283 435 OFFCURVE",
"253 490 OFFCURVE",
"180 490 CURVE SMOOTH"
);
},
{
closed = 1;
nodes = (
"231 708 OFFCURVE",
"216 702 OFFCURVE",
"207 684 CURVE SMOOTH",
"189 645 OFFCURVE",
"179 621 OFFCURVE",
"164 586 CURVE SMOOTH",
"153 562 OFFCURVE",
"164 545 OFFCURVE",
"180 542 CURVE SMOOTH",
"192 540 OFFCURVE",
"208 546 OFFCURVE",
"216 562 CURVE SMOOTH",
"243 613 OFFCURVE",
"248 627 OFFCURVE",
"263 659 CURVE SMOOTH",
"274 683 OFFCURVE",
"263 703 OFFCURVE",
"244 706 CURVE SMOOTH"
);
}
);
width = 393;
}
);
leftKerningGroup = a;
leftMetricsKey = c;
rightKerningGroup = c;
rightMetricsKey = c;
unicode = 0107;
},
{
glyphname = d;
lastChange = "2016-10-31 14:32:31 +0000";
layers = (
{
annotations = (
{
position = "{1919, 13422}";
type = Plus;
}
);
layerId = "2B556C7D-ACF4-4058-9F01-0A4D9389EAED";
name = Regular;
paths = (
{
closed = 1;
nodes = (
"366 727 OFFCURVE",
"351 716 OFFCURVE",
"345 696 CURVE SMOOTH",
"299 548 OFFCURVE",
"263 389 OFFCURVE",
"238 258 CURVE SMOOTH",
"219 158 OFFCURVE",
"156 53 OFFCURVE",
"109 53 CURVE SMOOTH",
"82 53 OFFCURVE",
"61 84 OFFCURVE",
"61 171 CURVE SMOOTH",
"61 268 OFFCURVE",
"110 422 OFFCURVE",
"181 422 CURVE SMOOTH",
"219 422 OFFCURVE",
"234 365 OFFCURVE",
"214 286 CURVE SMOOTH",
"207 257 OFFCURVE",
"255 262 OFFCURVE",
"266 288 CURVE SMOOTH",
"302 366 OFFCURVE",
"270 477 OFFCURVE",
"181 477 CURVE SMOOTH",
"63 477 OFFCURVE",
"0 310 OFFCURVE",
"0 156 CURVE SMOOTH",
"0 64 OFFCURVE",
"36 -1 OFFCURVE",
"109 -1 CURVE SMOOTH",
"184 -1 OFFCURVE",
"228 80 OFFCURVE",
"255 153 CURVE",
"230 164 LINE",
"230 25 OFFCURVE",
"281 -5 OFFCURVE",
"328 -5 CURVE SMOOTH",
"408 -5 OFFCURVE",
"488 93 OFFCURVE",
"529 215 CURVE SMOOTH",
"542 253 OFFCURVE",
"524 269 OFFCURVE",
"509 269 CURVE SMOOTH",
"498 269 OFFCURVE",
"489 263 OFFCURVE",
"482 245 CURVE SMOOTH",
"422 89 OFFCURVE",
"360 48 OFFCURVE",
"328 48 CURVE SMOOTH",
"310 48 OFFCURVE",
"291 72 OFFCURVE",
"291 141 CURVE SMOOTH",
"291 225 OFFCURVE",
"335 448 OFFCURVE",
"405 677 CURVE SMOOTH",
"414 708 OFFCURVE",
"398 727 OFFCURVE",
"380 727 CURVE SMOOTH"
);
}
);
width = 533;
}
);
leftKerningGroup = a;
rightKerningGroup = d;
unicode = 0064;
},
{
glyphname = e;
lastChange = "2016-11-01 11:31:48 +0000";
layers = (
{
layerId = "2B556C7D-ACF4-4058-9F01-0A4D9389EAED";
name = Regular;
paths = (
{
closed = 1;
nodes = (
"70 489 OFFCURVE",
"0 333 OFFCURVE",
"0 196 CURVE SMOOTH",
"0 107 OFFCURVE",
"16 -5 OFFCURVE",
"138 -5 CURVE SMOOTH",
"244 -5 OFFCURVE",
"348 91 OFFCURVE",
"396 209 CURVE SMOOTH",
"408 241 OFFCURVE",
"393 259 OFFCURVE",
"377 259 CURVE SMOOTH",
"366 259 OFFCURVE",
"354 252 OFFCURVE",
"346 233 CURVE SMOOTH",
"284 113 OFFCURVE",
"210 50 OFFCURVE",
"137 48 CURVE SMOOTH",
"80 46 OFFCURVE",
"59 116 OFFCURVE",
"59 193 CURVE SMOOTH",
"59 307 OFFCURVE",
"117 434 OFFCURVE",
"177 434 CURVE SMOOTH",
"194 434 OFFCURVE",
"210 420 OFFCURVE",
"210 377 CURVE SMOOTH",
"210 324 OFFCURVE",
"159 216 OFFCURVE",
"56 216 CURVE",
"55 165 LINE",
"197 165 OFFCURVE",
"270 291 OFFCURVE",
"270 387 CURVE SMOOTH",
"270 446 OFFCURVE",
"236 489 OFFCURVE",
"181 489 CURVE SMOOTH"
);
}
);
width = 400;
}
);
leftKerningGroup = e;
rightKerningGroup = e;
unicode = 0065;
},
{
glyphname = eogonek;
lastChange = "2016-10-31 14:32:31 +0000";
layers = (
{
associatedMasterId = "2B556C7D-ACF4-4058-9F01-0A4D9389EAED";
layerId = "92E4AF46-B625-478F-BB27-04435E3E4FCA";
rightMetricsKey = e;
name = "Regular Oct 13 16, 22:12";
paths = (
{
closed = 1;
nodes = (
"54 165 LINE",
"201 165 OFFCURVE",
"270 286 OFFCURVE",
"270 387 CURVE SMOOTH",
"270 446 OFFCURVE",
"236 489 OFFCURVE",
"181 489 CURVE SMOOTH",
"70 489 OFFCURVE",
"0 333 OFFCURVE",
"0 196 CURVE SMOOTH",
"0 107 OFFCURVE",
"16 -5 OFFCURVE",
"138 -5 CURVE SMOOTH",
"264 -5 OFFCURVE",
"346 119 OFFCURVE",
"347 157 CURVE SMOOTH",
"347 171 OFFCURVE",
"340 185 OFFCURVE",
"319 185 CURVE SMOOTH",
"268 185 OFFCURVE",
"117 59 OFFCURVE",
"117 -63 CURVE SMOOTH",
"117 -118 OFFCURVE",
"152 -157 OFFCURVE",
"198 -157 CURVE SMOOTH",
"269 -157 OFFCURVE",
"304 -88 OFFCURVE",
"304 -46 CURVE SMOOTH",
"304 -21 OFFCURVE",
"290 -11 OFFCURVE",
"277 -11 CURVE SMOOTH",
"266 -11 OFFCURVE",
"255 -18 OFFCURVE",
"253 -32 CURVE SMOOTH",
"245 -80 OFFCURVE",
"222 -105 OFFCURVE",
"200 -105 CURVE SMOOTH",
"184 -105 OFFCURVE",
"174 -86 OFFCURVE",
"174 -59 CURVE SMOOTH",
"174 22 OFFCURVE",
"266 83 OFFCURVE",
"311 146 CURVE SMOOTH",
"254 75 OFFCURVE",
"184 48 OFFCURVE",
"137 48 CURVE SMOOTH",
"80 48 OFFCURVE",
"59 116 OFFCURVE",
"59 193 CURVE SMOOTH",
"59 307 OFFCURVE",
"117 434 OFFCURVE",
"177 434 CURVE SMOOTH",
"194 434 OFFCURVE",
"210 420 OFFCURVE",
"210 377 CURVE SMOOTH",
"210 323 OFFCURVE",
"163 216 OFFCURVE",
"54 216 CURVE"
);
}
);
width = 400;
},
{
layerId = "2B556C7D-ACF4-4058-9F01-0A4D9389EAED";
leftMetricsKey = e;
rightMetricsKey = e;
name = Regular;
paths = (
{
closed = 1;
nodes = (
"70 489 OFFCURVE",
"0 333 OFFCURVE",
"0 196 CURVE SMOOTH",
"0 107 OFFCURVE",
"16 -5 OFFCURVE",
"138 -5 CURVE SMOOTH",
"261 -5 OFFCURVE",
"310 93 OFFCURVE",
"311 127 CURVE SMOOTH",
"311 144 OFFCURVE",
"304 167 OFFCURVE",
"278 167 CURVE SMOOTH",
"248 167 OFFCURVE",
"182 117 OFFCURVE",
"131 33 CURVE SMOOTH",
"108 -5 OFFCURVE",
"96 -51 OFFCURVE",
"96 -78 CURVE SMOOTH",
"96 -125 OFFCURVE",
"123 -159 OFFCURVE",
"171 -159 CURVE SMOOTH",
"213 -159 OFFCURVE",
"263 -132 OFFCURVE",
"287 -96 CURVE SMOOTH",
"304 -70 OFFCURVE",
"288 -51 OFFCURVE",
"269 -51 CURVE SMOOTH",
"261 -51 OFFCURVE",
"252 -55 OFFCURVE",
"245 -64 CURVE SMOOTH",
"217 -98 OFFCURVE",
"191 -105 OFFCURVE",
"174 -105 CURVE SMOOTH",
"158 -105 OFFCURVE",
"152 -94 OFFCURVE",
"152 -79 CURVE SMOOTH",
"152 -46 OFFCURVE",
"181 24 OFFCURVE",
"239 89 CURVE",
"239 89 LINE",
"202 64 OFFCURVE",
"166 48 OFFCURVE",
"137 48 CURVE SMOOTH",
"80 48 OFFCURVE",
"59 116 OFFCURVE",
"59 193 CURVE SMOOTH",
"59 307 OFFCURVE",
"117 434 OFFCURVE",
"177 434 CURVE SMOOTH",
"194 434 OFFCURVE",
"210 420 OFFCURVE",
"210 377 CURVE SMOOTH",
"210 323 OFFCURVE",
"163 216 OFFCURVE",
"54 216 CURVE",
"54 165 LINE",
"201 165 OFFCURVE",
"270 286 OFFCURVE",
"270 387 CURVE SMOOTH",
"270 446 OFFCURVE",
"236 489 OFFCURVE",
"181 489 CURVE SMOOTH"
);
}
);
width = 311;
}
);
leftKerningGroup = e;
leftMetricsKey = e;
rightKerningGroup = eogonek;
rightMetricsKey = e;
unicode = 0119;
},
{
glyphname = f;
lastChange = "2016-11-01 11:41:19 +0000";
layers = (
{
annotations = (
{
position = "{88, 433}";
type = Plus;
}
);
background = {
paths = (
{
closed = 0;
nodes = (
"110 500 LINE",
"101 394 OFFCURVE",
"92 -63 OFFCURVE",
"92 -63 CURVE",
"92 -63 OFFCURVE",
"84 -178 OFFCURVE",
"147 -178 CURVE",
"276 -178 OFFCURVE",
"154 183 OFFCURVE",
"63 183 CURVE SMOOTH",
"-28 183 OFFCURVE",
"132 124 OFFCURVE",
"235 186 CURVE"
);
}
);
};
layerId = "2B556C7D-ACF4-4058-9F01-0A4D9389EAED";
name = Regular;
paths = (
{
closed = 1;
nodes = (
"178 729 OFFCURVE",
"164 717 OFFCURVE",
"157 698 CURVE SMOOTH",
"96 525 OFFCURVE",
"2 158 OFFCURVE",
"2 -12 CURVE SMOOTH",
"2 -120 OFFCURVE",
"51 -141 OFFCURVE",
"98 -141 CURVE SMOOTH",
"209 -141 OFFCURVE",
"258 55 OFFCURVE",
"258 166 CURVE SMOOTH",
"258 255 OFFCURVE",
"225 299 OFFCURVE",
"168 299 CURVE SMOOTH",
"81 299 OFFCURVE",
"0 257 OFFCURVE",
"0 225 CURVE SMOOTH",
"0 212 OFFCURVE",
"5 198 OFFCURVE",
"29 203 CURVE SMOOTH",
"91 217 OFFCURVE",
"204 230 OFFCURVE",
"299 230 CURVE SMOOTH",
"316 230 OFFCURVE",
"332 230 OFFCURVE",
"348 229 CURVE SMOOTH",
"404 226 OFFCURVE",
"398 280 OFFCURVE",
"357 285 CURVE SMOOTH",
"342 287 OFFCURVE",
"325 288 OFFCURVE",
"307 288 CURVE SMOOTH",
"228 288 OFFCURVE",
"76 276 OFFCURVE",
"76 253 CURVE SMOOTH",
"76 243 OFFCURVE",
"119 257 OFFCURVE",
"150 257 CURVE SMOOTH",
"167 257 OFFCURVE",
"196 249 OFFCURVE",
"196 176 CURVE SMOOTH",
"196 53 OFFCURVE",
"147 -88 OFFCURVE",
"94 -88 CURVE SMOOTH",
"76 -88 OFFCURVE",
"63 -77 OFFCURVE",
"63 -7 CURVE SMOOTH",
"63 108 OFFCURVE",
"135 431 OFFCURVE",
"217 679 CURVE SMOOTH",
"227 710 OFFCURVE",
"210 729 OFFCURVE",
"192 729 CURVE SMOOTH"
);
}
);
width = 389;
}
);
leftKerningGroup = f;
rightKerningGroup = f;
unicode = 0066;
},
{
glyphname = g;
lastChange = "2016-10-31 14:32:31 +0000";
layers = (
{
layerId = "2B556C7D-ACF4-4058-9F01-0A4D9389EAED";
name = Regular;
paths = (
{
closed = 1;
nodes = (
"311 489 OFFCURVE",
"295 479 OFFCURVE",
"290 458 CURVE SMOOTH",
"254 307 OFFCURVE",
"207 53 OFFCURVE",
"109 53 CURVE SMOOTH",
"82 53 OFFCURVE",
"61 84 OFFCURVE",
"61 171 CURVE SMOOTH",
"61 268 OFFCURVE",
"110 422 OFFCURVE",
"181 422 CURVE SMOOTH",
"219 422 OFFCURVE",
"234 365 OFFCURVE",
"214 286 CURVE SMOOTH",
"207 257 OFFCURVE",
"255 262 OFFCURVE",
"266 288 CURVE SMOOTH",
"302 366 OFFCURVE",
"270 477 OFFCURVE",
"181 477 CURVE SMOOTH",
"63 477 OFFCURVE",
"0 310 OFFCURVE",
"0 156 CURVE SMOOTH",
"0 64 OFFCURVE",
"36 -1 OFFCURVE",
"109 -1 CURVE SMOOTH",
"184 -1 OFFCURVE",
"232 80 OFFCURVE",
"259 153 CURVE",
"234 164 LINE",
"226 111 OFFCURVE",
"199 -64 OFFCURVE",
"192 -106 CURVE SMOOTH",
"180 -173 OFFCURVE",
"162 -198 OFFCURVE",
"138 -198 CURVE SMOOTH",
"117 -198 OFFCURVE",
"106 -179 OFFCURVE",
"106 -157 CURVE SMOOTH",
"106 -106 OFFCURVE",
"173 -69 OFFCURVE",
"235 -58 CURVE SMOOTH",
"251 -55 OFFCURVE",
"257 -34 OFFCURVE",
"257 -23 CURVE SMOOTH",
"257 -6 OFFCURVE",
"241 -2 OFFCURVE",
"213 -7 CURVE SMOOTH",
"127 -25 OFFCURVE",
"47 -76 OFFCURVE",
"47 -159 CURVE SMOOTH",
"47 -212 OFFCURVE",
"79 -256 OFFCURVE",
"142 -256 CURVE SMOOTH",
"193 -256 OFFCURVE",
"235 -222 OFFCURVE",
"252 -105 CURVE SMOOTH",
"254 -94 OFFCURVE",
"319 291 OFFCURVE",
"350 439 CURVE SMOOTH",
"358 470 OFFCURVE",
"343 489 OFFCURVE",
"325 489 CURVE SMOOTH"
);
}
);
width = 352;
}
);
leftKerningGroup = a;
rightKerningGroup = g;
unicode = 0067;
},
{
glyphname = h;
lastChange = "2016-11-01 11:32:29 +0000";
layers = (
{
associatedMasterId = "2B556C7D-ACF4-4058-9F01-0A4D9389EAED";
layerId = "6608284D-CA4E-4246-9C4C-7A9C583452AB";
name = "Regular Oct 6 16, 10:58";
paths = (
{
closed = 1;
nodes = (
"239 262 OFFCURVE",
"228 175 OFFCURVE",
"228 108 CURVE SMOOTH",
"228 45 OFFCURVE",
"249 -7 OFFCURVE",
"312 -7 CURVE SMOOTH",
"409 -7 OFFCURVE",
"489 98 OFFCURVE",
"530 242 CURVE SMOOTH",
"543 288 OFFCURVE",
"494 300 OFFCURVE",
"481 266 CURVE SMOOTH",
"401 56 OFFCURVE",
"334 46 OFFCURVE",
"316 46 CURVE SMOOTH",
"299 46 OFFCURVE",
"289 65 OFFCURVE",
"289 117 CURVE SMOOTH",
"289 208 OFFCURVE",
"322 328 OFFCURVE",
"322 374 CURVE SMOOTH",
"322 402 OFFCURVE",
"306 422 OFFCURVE",
"283 422 CURVE SMOOTH",
"254 422 OFFCURVE",
"236 406 OFFCURVE",
"201 343 CURVE SMOOTH",
"134 222 OFFCURVE",
"82 133 OFFCURVE",
"37 52 CURVE SMOOTH",
"37 52 OFFCURVE",
"58 45 OFFCURVE",
"58 45 CURVE SMOOTH",
"58 147 OFFCURVE",
"134 540 OFFCURVE",
"175 674 CURVE SMOOTH",
"192 730 OFFCURVE",
"132 743 OFFCURVE",
"117 698 CURVE SMOOTH",
"71 558 OFFCURVE",
"0 187 OFFCURVE",
"0 58 CURVE SMOOTH",
"0 34 OFFCURVE",
"3 0 OFFCURVE",
"39 0 CURVE SMOOTH",
"80 0 OFFCURVE",
"106 55 OFFCURVE",
"162 151 CURVE SMOOTH",
"196 209 OFFCURVE",
"238 286 OFFCURVE",
"275 366 CURVE",
"266 366 LINE"
);
}
);
width = 532;
},
{
layerId = "2B556C7D-ACF4-4058-9F01-0A4D9389EAED";
name = Regular;
paths = (
{
closed = 1;
nodes = (
"71 558 OFFCURVE",
"0 187 OFFCURVE",
"0 58 CURVE SMOOTH",
"0 34 OFFCURVE",
"3 0 OFFCURVE",
"39 0 CURVE SMOOTH",
"80 0 OFFCURVE",
"111 53 OFFCURVE",
"182 189 CURVE SMOOTH",
"240 301 OFFCURVE",
"277 391 OFFCURVE",
"293 439 CURVE",
"284 439 LINE",
"257 335 OFFCURVE",
"228 190 OFFCURVE",
"228 108 CURVE SMOOTH",
"228 45 OFFCURVE",
"249 -7 OFFCURVE",
"312 -7 CURVE SMOOTH",
"409 -7 OFFCURVE",
"489 98 OFFCURVE",
"530 242 CURVE SMOOTH",
"543 288 OFFCURVE",
"494 300 OFFCURVE",
"481 266 CURVE SMOOTH",
"401 56 OFFCURVE",
"334 46 OFFCURVE",
"316 46 CURVE SMOOTH",
"299 46 OFFCURVE",
"289 65 OFFCURVE",
"289 117 CURVE SMOOTH",
"289 208 OFFCURVE",
"339 390 OFFCURVE",
"339 436 CURVE SMOOTH",
"339 464 OFFCURVE",
"323 484 OFFCURVE",
"300 484 CURVE SMOOTH",
"271 484 OFFCURVE",
"251 471 OFFCURVE",
"216 397 CURVE SMOOTH",
"150 256 OFFCURVE",
"96 153 OFFCURVE",
"37 47 CURVE SMOOTH",
"37 47 OFFCURVE",
"57 41 OFFCURVE",
"57 41 CURVE SMOOTH",
"57 143 OFFCURVE",
"134 540 OFFCURVE",
"175 674 CURVE SMOOTH",
"192 730 OFFCURVE",
"132 743 OFFCURVE",
"117 698 CURVE SMOOTH"
);
}
);
width = 532;
}
);
leftKerningGroup = h;
rightKerningGroup = h;
unicode = 0068;
},
{
glyphname = i;
lastChange = "2016-11-01 11:34:53 +0000";
layers = (
{
layerId = "2B556C7D-ACF4-4058-9F01-0A4D9389EAED";
name = Regular;
paths = (
{
closed = 1;
nodes = (
"32 329 OFFCURVE",
"10 222 OFFCURVE",
"10 122 CURVE SMOOTH",
"10 61 OFFCURVE",
"31 1 OFFCURVE",
"99 1 CURVE SMOOTH",
"150 1 OFFCURVE",
"240 35 OFFCURVE",
"317 240 CURVE SMOOTH",
"328 269 OFFCURVE",
"311 285 OFFCURVE",
"296 285 CURVE SMOOTH",
"284 285 OFFCURVE",
"274 277 OFFCURVE",
"268 263 CURVE SMOOTH",
"185 74 OFFCURVE",
"127 56 OFFCURVE",
"103 56 CURVE SMOOTH",
"84 56 OFFCURVE",
"71 81 OFFCURVE",
"71 131 CURVE SMOOTH",
"71 194 OFFCURVE",
"88 300 OFFCURVE",
"121 417 CURVE SMOOTH",
"136 472 OFFCURVE",
"74 485 OFFCURVE",
"60 434 CURVE SMOOTH"
);
},
{
closed = 1;
nodes = (
"94 692 OFFCURVE",
"66 659 OFFCURVE",
"66 618 CURVE SMOOTH",
"66 570 OFFCURVE",
"98 546 OFFCURVE",
"135 546 CURVE SMOOTH",
"171 546 OFFCURVE",
"212 572 OFFCURVE",
"212 622 CURVE SMOOTH",
"212 659 OFFCURVE",
"186 694 OFFCURVE",
"138 693 CURVE SMOOTH"
);
},
{
closed = 1;
nodes = (
"155 649 OFFCURVE",
"165 637 OFFCURVE",
"165 621 CURVE SMOOTH",
"165 603 OFFCURVE",
"151 593 OFFCURVE",
"138 593 CURVE SMOOTH",
"118 593 OFFCURVE",
"111 606 OFFCURVE",
"111 621 CURVE SMOOTH",
"111 640 OFFCURVE",
"126 649 OFFCURVE",
"138 649 CURVE SMOOTH"
);
}
);
width = 321;
}
);
leftKerningGroup = i;
rightKerningGroup = i;
unicode = 0069;
},
{
glyphname = j;
lastChange = "2016-11-01 11:35:22 +0000";
layers = (
{
associatedMasterId = "2B556C7D-ACF4-4058-9F01-0A4D9389EAED";
layerId = "451A0B5B-81EB-4141-81B7-182266AD0AB0";
name = "Regular Oct 17 16, 21:53";
paths = (
{
closed = 1;
nodes = (
"279 617 OFFCURVE",
"285 602 OFFCURVE",
"306 602 CURVE SMOOTH",
"319 602 OFFCURVE",
"333 613 OFFCURVE",
"333 630 CURVE SMOOTH",
"333 646 OFFCURVE",
"323 658 OFFCURVE",
"306 658 CURVE SMOOTH",
"294 658 OFFCURVE",
"279 649 OFFCURVE",
"279 627 CURVE SMOOTH",
"279 625 OFFCURVE",
"234 622 OFFCURVE",
"234 627 CURVE SMOOTH",
"234 668 OFFCURVE",
"262 701 OFFCURVE",
"306 702 CURVE SMOOTH",
"354 703 OFFCURVE",
"380 668 OFFCURVE",
"380 631 CURVE SMOOTH",
"380 581 OFFCURVE",
"339 555 OFFCURVE",
"303 555 CURVE SMOOTH",
"266 555 OFFCURVE",
"234 579 OFFCURVE",
"234 627 CURVE",
"234 668 OFFCURVE",
"280 665 OFFCURVE",
"279 635 CURVE"
);
},
{
closed = 1;
nodes = (
"121 43 OFFCURVE",
"61 -58 OFFCURVE",
"61 -137 CURVE SMOOTH",
"61 -176 OFFCURVE",
"78 -184 OFFCURVE",
"92 -184 CURVE SMOOTH",
"118 -184 OFFCURVE",
"136 -145 OFFCURVE",
"143 -111 CURVE SMOOTH",
"154 -62 OFFCURVE",
"200 169 OFFCURVE",
"219 287 CURVE",
"229 283 LINE",
"204 215 OFFCURVE",
"137 195 OFFCURVE",
"92 195 CURVE",
"55 194 OFFCURVE",
"47 243 OFFCURVE",
"92 249 CURVE",
"142 259 OFFCURVE",
"212 277 OFFCURVE",
"252 450 CURVE SMOOTH",
"260 483 OFFCURVE",
"278 491 OFFCURVE",
"288 491 CURVE SMOOTH",
"306 491 OFFCURVE",
"320 475 OFFCURVE",
"313 444 CURVE SMOOTH",
"283 287 OFFCURVE",
"215 -57 OFFCURVE",
"202 -117 CURVE SMOOTH",
"185 -196 OFFCURVE",
"151 -238 OFFCURVE",
"86 -238 CURVE SMOOTH",
"39 -238 OFFCURVE",
"0 -203 OFFCURVE",
"0 -142 CURVE SMOOTH",
"0 -51 OFFCURVE",
"68 95 OFFCURVE",
"212 116 CURVE SMOOTH",
"238 120 OFFCURVE",
"265 74 OFFCURVE",
"215 63 CURVE SMOOTH"
);
}
);
width = 380;
},
{
layerId = "2B556C7D-ACF4-4058-9F01-0A4D9389EAED";
name = Regular;
paths = (
{
closed = 1;
nodes = (
"276 478 OFFCURVE",
"258 470 OFFCURVE",
"250 437 CURVE SMOOTH",
"197 150 OFFCURVE",
"143 -117 OFFCURVE",
"132 -166 CURVE SMOOTH",
"125 -200 OFFCURVE",
"107 -237 OFFCURVE",
"81 -237 CURVE SMOOTH",
"67 -237 OFFCURVE",
"49 -231 OFFCURVE",
"49 -192 CURVE SMOOTH",
"49 -131 OFFCURVE",
"93 -72 OFFCURVE",
"187 -64 CURVE SMOOTH",
"225 -61 OFFCURVE",
"203 -12 OFFCURVE",
"184 -12 CURVE SMOOTH",
"46 -12 OFFCURVE",
"-11 -116 OFFCURVE",
"-11 -197 CURVE SMOOTH",
"-11 -258 OFFCURVE",
"28 -294 OFFCURVE",
"75 -294 CURVE SMOOTH",
"140 -294 OFFCURVE",
"174 -251 OFFCURVE",
"191 -172 CURVE SMOOTH",
"204 -112 OFFCURVE",
"281 274 OFFCURVE",
"311 431 CURVE SMOOTH",
"318 462 OFFCURVE",
"304 478 OFFCURVE",
"286 478 CURVE SMOOTH"
);
},
{
closed = 1;
nodes = (
"262 702 OFFCURVE",
"234 668 OFFCURVE",
"234 627 CURVE SMOOTH",
"234 622 OFFCURVE",
"279 625 OFFCURVE",
"279 627 CURVE SMOOTH",
"279 649 OFFCURVE",
"294 658 OFFCURVE",
"306 658 CURVE SMOOTH",
"323 658 OFFCURVE",
"333 646 OFFCURVE",
"333 630 CURVE SMOOTH",
"333 613 OFFCURVE",
"319 602 OFFCURVE",
"306 602 CURVE SMOOTH",
"285 602 OFFCURVE",
"279 617 OFFCURVE",
"279 635 CURVE",
"280 665 OFFCURVE",
"234 668 OFFCURVE",
"234 627 CURVE",
"234 579 OFFCURVE",
"266 555 OFFCURVE",
"303 555 CURVE SMOOTH",
"339 555 OFFCURVE",
"380 581 OFFCURVE",
"380 631 CURVE SMOOTH",
"380 668 OFFCURVE",
"354 702 OFFCURVE",
"306 702 CURVE SMOOTH"
);
}
);
width = 380;
},
{
associatedMasterId = "2B556C7D-ACF4-4058-9F01-0A4D9389EAED";
layerId = "AAAA8E1F-2EBE-40D4-9276-7DB7AE3028B2";
name = "Regular Oct 31 16, 15:27";
paths = (
{
closed = 1;
nodes = (
"289 617 OFFCURVE",
"295 602 OFFCURVE",
"316 602 CURVE SMOOTH",
"329 602 OFFCURVE",
"343 613 OFFCURVE",
"343 630 CURVE SMOOTH",
"343 646 OFFCURVE",
"333 658 OFFCURVE",
"316 658 CURVE SMOOTH",
"304 658 OFFCURVE",
"289 649 OFFCURVE",
"289 627 CURVE SMOOTH",
"289 625 OFFCURVE",
"244 622 OFFCURVE",
"244 627 CURVE SMOOTH",
"244 668 OFFCURVE",
"272 702 OFFCURVE",
"316 702 CURVE SMOOTH",
"364 702 OFFCURVE",
"390 668 OFFCURVE",
"390 631 CURVE SMOOTH",
"390 581 OFFCURVE",
"349 555 OFFCURVE",
"313 555 CURVE SMOOTH",
"276 555 OFFCURVE",
"244 579 OFFCURVE",
"244 627 CURVE",
"244 668 OFFCURVE",
"290 665 OFFCURVE",
"289 635 CURVE"
);
},
{
closed = 1;
nodes = (
"268 470 OFFCURVE",
"286 478 OFFCURVE",
"296 478 CURVE SMOOTH",
"314 478 OFFCURVE",
"328 462 OFFCURVE",
"321 431 CURVE SMOOTH",
"291 274 OFFCURVE",
"224 -74 OFFCURVE",
"211 -134 CURVE SMOOTH",
"194 -213 OFFCURVE",
"160 -256 OFFCURVE",
"95 -256 CURVE SMOOTH",
"48 -256 OFFCURVE",
"9 -220 OFFCURVE",
"9 -159 CURVE SMOOTH",
"9 -78 OFFCURVE",
"66 26 OFFCURVE",
"204 26 CURVE SMOOTH",
"231 26 OFFCURVE",
"250 -23 OFFCURVE",
"207 -26 CURVE SMOOTH",
"113 -34 OFFCURVE",
"69 -93 OFFCURVE",
"69 -154 CURVE SMOOTH",
"69 -193 OFFCURVE",
"87 -199 OFFCURVE",
"101 -199 CURVE SMOOTH",
"127 -199 OFFCURVE",
"145 -162 OFFCURVE",
"152 -128 CURVE SMOOTH",
"163 -79 OFFCURVE",
"207 150 OFFCURVE",
"260 437 CURVE SMOOTH"
);
}
);
width = 390;
}
);
leftKerningGroup = j;
rightKerningGroup = j;
unicode = 006A;
},
{
glyphname = k;
lastChange = "2016-11-01 11:32:50 +0000";
layers = (
{
layerId = "2B556C7D-ACF4-4058-9F01-0A4D9389EAED";
name = Regular;
paths = (
{
closed = 1;
nodes = (
"146 732 OFFCURVE",
"131 725 OFFCURVE",
"124 704 CURVE SMOOTH",
"81 571 OFFCURVE",
"0 205 OFFCURVE",
"0 67 CURVE SMOOTH",
"0 30 OFFCURVE",
"9 0 OFFCURVE",
"46 0 CURVE SMOOTH",
"91 0 OFFCURVE",
"131 51 OFFCURVE",
"230 222 CURVE",
"213 213 LINE",
"206 110 OFFCURVE",
"246 0 OFFCURVE",
"316 0 CURVE SMOOTH",
"402 0 OFFCURVE",
"486 111 OFFCURVE",
"535 249 CURVE SMOOTH",
"545 277 OFFCURVE",
"529 292 OFFCURVE",
"515 292 CURVE SMOOTH",
"498 292 OFFCURVE",
"488 277 OFFCURVE",
"483 267 CURVE SMOOTH",
"402 90 OFFCURVE",
"343 54 OFFCURVE",
"319 54 CURVE SMOOTH",
"280 54 OFFCURVE",
"260 257 OFFCURVE",
"267 268 CURVE SMOOTH",
"289 305 OFFCURVE",
"349 358 OFFCURVE",
"349 399 CURVE SMOOTH",
"349 428 OFFCURVE",
"321 438 OFFCURVE",
"296 438 CURVE SMOOTH",
"278 438 OFFCURVE",
"262 433 OFFCURVE",
"259 427 CURVE SMOOTH",
"182 239 OFFCURVE",
"89 92 OFFCURVE",
"45 45 CURVE",
"58 45 LINE",
"58 141 OFFCURVE",
"119 471 OFFCURVE",
"185 687 CURVE SMOOTH",
"193 712 OFFCURVE",
"180 732 OFFCURVE",
"160 732 CURVE SMOOTH"
);
}
);
width = 538;
}
);
leftKerningGroup = h;
rightKerningGroup = k;
unicode = 006B;
},
{
glyphname = l;
lastChange = "2016-11-01 11:32:55 +0000";
layers = (
{
associatedMasterId = "2B556C7D-ACF4-4058-9F01-0A4D9389EAED";
layerId = "194AF37D-9F8F-4886-83AA-E294C1179C6C";
name = "Regular Oct 13 16, 22:40";
paths = (
{
closed = 1;
nodes = (
"76 605 OFFCURVE",
"-1 261 OFFCURVE",
"-1 98 CURVE SMOOTH",
"-1 42 OFFCURVE",
"25 -7 OFFCURVE",
"87 -7 CURVE SMOOTH",
"136 -7 OFFCURVE",
"222 17 OFFCURVE",
"334 241 CURVE SMOOTH",
"350 273 OFFCURVE",
"335 291 OFFCURVE",
"317 291 CURVE SMOOTH",
"305 291 OFFCURVE",
"294 282 OFFCURVE",
"288 271 CURVE SMOOTH",
"189 83 OFFCURVE",
"120 48 OFFCURVE",
"97 48 CURVE SMOOTH",
"70 48 OFFCURVE",
"61 68 OFFCURVE",
"61 112 CURVE SMOOTH",
"61 225 OFFCURVE",
"124 517 OFFCURVE",
"164 681 CURVE SMOOTH",
"178 739 OFFCURVE",
"117 741 OFFCURVE",
"106 705 CURVE SMOOTH"
);
}
);
width = 338;
},
{
layerId = "2B556C7D-ACF4-4058-9F01-0A4D9389EAED";
name = Regular;
paths = (
{
closed = 1;
nodes = (
"82 602 OFFCURVE",
"0 269 OFFCURVE",
"0 106 CURVE SMOOTH",
"0 50 OFFCURVE",
"26 1 OFFCURVE",
"88 1 CURVE SMOOTH",
"137 1 OFFCURVE",
"226 18 OFFCURVE",
"338 242 CURVE SMOOTH",
"354 274 OFFCURVE",
"336 293 OFFCURVE",
"318 293 CURVE SMOOTH",
"306 293 OFFCURVE",
"295 284 OFFCURVE",
"289 273 CURVE SMOOTH",
"194 85 OFFCURVE",
"121 56 OFFCURVE",
"98 56 CURVE SMOOTH",
"71 56 OFFCURVE",
"62 76 OFFCURVE",
"62 120 CURVE SMOOTH",
"62 233 OFFCURVE",
"125 510 OFFCURVE",
"165 674 CURVE SMOOTH",
"179 732 OFFCURVE",
"116 734 OFFCURVE",
"107 698 CURVE SMOOTH"
);
}
);
width = 344;
}
);
leftKerningGroup = l;
rightKerningGroup = l;
unicode = 006C;
},
{
glyphname = lslash;
lastChange = "2016-11-01 11:33:02 +0000";
layers = (
{
associatedMasterId = "2B556C7D-ACF4-4058-9F01-0A4D9389EAED";
layerId = "2EFAEA1E-F339-4405-B6BA-C150426972AC";
name = "Regular Oct 19 16, 15:29 Oct 19 16, 15:30";
paths = (
{
closed = 1;
nodes = (
"224 380 OFFCURVE",
"228 401 OFFCURVE",
"222 413 CURVE SMOOTH",
"216 426 OFFCURVE",
"202 432 OFFCURVE",
"179 422 CURVE SMOOTH",
"144 407 OFFCURVE",
"-1 341 OFFCURVE",
"-9 337 CURVE SMOOTH",
"-30 328 OFFCURVE",
"-35 311 OFFCURVE",
"-28 297 CURVE SMOOTH",
"-23 286 OFFCURVE",
"-9 276 OFFCURVE",
"6 284 CURVE SMOOTH",
"88 320 OFFCURVE",
"151 349 OFFCURVE",
"203 372 CURVE SMOOTH"
);
},
{
closed = 1;
nodes = (
"78 560 OFFCURVE",
"6 269 OFFCURVE",
"6 106 CURVE SMOOTH",
"6 50 OFFCURVE",
"32 1 OFFCURVE",
"94 1 CURVE SMOOTH",
"143 1 OFFCURVE",
"232 18 OFFCURVE",
"344 242 CURVE SMOOTH",
"360 274 OFFCURVE",
"342 293 OFFCURVE",
"324 293 CURVE SMOOTH",
"312 293 OFFCURVE",
"301 284 OFFCURVE",
"295 273 CURVE SMOOTH",
"200 85 OFFCURVE",
"127 56 OFFCURVE",
"104 56 CURVE SMOOTH",
"77 56 OFFCURVE",
"68 76 OFFCURVE",
"68 120 CURVE SMOOTH",
"68 233 OFFCURVE",
"121 468 OFFCURVE",
"161 632 CURVE SMOOTH",
"175 690 OFFCURVE",
"112 692 OFFCURVE",
"103 656 CURVE SMOOTH"
);
}
);
width = 350;
},
{
layerId = "2B556C7D-ACF4-4058-9F01-0A4D9389EAED";
name = Regular;
paths = (
{
closed = 1;
nodes = (
"78 560 OFFCURVE",
"6 269 OFFCURVE",
"6 106 CURVE SMOOTH",
"6 50 OFFCURVE",
"32 1 OFFCURVE",
"94 1 CURVE SMOOTH",
"143 1 OFFCURVE",
"232 18 OFFCURVE",
"344 242 CURVE SMOOTH",
"360 274 OFFCURVE",
"342 293 OFFCURVE",
"324 293 CURVE SMOOTH",
"312 293 OFFCURVE",
"301 284 OFFCURVE",
"295 273 CURVE SMOOTH",
"200 85 OFFCURVE",
"127 56 OFFCURVE",
"104 56 CURVE SMOOTH",
"77 56 OFFCURVE",
"68 76 OFFCURVE",
"68 120 CURVE SMOOTH",
"68 233 OFFCURVE",
"121 468 OFFCURVE",
"161 632 CURVE SMOOTH",
"175 690 OFFCURVE",
"112 692 OFFCURVE",
"103 656 CURVE SMOOTH"
);
},
{
closed = 1;
nodes = (
"202 687 OFFCURVE",
"43 686 OFFCURVE",
"34 686 CURVE SMOOTH",
"11 686 OFFCURVE",
"0 672 OFFCURVE",
"0 657 CURVE SMOOTH",
"0 645 OFFCURVE",
"9 631 OFFCURVE",
"26 631 CURVE SMOOTH",
"115 631 OFFCURVE",
"185 631 OFFCURVE",
"242 631 CURVE SMOOTH",
"264 631 OFFCURVE",
"276 648 OFFCURVE",
"276 662 CURVE SMOOTH",
"276 676 OFFCURVE",
"265 687 OFFCURVE",
"240 687 CURVE SMOOTH"
);
}
);
width = 350;
}
);
leftKerningGroup = lslash;
rightKerningGroup = lslash;
unicode = 0142;
},
{
glyphname = m;
lastChange = "2016-10-31 14:32:31 +0000";
layers = (
{
layerId = "2B556C7D-ACF4-4058-9F01-0A4D9389EAED";
name = Regular;
paths = (
{
closed = 1;
nodes = (
"81 490 OFFCURVE",
"68 482 OFFCURVE",
"62 467 CURVE SMOOTH",
"36 399 OFFCURVE",
"0 238 OFFCURVE",
"0 127 CURVE SMOOTH",
"0 58 OFFCURVE",
"13 -5 OFFCURVE",
"79 -5 CURVE SMOOTH",
"146 -5 OFFCURVE",
"212 76 OFFCURVE",
"293 331 CURVE",
"282 321 LINE",
"268 264 OFFCURVE",
"257 189 OFFCURVE",
"257 130 CURVE SMOOTH",
"257 58 OFFCURVE",
"274 1 OFFCURVE",
"327 1 CURVE SMOOTH",
"396 1 OFFCURVE",
"466 116 OFFCURVE",
"520 277 CURVE",
"509 275 LINE",
"500 233 OFFCURVE",
"491 178 OFFCURVE",
"491 129 CURVE SMOOTH",
"491 60 OFFCURVE",
"509 2 OFFCURVE",
"568 2 CURVE SMOOTH",
"617 2 OFFCURVE",
"702 34 OFFCURVE",
"792 237 CURVE SMOOTH",
"806 270 OFFCURVE",
"791 285 OFFCURVE",
"774 285 CURVE SMOOTH",
"763 285 OFFCURVE",
"752 277 OFFCURVE",
"745 264 CURVE SMOOTH",
"673 112 OFFCURVE",
"609 55 OFFCURVE",
"574 55 CURVE SMOOTH",
"556 55 OFFCURVE",
"550 82 OFFCURVE",
"550 125 CURVE SMOOTH",
"550 178 OFFCURVE",
"560 257 OFFCURVE",
"575 339 CURVE SMOOTH",
"582 376 OFFCURVE",
"560 393 OFFCURVE",
"539 393 CURVE SMOOTH",
"522 393 OFFCURVE",
"505 382 OFFCURVE",
"498 364 CURVE SMOOTH",
"445 223 OFFCURVE",
"370 55 OFFCURVE",
"335 55 CURVE SMOOTH",
"323 55 OFFCURVE",
"316 76 OFFCURVE",
"316 118 CURVE SMOOTH",
"316 171 OFFCURVE",
"327 259 OFFCURVE",
"352 383 CURVE SMOOTH",
"360 421 OFFCURVE",
"337 442 OFFCURVE",
"313 442 CURVE SMOOTH",
"296 442 OFFCURVE",
"282 434 OFFCURVE",
"274 420 CURVE SMOOTH",
"249 376 OFFCURVE",
"148 52 OFFCURVE",
"83 52 CURVE SMOOTH",
"70 52 OFFCURVE",
"59 68 OFFCURVE",
"59 115 CURVE SMOOTH",
"59 171 OFFCURVE",
"74 276 OFFCURVE",
"120 443 CURVE SMOOTH",
"129 475 OFFCURVE",
"112 490 OFFCURVE",
"94 490 CURVE SMOOTH"
);
}
);
width = 798;
}
);
leftKerningGroup = i;
rightKerningGroup = m;
unicode = 006D;
},
{
glyphname = n;
lastChange = "2016-10-31 14:32:31 +0000";
layers = (
{
layerId = "2B556C7D-ACF4-4058-9F01-0A4D9389EAED";
name = Regular;
paths = (
{
closed = 1;
nodes = (
"90 487 OFFCURVE",
"76 476 OFFCURVE",
"72 464 CURVE SMOOTH",
"42 374 OFFCURVE",
"0 186 OFFCURVE",
"0 82 CURVE SMOOTH",
"0 38 OFFCURVE",
"4 1 OFFCURVE",
"47 1 CURVE SMOOTH",
"87 1 OFFCURVE",
"121 61 OFFCURVE",
"175 148 CURVE SMOOTH",
"202 193 OFFCURVE",
"252 287 OFFCURVE",
"294 363 CURVE",
"280 376 LINE",
"256 297 OFFCURVE",
"231 172 OFFCURVE",
"231 99 CURVE SMOOTH",
"231 47 OFFCURVE",
"249 1 OFFCURVE",
"313 1 CURVE SMOOTH",
"392 1 OFFCURVE",
"467 89 OFFCURVE",
"537 230 CURVE SMOOTH",
"561 278 OFFCURVE",
"511 297 OFFCURVE",
"490 258 CURVE SMOOTH",
"409 106 OFFCURVE",
"339 54 OFFCURVE",
"313 54 CURVE SMOOTH",
"298 54 OFFCURVE",
"290 71 OFFCURVE",
"290 104 CURVE SMOOTH",
"290 175 OFFCURVE",
"332 340 OFFCURVE",
"332 368 CURVE SMOOTH",
"332 403 OFFCURVE",
"311 419 OFFCURVE",
"290 419 CURVE SMOOTH",
"267 419 OFFCURVE",
"250 399 OFFCURVE",
"234 371 CURVE SMOOTH",
"184 285 OFFCURVE",
"98 133 OFFCURVE",
"52 62 CURVE",
"58 58 LINE",
"58 117 OFFCURVE",
"88 307 OFFCURVE",
"129 440 CURVE SMOOTH",
"139 472 OFFCURVE",
"121 487 OFFCURVE",
"102 487 CURVE SMOOTH"
);
}
);
width = 543;
}
);
leftKerningGroup = h;
rightKerningGroup = n;
unicode = 006E;
},
{
glyphname = nacute;
lastChange = "2016-10-31 14:32:31 +0000";
layers = (
{
associatedMasterId = "2B556C7D-ACF4-4058-9F01-0A4D9389EAED";
layerId = "C7086EA1-0CC6-402D-A0D1-C2E2D5ECC33C";
leftMetricsKey = n;
rightMetricsKey = n;
name = "Regular Oct 13 16, 22:26";
paths = (
{
closed = 1;
nodes = (
"228 614 OFFCURVE",
"215 562 OFFCURVE",
"206 525 CURVE SMOOTH",
"195 481 OFFCURVE",
"248 468 OFFCURVE",
"261 509 CURVE SMOOTH",
"278 564 OFFCURVE",
"290 600 OFFCURVE",
"299 634 CURVE SMOOTH",
"311 678 OFFCURVE",
"253 697 OFFCURVE",
"239 650 CURVE SMOOTH"
);
},
{
closed = 1;
nodes = (
"27 353 OFFCURVE",
"-18 86 OFFCURVE",
"6 17 CURVE SMOOTH",
"14 -6 OFFCURVE",
"57 -19 OFFCURVE",
"88 12 CURVE SMOOTH",
"107 31 OFFCURVE",
"175 99 OFFCURVE",
"295 364 CURVE SMOOTH",
"296 367 OFFCURVE",
"289 370 OFFCURVE",
"290 373 CURVE SMOOTH",
"290 373 OFFCURVE",
"287 383 OFFCURVE",
"283 371 CURVE SMOOTH",
"217 178 OFFCURVE",
"225 48 OFFCURVE",
"252 6 CURVE SMOOTH",
"266 -16 OFFCURVE",
"290 -28 OFFCURVE",
"318 -27 CURVE SMOOTH",
"415 -24 OFFCURVE",
"500 179 OFFCURVE",
"545 338 CURVE SMOOTH",
"559 387 OFFCURVE",
"508 397 OFFCURVE",
"496 358 CURVE SMOOTH",
"421 108 OFFCURVE",
"345 26 OFFCURVE",
"319 26 CURVE SMOOTH",
"287 26 OFFCURVE",
"275 113 OFFCURVE",
"330 347 CURVE SMOOTH",
"340 390 OFFCURVE",
"322 411 OFFCURVE",
"302 417 CURVE SMOOTH",
"270 426 OFFCURVE",
"252 404 OFFCURVE",
"237 371 CURVE SMOOTH",
"170 225 OFFCURVE",
"78 69 OFFCURVE",
"36 30 CURVE SMOOTH",
"36 30 OFFCURVE",
"54 16 OFFCURVE",
"62 26 CURVE SMOOTH",
"69 34 OFFCURVE",
"68 38 OFFCURVE",
"64 46 CURVE SMOOTH",
"47 77 OFFCURVE",
"84 282 OFFCURVE",
"129 432 CURVE SMOOTH",
"145 486 OFFCURVE",
"80 491 OFFCURVE",
"68 460 CURVE SMOOTH"
);
}
);
width = 548;
},
{
layerId = "2B556C7D-ACF4-4058-9F01-0A4D9389EAED";
leftMetricsKey = n;
rightMetricsKey = n;
name = Regular;
paths = (
{
closed = 1;
nodes = (
"90 487 OFFCURVE",
"76 476 OFFCURVE",
"72 464 CURVE SMOOTH",
"42 374 OFFCURVE",
"0 186 OFFCURVE",
"0 82 CURVE SMOOTH",
"0 38 OFFCURVE",
"4 1 OFFCURVE",
"47 1 CURVE SMOOTH",
"87 1 OFFCURVE",
"121 61 OFFCURVE",
"175 148 CURVE SMOOTH",
"202 193 OFFCURVE",
"252 287 OFFCURVE",
"294 363 CURVE",
"280 376 LINE",
"256 297 OFFCURVE",
"231 172 OFFCURVE",
"231 99 CURVE SMOOTH",
"231 47 OFFCURVE",
"249 1 OFFCURVE",
"313 1 CURVE SMOOTH",
"392 1 OFFCURVE",
"499 104 OFFCURVE",
"544 226 CURVE SMOOTH",
"562 275 OFFCURVE",
"515 287 OFFCURVE",
"494 248 CURVE SMOOTH",
"413 96 OFFCURVE",
"339 54 OFFCURVE",
"313 54 CURVE SMOOTH",
"298 54 OFFCURVE",
"290 71 OFFCURVE",
"290 104 CURVE SMOOTH",
"290 175 OFFCURVE",
"332 340 OFFCURVE",
"332 368 CURVE SMOOTH",
"332 403 OFFCURVE",
"311 419 OFFCURVE",
"290 419 CURVE SMOOTH",
"267 419 OFFCURVE",
"250 399 OFFCURVE",
"234 371 CURVE SMOOTH",
"184 285 OFFCURVE",
"98 133 OFFCURVE",
"52 62 CURVE",
"58 58 LINE",
"58 117 OFFCURVE",
"88 307 OFFCURVE",
"129 440 CURVE SMOOTH",
"139 472 OFFCURVE",
"121 487 OFFCURVE",
"102 487 CURVE SMOOTH"
);
},
{
closed = 1;
nodes = (
"268 662 OFFCURVE",
"253 656 OFFCURVE",
"244 638 CURVE SMOOTH",
"226 599 OFFCURVE",
"216 575 OFFCURVE",
"201 540 CURVE SMOOTH",
"190 516 OFFCURVE",
"201 499 OFFCURVE",
"217 496 CURVE SMOOTH",
"229 494 OFFCURVE",
"245 500 OFFCURVE",
"253 516 CURVE SMOOTH",
"280 567 OFFCURVE",
"285 581 OFFCURVE",
"300 613 CURVE SMOOTH",
"311 637 OFFCURVE",
"300 657 OFFCURVE",
"281 660 CURVE SMOOTH"
);
}
);
width = 548;
}
);
leftKerningGroup = h;
leftMetricsKey = n;
rightKerningGroup = n;
rightMetricsKey = n;
unicode = 0144;
},
{
glyphname = o;
lastChange = "2016-11-01 11:33:12 +0000";
layers = (
{
associatedMasterId = "2B556C7D-ACF4-4058-9F01-0A4D9389EAED";
layerId = "9099F6DF-A431-49A6-A111-B1CA00AF6CC6";
name = "Regular Aug 18 16, 13:51";
paths = (
{
closed = 1;
nodes = (
"444 298 OFFCURVE",
"430 347 OFFCURVE",
"384 327 CURVE SMOOTH",
"263 272 OFFCURVE",
"77 253 OFFCURVE",
"64 318 CURVE SMOOTH",
"51 387 OFFCURVE",
"131 464 OFFCURVE",
"185 422 CURVE SMOOTH",
"268 358 OFFCURVE",
"200 46 OFFCURVE",
"97 46 CURVE SMOOTH",
"33 42 OFFCURVE",
"23 142 OFFCURVE",
"47 249 CURVE SMOOTH",
"57 295 OFFCURVE",
"-1 315 OFFCURVE",
"-10 263 CURVE SMOOTH",
"-27 166 OFFCURVE",
"-30 85 OFFCURVE",
"8 31 CURVE SMOOTH",
"30 3 OFFCURVE",
"62 -9 OFFCURVE",
"94 -9 CURVE SMOOTH",
"225 -9 OFFCURVE",
"321 218 OFFCURVE",
"270 389 CURVE SMOOTH",
"242 482 OFFCURVE",
"160 512 OFFCURVE",
"82 465 CURVE SMOOTH",
"39 440 OFFCURVE",
"2 388 OFFCURVE",
"2 333 CURVE SMOOTH",
"2 185 OFFCURVE",
"267 204 OFFCURVE",
"406 278 CURVE SMOOTH"
);
}
);
width = 390;
},
{
layerId = "2B556C7D-ACF4-4058-9F01-0A4D9389EAED";
name = Regular;
paths = (
{
closed = 1;
nodes = (
"89 488 OFFCURVE",
"12 394 OFFCURVE",
"1 306 CURVE SMOOTH",
"-2 285 OFFCURVE",
"11 272 OFFCURVE",
"24 272 CURVE SMOOTH",
"36 272 OFFCURVE",
"51 282 OFFCURVE",
"56 304 CURVE SMOOTH",
"71 370 OFFCURVE",
"126 434 OFFCURVE",
"169 434 CURVE SMOOTH",
"217 434 OFFCURVE",
"243 385 OFFCURVE",
"243 308 CURVE SMOOTH",
"243 179 OFFCURVE",
"189 55 OFFCURVE",
"129 55 CURVE SMOOTH",
"93 55 OFFCURVE",
"75 88 OFFCURVE",
"75 145 CURVE SMOOTH",
"75 185 OFFCURVE",
"83 236 OFFCURVE",
"102 298 CURVE SMOOTH",
"112 323 OFFCURVE",
"97 341 OFFCURVE",
"79 341 CURVE SMOOTH",
"68 341 OFFCURVE",
"54 333 OFFCURVE",
"46 315 CURVE SMOOTH",
"28 269 OFFCURVE",
"15 203 OFFCURVE",
"15 142 CURVE SMOOTH",
"15 67 OFFCURVE",
"46 1 OFFCURVE",
"124 1 CURVE SMOOTH",
"234 1 OFFCURVE",
"303 147 OFFCURVE",
"303 302 CURVE SMOOTH",
"303 422 OFFCURVE",
"252 488 OFFCURVE",
"177 488 CURVE SMOOTH"
);
}
);
width = 302;
}
);
leftKerningGroup = o;
rightKerningGroup = o;
unicode = 006F;
},
{
glyphname = oacute;
lastChange = "2016-10-31 14:32:31 +0000";
layers = (
{
associatedMasterId = "2B556C7D-ACF4-4058-9F01-0A4D9389EAED";
layerId = "4ECAEEF8-2D34-4312-A926-1B04E2A9D06A";
name = "Regular Aug 18 16, 17:20";
paths = (
{
closed = 1;
nodes = (
"446 304 OFFCURVE",
"431 353 OFFCURVE",
"386 327 CURVE SMOOTH",
"265 256 OFFCURVE",
"77 253 OFFCURVE",
"64 318 CURVE SMOOTH",
"52 382 OFFCURVE",
"122 453 OFFCURVE",
"177 438 CURVE SMOOTH",
"285 409 OFFCURVE",
"220 52 OFFCURVE",
"108 52 CURVE SMOOTH",
"36 52 OFFCURVE",
"32 168 OFFCURVE",
"63 290 CURVE SMOOTH",
"70 318 OFFCURVE",
"18 339 OFFCURVE",
"6 300 CURVE SMOOTH",
"-23 212 OFFCURVE",
"-48 -5 OFFCURVE",
"104 -5 CURVE SMOOTH",
"160 -5 OFFCURVE",
"207 26 OFFCURVE",
"241 85 CURVE SMOOTH",
"318 220 OFFCURVE",
"321 475 OFFCURVE",
"182 497 CURVE SMOOTH",
"90 512 OFFCURVE",
"2 417 OFFCURVE",
"2 330 CURVE SMOOTH",
"2 182 OFFCURVE",
"269 183 OFFCURVE",
"408 278 CURVE SMOOTH"
);
},
{
closed = 1;
nodes = (
"176 677 OFFCURVE",
"163 625 OFFCURVE",
"154 588 CURVE SMOOTH",
"143 544 OFFCURVE",
"196 531 OFFCURVE",
"209 572 CURVE SMOOTH",
"226 627 OFFCURVE",
"238 663 OFFCURVE",
"247 697 CURVE SMOOTH",
"259 741 OFFCURVE",
"201 760 OFFCURVE",
"187 713 CURVE SMOOTH"
);
}
);
width = 390;
},
{
layerId = "2B556C7D-ACF4-4058-9F01-0A4D9389EAED";
leftMetricsKey = o;
rightMetricsKey = o;
name = Regular;
paths = (
{
closed = 1;
nodes = (
"89 488 OFFCURVE",
"12 394 OFFCURVE",
"1 306 CURVE SMOOTH",
"-2 285 OFFCURVE",
"11 272 OFFCURVE",
"24 272 CURVE SMOOTH",
"36 272 OFFCURVE",
"51 282 OFFCURVE",
"56 304 CURVE SMOOTH",
"71 370 OFFCURVE",
"126 434 OFFCURVE",
"169 434 CURVE SMOOTH",
"217 434 OFFCURVE",
"243 385 OFFCURVE",
"243 308 CURVE SMOOTH",
"243 179 OFFCURVE",
"189 55 OFFCURVE",
"129 55 CURVE SMOOTH",
"93 55 OFFCURVE",
"75 88 OFFCURVE",
"75 145 CURVE SMOOTH",
"75 185 OFFCURVE",
"83 236 OFFCURVE",
"102 298 CURVE SMOOTH",
"112 323 OFFCURVE",
"97 341 OFFCURVE",
"79 341 CURVE SMOOTH",
"68 341 OFFCURVE",
"54 333 OFFCURVE",
"46 315 CURVE SMOOTH",
"28 269 OFFCURVE",
"15 203 OFFCURVE",
"15 142 CURVE SMOOTH",
"15 67 OFFCURVE",
"46 1 OFFCURVE",
"124 1 CURVE SMOOTH",
"234 1 OFFCURVE",
"303 147 OFFCURVE",
"303 302 CURVE SMOOTH",
"303 422 OFFCURVE",
"252 488 OFFCURVE",
"177 488 CURVE SMOOTH"
);
},
{
closed = 1;
nodes = (
"226 708 OFFCURVE",
"211 702 OFFCURVE",
"202 684 CURVE SMOOTH",
"184 645 OFFCURVE",
"174 621 OFFCURVE",
"159 586 CURVE SMOOTH",
"148 562 OFFCURVE",
"159 545 OFFCURVE",
"175 542 CURVE SMOOTH",
"187 540 OFFCURVE",
"203 546 OFFCURVE",
"211 562 CURVE SMOOTH",
"238 613 OFFCURVE",
"243 627 OFFCURVE",
"258 659 CURVE SMOOTH",
"269 683 OFFCURVE",
"258 703 OFFCURVE",
"239 706 CURVE SMOOTH"
);
}
);
width = 302;
}
);
leftKerningGroup = o;
leftMetricsKey = o;
rightKerningGroup = o;
rightMetricsKey = o;
unicode = 00F3;
},
{
glyphname = p;
lastChange = "2016-11-01 11:33:20 +0000";
layers = (
{
layerId = "2B556C7D-ACF4-4058-9F01-0A4D9389EAED";
name = Regular;
paths = (
{
closed = 1;
nodes = (
"196 478 OFFCURVE",
"137 397 OFFCURVE",
"110 324 CURVE",
"149 314 LINE",
"158 352 OFFCURVE",
"168 399 OFFCURVE",
"180 452 CURVE SMOOTH",
"191 500 OFFCURVE",
"130 509 OFFCURVE",
"121 468 CURVE SMOOTH",
"62 202 OFFCURVE",
"7 -124 OFFCURVE",
"0 -184 CURVE SMOOTH",
"-5 -225 OFFCURVE",
"53 -231 OFFCURVE",
"59 -190 CURVE SMOOTH",
"74 -88 OFFCURVE",
"93 21 OFFCURVE",
"129 220 CURVE SMOOTH",
"151 337 OFFCURVE",
"221 424 OFFCURVE",
"268 424 CURVE SMOOTH",
"295 424 OFFCURVE",
"319 393 OFFCURVE",
"319 306 CURVE SMOOTH",
"319 209 OFFCURVE",
"270 55 OFFCURVE",
"199 55 CURVE SMOOTH",
"161 55 OFFCURVE",
"136 112 OFFCURVE",
"150 168 CURVE SMOOTH",
"163 220 OFFCURVE",
"113 215 OFFCURVE",
"104 189 CURVE SMOOTH",
"74 103 OFFCURVE",
"110 0 OFFCURVE",
"199 0 CURVE SMOOTH",
"317 0 OFFCURVE",
"380 167 OFFCURVE",
"380 321 CURVE SMOOTH",
"380 413 OFFCURVE",
"344 478 OFFCURVE",
"271 478 CURVE SMOOTH"
);
}
);
width = 380;
}
);
leftKerningGroup = p;
rightKerningGroup = p;
unicode = 0070;
},
{
glyphname = q;
lastChange = "2016-10-31 14:32:31 +0000";
layers = (
{
layerId = "2B556C7D-ACF4-4058-9F01-0A4D9389EAED";
name = Regular;
paths = (
{
closed = 1;
nodes = (
"62 479 OFFCURVE",
"0 305 OFFCURVE",
"0 151 CURVE SMOOTH",
"0 64 OFFCURVE",
"30 1 OFFCURVE",
"108 1 CURVE SMOOTH",
"188 1 OFFCURVE",
"241 110 OFFCURVE",
"248 155 CURVE",
"216 154 LINE",
"210 124 OFFCURVE",
"154 -135 OFFCURVE",
"148 -178 CURVE SMOOTH",
"143 -219 OFFCURVE",
"199 -226 OFFCURVE",
"207 -185 CURVE SMOOTH",
"254 49 OFFCURVE",
"297 241 OFFCURVE",
"339 452 CURVE SMOOTH",
"349 500 OFFCURVE",
"290 508 OFFCURVE",
"281 468 CURVE SMOOTH",
"271 422 OFFCURVE",
"253 334 OFFCURVE",
"237 260 CURVE SMOOTH",
"216 159 OFFCURVE",
"155 55 OFFCURVE",
"108 55 CURVE SMOOTH",
"81 55 OFFCURVE",
"59 77 OFFCURVE",
"59 164 CURVE SMOOTH",
"59 261 OFFCURVE",
"110 424 OFFCURVE",
"178 424 CURVE SMOOTH",
"205 424 OFFCURVE",
"222 399 OFFCURVE",
"222 351 CURVE SMOOTH",
"222 333 OFFCURVE",
"217 302 OFFCURVE",
"213 284 CURVE SMOOTH",
"208 261 OFFCURVE",
"224 251 OFFCURVE",
"237 251 CURVE SMOOTH",
"267 251 OFFCURVE",
"277 300 OFFCURVE",
"277 352 CURVE SMOOTH",
"277 421 OFFCURVE",
"245 479 OFFCURVE",
"180 479 CURVE SMOOTH"
);
}
);
width = 340;
}
);
leftKerningGroup = a;
rightKerningGroup = q;
unicode = 0071;
},
{
glyphname = r;
lastChange = "2016-11-01 11:33:26 +0000";
layers = (
{
layerId = "2B556C7D-ACF4-4058-9F01-0A4D9389EAED";
name = Regular;
paths = (
{
closed = 1;
nodes = (
"247 491 OFFCURVE",
"236 480 OFFCURVE",
"221 446 CURVE SMOOTH",
"196 392 OFFCURVE",
"88 169 OFFCURVE",
"47 77 CURVE",
"55 75 LINE",
"56 168 OFFCURVE",
"87 335 OFFCURVE",
"112 430 CURVE SMOOTH",
"121 464 OFFCURVE",
"106 480 OFFCURVE",
"88 480 CURVE SMOOTH",
"74 480 OFFCURVE",
"60 470 OFFCURVE",
"55 451 CURVE SMOOTH",
"22 331 OFFCURVE",
"0 176 OFFCURVE",
"0 67 CURVE SMOOTH",
"0 49 OFFCURVE",
"3 2 OFFCURVE",
"44 2 CURVE SMOOTH",
"60 2 OFFCURVE",
"77 12 OFFCURVE",
"97 53 CURVE SMOOTH",
"122 103 OFFCURVE",
"197 259 OFFCURVE",
"239 349 CURVE",
"224 357 LINE",
"224 264 OFFCURVE",
"299 212 OFFCURVE",
"411 254 CURVE SMOOTH",
"456 271 OFFCURVE",
"436 326 OFFCURVE",
"399 311 CURVE SMOOTH",
"375 303 OFFCURVE",
"355 299 OFFCURVE",
"339 299 CURVE SMOOTH",
"295 299 OFFCURVE",
"281 335 OFFCURVE",
"281 368 CURVE SMOOTH",
"281 404 OFFCURVE",
"291 429 OFFCURVE",
"294 452 CURVE SMOOTH",
"298 482 OFFCURVE",
"279 491 OFFCURVE",
"265 491 CURVE SMOOTH"
);
}
);
width = 437;
}
);
leftKerningGroup = r;
rightKerningGroup = r;
unicode = 0072;
},
{
glyphname = s;
lastChange = "2016-11-01 11:33:30 +0000";
layers = (
{
layerId = "2B556C7D-ACF4-4058-9F01-0A4D9389EAED";
name = Regular;
paths = (
{
closed = 1;
nodes = (
"75 492 OFFCURVE",
"8 422 OFFCURVE",
"8 343 CURVE SMOOTH",
"10 254 OFFCURVE",
"125 196 OFFCURVE",
"125 93 CURVE SMOOTH",
"125 78 OFFCURVE",
"118 49 OFFCURVE",
"91 49 CURVE SMOOTH",
"70 49 OFFCURVE",
"60 66 OFFCURVE",
"60 85 CURVE SMOOTH",
"60 113 OFFCURVE",
"86 154 OFFCURVE",
"148 186 CURVE SMOOTH",
"187 208 OFFCURVE",
"241 227 OFFCURVE",
"312 238 CURVE SMOOTH",
"357 245 OFFCURVE",
"345 302 OFFCURVE",
"305 296 CURVE SMOOTH",
"222 283 OFFCURVE",
"162 260 OFFCURVE",
"119 237 CURVE SMOOTH",
"14 185 OFFCURVE",
"0 115 OFFCURVE",
"0 86 CURVE SMOOTH",
"0 28 OFFCURVE",
"43 -5 OFFCURVE",
"84 -5 CURVE SMOOTH",
"141 -5 OFFCURVE",
"185 35 OFFCURVE",
"185 104 CURVE SMOOTH",
"185 153 OFFCURVE",
"166 199 OFFCURVE",
"124 252 CURVE SMOOTH",
"98 284 OFFCURVE",
"68 313 OFFCURVE",
"68 344 CURVE SMOOTH",
"68 391 OFFCURVE",
"109 433 OFFCURVE",
"157 433 CURVE SMOOTH",
"174 433 OFFCURVE",
"189 423 OFFCURVE",
"189 392 CURVE SMOOTH",
"189 364 OFFCURVE",
"184 336 OFFCURVE",
"213 335 CURVE SMOOTH",
"239 335 OFFCURVE",
"248 362 OFFCURVE",
"248 392 CURVE SMOOTH",
"248 467 OFFCURVE",
"204 492 OFFCURVE",
"162 492 CURVE SMOOTH"
);
}
);
width = 341;
}
);
leftKerningGroup = s;
rightKerningGroup = s;
unicode = 0073;
},
{
glyphname = sacute;
lastChange = "2016-10-31 14:32:31 +0000";
layers = (
{
associatedMasterId = "2B556C7D-ACF4-4058-9F01-0A4D9389EAED";
layerId = "CF75745A-F4B7-49E8-A3AE-F9FF35BAC58C";
name = "Regular Oct 13 16, 22:30";
paths = (
{
closed = 1;
nodes = (
"71 320 OFFCURVE",
"21 320 OFFCURVE",
"21 341 CURVE SMOOTH",
"21 348 OFFCURVE",
"69 366 OFFCURVE",
"71 340 CURVE SMOOTH",
"76 273 OFFCURVE",
"194 221 OFFCURVE",
"203 109 CURVE SMOOTH",
"209 31 OFFCURVE",
"164 -14 OFFCURVE",
"103 -14 CURVE SMOOTH",
"61 -14 OFFCURVE",
"20 24 OFFCURVE",
"27 91 CURVE SMOOTH",
"34 154 OFFCURVE",
"85 245 OFFCURVE",
"316 294 CURVE SMOOTH",
"351 301 OFFCURVE",
"363 245 OFFCURVE",
"323 238 CURVE SMOOTH",
"121 203 OFFCURVE",
"61 98 OFFCURVE",
"83 55 CURVE SMOOTH",
"97 28 OFFCURVE",
"132 30 OFFCURVE",
"141 68 CURVE SMOOTH",
"168 185 OFFCURVE",
"12 235 OFFCURVE",
"10 338 CURVE SMOOTH",
"9 422 OFFCURVE",
"96 501 OFFCURVE",
"171 491 CURVE SMOOTH",
"224 484 OFFCURVE",
"255 441 OFFCURVE",
"239 372 CURVE SMOOTH",
"230 333 OFFCURVE",
"177 329 OFFCURVE",
"183 367 CURVE SMOOTH",
"194 439 OFFCURVE",
"160 438 OFFCURVE",
"132 427 CURVE SMOOTH",
"95 412 OFFCURVE",
"71 365 OFFCURVE",
"71 338 CURVE SMOOTH"
);
},
{
closed = 1;
nodes = (
"148 674 OFFCURVE",
"135 622 OFFCURVE",
"126 585 CURVE SMOOTH",
"115 541 OFFCURVE",
"168 528 OFFCURVE",
"181 569 CURVE SMOOTH",
"198 624 OFFCURVE",
"210 660 OFFCURVE",
"219 694 CURVE SMOOTH",
"231 738 OFFCURVE",
"173 757 OFFCURVE",
"159 710 CURVE SMOOTH"
);
}
);
width = 318;
},
{
layerId = "2B556C7D-ACF4-4058-9F01-0A4D9389EAED";
leftMetricsKey = s;
rightMetricsKey = s;
name = Regular;
paths = (
{
closed = 1;
nodes = (
"75 492 OFFCURVE",
"8 422 OFFCURVE",
"8 343 CURVE SMOOTH",
"10 254 OFFCURVE",
"125 202 OFFCURVE",
"125 99 CURVE SMOOTH",
"125 84 OFFCURVE",
"118 55 OFFCURVE",
"91 55 CURVE SMOOTH",
"70 55 OFFCURVE",
"60 72 OFFCURVE",
"60 91 CURVE SMOOTH",
"60 119 OFFCURVE",
"86 154 OFFCURVE",
"148 186 CURVE SMOOTH",
"187 208 OFFCURVE",
"241 227 OFFCURVE",
"312 238 CURVE SMOOTH",
"357 245 OFFCURVE",
"345 302 OFFCURVE",
"305 296 CURVE SMOOTH",
"222 283 OFFCURVE",
"162 260 OFFCURVE",
"119 237 CURVE SMOOTH",
"14 185 OFFCURVE",
"0 121 OFFCURVE",
"0 92 CURVE SMOOTH",
"0 34 OFFCURVE",
"43 1 OFFCURVE",
"84 1 CURVE SMOOTH",
"141 1 OFFCURVE",
"185 41 OFFCURVE",
"185 110 CURVE SMOOTH",
"185 159 OFFCURVE",
"166 199 OFFCURVE",
"124 252 CURVE SMOOTH",
"98 284 OFFCURVE",
"68 313 OFFCURVE",
"68 344 CURVE SMOOTH",
"68 391 OFFCURVE",
"109 433 OFFCURVE",
"157 433 CURVE SMOOTH",
"174 433 OFFCURVE",
"189 423 OFFCURVE",
"189 392 CURVE SMOOTH",
"189 364 OFFCURVE",
"184 336 OFFCURVE",
"213 335 CURVE SMOOTH",
"239 335 OFFCURVE",
"248 362 OFFCURVE",
"248 392 CURVE SMOOTH",
"248 467 OFFCURVE",
"204 492 OFFCURVE",
"162 492 CURVE SMOOTH"
);
},
{
closed = 1;
nodes = (
"199 708 OFFCURVE",
"184 702 OFFCURVE",
"175 684 CURVE SMOOTH",
"157 645 OFFCURVE",
"147 621 OFFCURVE",
"132 586 CURVE SMOOTH",
"121 562 OFFCURVE",
"132 545 OFFCURVE",
"148 542 CURVE SMOOTH",
"160 540 OFFCURVE",
"176 546 OFFCURVE",
"184 562 CURVE SMOOTH",
"211 613 OFFCURVE",
"216 627 OFFCURVE",
"231 659 CURVE SMOOTH",
"242 683 OFFCURVE",
"231 703 OFFCURVE",
"212 706 CURVE SMOOTH"
);
}
);
width = 341;
}
);
leftKerningGroup = s;
leftMetricsKey = s;
rightKerningGroup = s;
rightMetricsKey = s;
unicode = 015B;
},
{
glyphname = t;
lastChange = "2016-11-01 11:33:36 +0000";
layers = (
{
layerId = "2B556C7D-ACF4-4058-9F01-0A4D9389EAED";
name = Regular;
paths = (
{
closed = 1;
nodes = (
"73 523 OFFCURVE",
"14 261 OFFCURVE",
"14 98 CURVE SMOOTH",
"14 42 OFFCURVE",
"40 -7 OFFCURVE",
"102 -7 CURVE SMOOTH",
"151 -7 OFFCURVE",
"237 17 OFFCURVE",
"349 241 CURVE SMOOTH",
"365 273 OFFCURVE",
"350 291 OFFCURVE",
"332 291 CURVE SMOOTH",
"320 291 OFFCURVE",
"309 282 OFFCURVE",
"303 271 CURVE SMOOTH",
"204 83 OFFCURVE",
"135 48 OFFCURVE",
"112 48 CURVE SMOOTH",
"85 48 OFFCURVE",
"76 68 OFFCURVE",
"76 112 CURVE SMOOTH",
"76 225 OFFCURVE",
"121 435 OFFCURVE",
"161 599 CURVE SMOOTH",
"175 657 OFFCURVE",
"114 659 OFFCURVE",
"103 623 CURVE SMOOTH"
);
},
{
closed = 1;
nodes = (
"159 477 OFFCURVE",
"75 476 OFFCURVE",
"22 472 CURVE SMOOTH",
"7 471 OFFCURVE",
"0 456 OFFCURVE",
"0 446 CURVE SMOOTH",
"0 435 OFFCURVE",
"7 418 OFFCURVE",
"36 418 CURVE SMOOTH",
"72 418 OFFCURVE",
"150 420 OFFCURVE",
"254 425 CURVE SMOOTH",
"279 426 OFFCURVE",
"287 443 OFFCURVE",
"287 453 CURVE SMOOTH",
"287 472 OFFCURVE",
"274 482 OFFCURVE",
"251 481 CURVE SMOOTH"
);
}
);
width = 356;
}
);
leftKerningGroup = t;
rightKerningGroup = t;
unicode = 0074;
},
{
glyphname = u;
lastChange = "2016-10-31 14:32:31 +0000";
layers = (
{
layerId = "2B556C7D-ACF4-4058-9F01-0A4D9389EAED";
name = Regular;
paths = (
{
closed = 1;
nodes = (
"306 488 OFFCURVE",
"288 478 OFFCURVE",
"277 441 CURVE SMOOTH",
"197 179 OFFCURVE",
"125 57 OFFCURVE",
"90 57 CURVE SMOOTH",
"73 57 OFFCURVE",
"61 81 OFFCURVE",
"61 128 CURVE SMOOTH",
"61 189 OFFCURVE",
"78 281 OFFCURVE",
"117 442 CURVE SMOOTH",
"130 495 OFFCURVE",
"71 504 OFFCURVE",
"59 463 CURVE SMOOTH",
"32 373 OFFCURVE",
"1 223 OFFCURVE",
"0 133 CURVE SMOOTH",
"0 58 OFFCURVE",
"18 2 OFFCURVE",
"87 2 CURVE SMOOTH",
"164 2 OFFCURVE",
"216 102 OFFCURVE",
"264 233 CURVE",
"252 236 LINE",
"247 199 OFFCURVE",
"244 164 OFFCURVE",
"244 132 CURVE SMOOTH",
"244 55 OFFCURVE",
"263 0 OFFCURVE",
"321 0 CURVE SMOOTH",
"373 0 OFFCURVE",
"459 40 OFFCURVE",
"544 238 CURVE SMOOTH",
"554 269 OFFCURVE",
"537 283 OFFCURVE",
"520 283 CURVE SMOOTH",
"506 283 OFFCURVE",
"495 273 OFFCURVE",
"489 259 CURVE SMOOTH",
"429 122 OFFCURVE",
"359 55 OFFCURVE",
"326 55 CURVE SMOOTH",
"311 55 OFFCURVE",
"304 84 OFFCURVE",
"304 133 CURVE SMOOTH",
"304 205 OFFCURVE",
"320 316 OFFCURVE",
"349 429 CURVE SMOOTH",
"360 470 OFFCURVE",
"343 488 OFFCURVE",
"323 488 CURVE SMOOTH"
);
}
);
width = 547;
}
);
leftKerningGroup = l;
rightKerningGroup = u;
unicode = 0075;
},
{
glyphname = v;
lastChange = "2016-11-01 11:33:42 +0000";
layers = (
{
layerId = "2B556C7D-ACF4-4058-9F01-0A4D9389EAED";
name = Regular;
paths = (
{
closed = 1;
nodes = (
"227 580 OFFCURVE",
"202 574 OFFCURVE",
"178 544 CURVE SMOOTH",
"161 523 OFFCURVE",
"144 480 OFFCURVE",
"144 436 CURVE SMOOTH",
"144 319 OFFCURVE",
"221 261 OFFCURVE",
"287 261 CURVE SMOOTH",
"347 261 OFFCURVE",
"396 266 OFFCURVE",
"427 275 CURVE SMOOTH",
"470 287 OFFCURVE",
"453 337 OFFCURVE",
"412 330 CURVE SMOOTH",
"384 326 OFFCURVE",
"345 319 OFFCURVE",
"308 319 CURVE SMOOTH",
"237 319 OFFCURVE",
"204 362 OFFCURVE",
"204 439 CURVE SMOOTH",
"204 482 OFFCURVE",
"224 525 OFFCURVE",
"247 525 CURVE SMOOTH",
"299 525 OFFCURVE",
"276 378 OFFCURVE",
"231 255 CURVE SMOOTH",
"192 151 OFFCURVE",
"132 54 OFFCURVE",
"99 54 CURVE SMOOTH",
"77 54 OFFCURVE",
"61 104 OFFCURVE",
"61 184 CURVE SMOOTH",
"61 252 OFFCURVE",
"73 343 OFFCURVE",
"101 450 CURVE SMOOTH",
"108 476 OFFCURVE",
"91 493 OFFCURVE",
"73 493 CURVE SMOOTH",
"62 493 OFFCURVE",
"51 487 OFFCURVE",
"45 472 CURVE SMOOTH",
"22 420 OFFCURVE",
"0 305 OFFCURVE",
"0 201 CURVE SMOOTH",
"0 94 OFFCURVE",
"24 0 OFFCURVE",
"93 0 CURVE SMOOTH",
"161 0 OFFCURVE",
"230 93 OFFCURVE",
"277 206 CURVE SMOOTH",
"313 293 OFFCURVE",
"336 391 OFFCURVE",
"336 468 CURVE SMOOTH",
"336 528 OFFCURVE",
"304 580 OFFCURVE",
"249 580 CURVE SMOOTH"
);
}
);
width = 452;
}
);
leftKerningGroup = v;
rightKerningGroup = v;
unicode = 0076;
},
{
glyphname = w;
lastChange = "2016-11-01 11:33:45 +0000";
layers = (
{
layerId = "2B556C7D-ACF4-4058-9F01-0A4D9389EAED";
name = Regular;
paths = (
{
closed = 1;
nodes = (
"436 553 OFFCURVE",
"411 547 OFFCURVE",
"387 517 CURVE SMOOTH",
"370 496 OFFCURVE",
"353 453 OFFCURVE",
"353 409 CURVE SMOOTH",
"353 300 OFFCURVE",
"439 259 OFFCURVE",
"506 259 CURVE SMOOTH",
"556 259 OFFCURVE",
"602 264 OFFCURVE",
"633 273 CURVE SMOOTH",
"674 284 OFFCURVE",
"660 335 OFFCURVE",
"621 328 CURVE SMOOTH",
"593 324 OFFCURVE",
"554 317 OFFCURVE",
"517 317 CURVE SMOOTH",
"461 317 OFFCURVE",
"413 340 OFFCURVE",
"413 412 CURVE SMOOTH",
"413 455 OFFCURVE",
"433 498 OFFCURVE",
"456 498 CURVE SMOOTH",
"508 498 OFFCURVE",
"485 357 OFFCURVE",
"438 228 CURVE SMOOTH",
"401 128 OFFCURVE",
"343 54 OFFCURVE",
"310 54 CURVE SMOOTH",
"288 54 OFFCURVE",
"272 104 OFFCURVE",
"272 184 CURVE SMOOTH",
"272 250 OFFCURVE",
"284 339 OFFCURVE",
"312 443 CURVE SMOOTH",
"319 469 OFFCURVE",
"302 486 OFFCURVE",
"284 486 CURVE SMOOTH",
"273 486 OFFCURVE",
"262 480 OFFCURVE",
"256 465 CURVE SMOOTH",
"249 447 OFFCURVE",
"234 396 OFFCURVE",
"228 365 CURVE SMOOTH",
"205 240 OFFCURVE",
"132 55 OFFCURVE",
"90 55 CURVE SMOOTH",
"77 55 OFFCURVE",
"59 76 OFFCURVE",
"59 144 CURVE SMOOTH",
"59 234 OFFCURVE",
"89 360 OFFCURVE",
"117 449 CURVE SMOOTH",
"125 475 OFFCURVE",
"108 493 OFFCURVE",
"89 493 CURVE SMOOTH",
"78 493 OFFCURVE",
"66 486 OFFCURVE",
"60 469 CURVE SMOOTH",
"41 415 OFFCURVE",
"0 270 OFFCURVE",
"0 153 CURVE SMOOTH",
"0 83 OFFCURVE",
"19 4 OFFCURVE",
"83 1 CURVE SMOOTH",
"105 0 OFFCURVE",
"183 6 OFFCURVE",
"234 201 CURVE",
"213 185 LINE",
"217 84 OFFCURVE",
"239 0 OFFCURVE",
"304 0 CURVE SMOOTH",
"372 0 OFFCURVE",
"439 70 OFFCURVE",
"494 204 CURVE SMOOTH",
"522 273 OFFCURVE",
"545 367 OFFCURVE",
"545 441 CURVE SMOOTH",
"545 501 OFFCURVE",
"513 553 OFFCURVE",
"458 553 CURVE SMOOTH"
);
}
);
width = 658;
}
);
leftKerningGroup = v;
rightKerningGroup = w;
unicode = 0077;
},
{
glyphname = x;
lastChange = "2016-11-01 11:33:49 +0000";
layers = (
{
layerId = "2B556C7D-ACF4-4058-9F01-0A4D9389EAED";
name = Regular;
paths = (
{
closed = 1;
nodes = (
"337 487 OFFCURVE",
"325 482 OFFCURVE",
"316 471 CURVE SMOOTH",
"259 402 OFFCURVE",
"193 313 OFFCURVE",
"144 246 CURVE",
"165 246 LINE",
"130 305 OFFCURVE",
"99 373 OFFCURVE",
"61 444 CURVE SMOOTH",
"52 462 OFFCURVE",
"39 466 OFFCURVE",
"27 466 CURVE SMOOTH",
"8 466 OFFCURVE",
"-10 446 OFFCURVE",
"3 415 CURVE SMOOTH",
"22 367 OFFCURVE",
"78 268 OFFCURVE",
"124 189 CURVE",
"125 224 LINE",
"80 165 OFFCURVE",
"30 91 OFFCURVE",
"9 58 CURVE SMOOTH",
"-11 28 OFFCURVE",
"5 1 OFFCURVE",
"26 1 CURVE SMOOTH",
"37 1 OFFCURVE",
"51 5 OFFCURVE",
"61 21 CURVE SMOOTH",
"94 71 OFFCURVE",
"128 123 OFFCURVE",
"159 164 CURVE",
"138 166 LINE",
"180 96 OFFCURVE",
"215 38 OFFCURVE",
"231 17 CURVE SMOOTH",
"238 6 OFFCURVE",
"249 1 OFFCURVE",
"258 1 CURVE SMOOTH",
"280 1 OFFCURVE",
"302 26 OFFCURVE",
"281 56 CURVE SMOOTH",
"268 76 OFFCURVE",
"222 147 OFFCURVE",
"175 226 CURVE",
"176 184 LINE",
"244 277 OFFCURVE",
"307 356 OFFCURVE",
"364 427 CURVE SMOOTH",
"391 459 OFFCURVE",
"370 487 OFFCURVE",
"347 487 CURVE SMOOTH"
);
}
);
width = 375;
}
);
leftKerningGroup = x;
rightKerningGroup = x;
unicode = 0078;
},
{
glyphname = y;
lastChange = "2016-10-31 14:32:31 +0000";
layers = (
{
annotations = (
{
position = "{150, 253}";
type = Plus;
},
{
position = "{270, -83}";
type = Plus;
},
{
position = "{-132, 78}";
type = Plus;
},
{
position = "{-90.125, 69.555}";
type = Plus;
},
{
position = "{-67, 87}";
type = Plus;
},
{
position = "{-130, 625}";
type = Plus;
}
);
associatedMasterId = "2B556C7D-ACF4-4058-9F01-0A4D9389EAED";
layerId = "720FBB84-C4D7-46E0-8C58-BC0C6FB09245";
name = "Regular Oct 17 16, 22:26";
paths = (
{
closed = 1;
nodes = (
"189 136 OFFCURVE",
"110 55 OFFCURVE",
"85 55 CURVE SMOOTH",
"65 55 OFFCURVE",
"60 74 OFFCURVE",
"60 122 CURVE SMOOTH",
"60 187 OFFCURVE",
"78 296 OFFCURVE",
"114 439 CURVE SMOOTH",
"121 471 OFFCURVE",
"106 485 OFFCURVE",
"89 485 CURVE SMOOTH",
"75 485 OFFCURVE",
"61 476 OFFCURVE",
"56 461 CURVE SMOOTH",
"29 384 OFFCURVE",
"0 219 OFFCURVE",
"0 118 CURVE SMOOTH",
"0 54 OFFCURVE",
"11 1 OFFCURVE",
"78 1 CURVE SMOOTH",
"151 1 OFFCURVE",
"206 108 OFFCURVE",
"231 196 CURVE",
"221 200 LINE",
"199 76 OFFCURVE",
"169 -62 OFFCURVE",
"158 -111 CURVE SMOOTH",
"151 -145 OFFCURVE",
"133 -184 OFFCURVE",
"107 -184 CURVE SMOOTH",
"93 -184 OFFCURVE",
"76 -176 OFFCURVE",
"76 -150 CURVE SMOOTH",
"76 -136 OFFCURVE",
"82 -116 OFFCURVE",
"107 -99 CURVE SMOOTH",
"149 -71 OFFCURVE",
"201 -65 OFFCURVE",
"288 -81 CURVE SMOOTH",
"320 -87 OFFCURVE",
"338 -43 OFFCURVE",
"295 -30 CURVE SMOOTH",
"271 -22 OFFCURVE",
"240 -18 OFFCURVE",
"208 -18 CURVE SMOOTH",
"121 -18 OFFCURVE",
"15 -61 OFFCURVE",
"15 -153 CURVE SMOOTH",
"15 -203 OFFCURVE",
"54 -238 OFFCURVE",
"101 -238 CURVE SMOOTH",
"166 -238 OFFCURVE",
"200 -196 OFFCURVE",
"217 -117 CURVE SMOOTH",
"230 -57 OFFCURVE",
"298 287 OFFCURVE",
"328 444 CURVE SMOOTH",
"335 475 OFFCURVE",
"321 491 OFFCURVE",
"303 491 CURVE SMOOTH",
"293 491 OFFCURVE",
"275 482 OFFCURVE",
"267 450 CURVE SMOOTH"
);
}
);
width = 454;
},
{
annotations = (
{
position = "{150, 253}";
type = Plus;
},
{
position = "{270, -83}";
type = Plus;
},
{
position = "{-132, 78}";
type = Plus;
},
{
position = "{-90.125, 69.555}";
type = Plus;
},
{
position = "{-67, 87}";
type = Plus;
},
{
position = "{-130, 625}";
type = Plus;
}
);
layerId = "2B556C7D-ACF4-4058-9F01-0A4D9389EAED";
name = Regular;
paths = (
{
closed = 1;
nodes = (
"293 491 OFFCURVE",
"275 482 OFFCURVE",
"267 450 CURVE SMOOTH",
"189 136 OFFCURVE",
"110 55 OFFCURVE",
"85 55 CURVE SMOOTH",
"65 55 OFFCURVE",
"60 74 OFFCURVE",
"60 122 CURVE SMOOTH",
"60 187 OFFCURVE",
"78 296 OFFCURVE",
"114 439 CURVE SMOOTH",
"121 471 OFFCURVE",
"106 485 OFFCURVE",
"89 485 CURVE SMOOTH",
"75 485 OFFCURVE",
"61 476 OFFCURVE",
"56 461 CURVE SMOOTH",
"29 384 OFFCURVE",
"0 219 OFFCURVE",
"0 118 CURVE SMOOTH",
"0 54 OFFCURVE",
"11 1 OFFCURVE",
"78 1 CURVE SMOOTH",
"151 1 OFFCURVE",
"206 108 OFFCURVE",
"231 196 CURVE",
"221 200 LINE",
"199 76 OFFCURVE",
"167 -77 OFFCURVE",
"156 -126 CURVE SMOOTH",
"149 -160 OFFCURVE",
"132 -197 OFFCURVE",
"102 -197 CURVE SMOOTH",
"92 -197 OFFCURVE",
"74 -191 OFFCURVE",
"74 -160 CURVE SMOOTH",
"74 -107 OFFCURVE",
"124 -51 OFFCURVE",
"214 -51 CURVE SMOOTH",
"232 -51 OFFCURVE",
"262 -56 OFFCURVE",
"266 -56 CURVE SMOOTH",
"285 -56 OFFCURVE",
"296 -43 OFFCURVE",
"296 -31 CURVE SMOOTH",
"296 -4 OFFCURVE",
"251 0 OFFCURVE",
"218 0 CURVE SMOOTH",
"127 0 OFFCURVE",
"15 -43 OFFCURVE",
"15 -167 CURVE SMOOTH",
"15 -217 OFFCURVE",
"48 -254 OFFCURVE",
"99 -254 CURVE SMOOTH",
"164 -254 OFFCURVE",
"198 -211 OFFCURVE",
"215 -132 CURVE SMOOTH",
"228 -72 OFFCURVE",
"298 287 OFFCURVE",
"328 444 CURVE SMOOTH",
"335 475 OFFCURVE",
"321 491 OFFCURVE",
"303 491 CURVE SMOOTH"
);
}
);
width = 330;
}
);
leftKerningGroup = l;
rightKerningGroup = y;
unicode = 0079;
},
{
glyphname = z;
lastChange = "2016-11-01 11:33:54 +0000";
layers = (
{
layerId = "2B556C7D-ACF4-4058-9F01-0A4D9389EAED";
name = Regular;
paths = (
{
closed = 1;
nodes = (
"93 489 OFFCURVE",
"81 470 OFFCURVE",
"81 445 CURVE SMOOTH",
"81 375 OFFCURVE",
"152 354 OFFCURVE",
"212 354 CURVE SMOOTH",
"233 354 OFFCURVE",
"290 361 OFFCURVE",
"322 390 CURVE",
"311 402 LINE",
"278 342 OFFCURVE",
"250 286 OFFCURVE",
"202 202 CURVE SMOOTH",
"155 120 OFFCURVE",
"114 54 OFFCURVE",
"88 54 CURVE SMOOTH",
"70 54 OFFCURVE",
"57 69 OFFCURVE",
"58 96 CURVE SMOOTH",
"59 128 OFFCURVE",
"73 149 OFFCURVE",
"92 149 CURVE SMOOTH",
"134 149 OFFCURVE",
"222 0 OFFCURVE",
"341 0 CURVE SMOOTH",
"434 0 OFFCURVE",
"492 87 OFFCURVE",
"530 192 CURVE SMOOTH",
"551 251 OFFCURVE",
"495 255 OFFCURVE",
"482 224 CURVE SMOOTH",
"414 61 OFFCURVE",
"360 57 OFFCURVE",
"339 57 CURVE SMOOTH",
"274 57 OFFCURVE",
"162 204 OFFCURVE",
"92 204 CURVE SMOOTH",
"36 204 OFFCURVE",
"0 160 OFFCURVE",
"0 91 CURVE SMOOTH",
"0 26 OFFCURVE",
"39 0 OFFCURVE",
"82 0 CURVE SMOOTH",
"115 0 OFFCURVE",
"149 9 OFFCURVE",
"208 104 CURVE SMOOTH",
"260 188 OFFCURVE",
"371 379 OFFCURVE",
"401 432 CURVE SMOOTH",
"426 475 OFFCURVE",
"383 496 OFFCURVE",
"354 472 CURVE SMOOTH",
"296 424 OFFCURVE",
"247 412 OFFCURVE",
"216 412 CURVE SMOOTH",
"190 412 OFFCURVE",
"141 417 OFFCURVE",
"141 459 CURVE SMOOTH",
"141 475 OFFCURVE",
"130 489 OFFCURVE",
"115 489 CURVE SMOOTH"
);
}
);
width = 535;
}
);
leftKerningGroup = z;
rightKerningGroup = z;
unicode = 007A;
},
{
glyphname = zacute;
lastChange = "2016-11-01 11:24:57 +0000";
layers = (
{
layerId = "2B556C7D-ACF4-4058-9F01-0A4D9389EAED";
leftMetricsKey = z;
name = Regular;
paths = (
{
closed = 1;
nodes = (
"93 489 OFFCURVE",
"81 470 OFFCURVE",
"81 445 CURVE SMOOTH",
"81 375 OFFCURVE",
"152 354 OFFCURVE",
"212 354 CURVE SMOOTH",
"233 354 OFFCURVE",
"290 361 OFFCURVE",
"322 390 CURVE",
"311 402 LINE",
"278 342 OFFCURVE",
"250 286 OFFCURVE",
"202 202 CURVE SMOOTH",
"155 120 OFFCURVE",
"114 54 OFFCURVE",
"88 54 CURVE SMOOTH",
"70 54 OFFCURVE",
"57 69 OFFCURVE",
"58 96 CURVE SMOOTH",
"59 128 OFFCURVE",
"73 149 OFFCURVE",
"92 149 CURVE SMOOTH",
"134 149 OFFCURVE",
"222 0 OFFCURVE",
"341 0 CURVE SMOOTH",
"434 0 OFFCURVE",
"492 87 OFFCURVE",
"530 192 CURVE SMOOTH",
"551 251 OFFCURVE",
"495 255 OFFCURVE",
"482 224 CURVE SMOOTH",
"414 61 OFFCURVE",
"360 57 OFFCURVE",
"339 57 CURVE SMOOTH",
"274 57 OFFCURVE",
"162 204 OFFCURVE",
"92 204 CURVE SMOOTH",
"36 204 OFFCURVE",
"0 160 OFFCURVE",
"0 91 CURVE SMOOTH",
"0 26 OFFCURVE",
"39 0 OFFCURVE",
"82 0 CURVE SMOOTH",
"115 0 OFFCURVE",
"149 9 OFFCURVE",
"208 104 CURVE SMOOTH",
"260 188 OFFCURVE",
"371 379 OFFCURVE",
"401 432 CURVE SMOOTH",
"426 475 OFFCURVE",
"383 496 OFFCURVE",
"354 472 CURVE SMOOTH",
"296 424 OFFCURVE",
"247 412 OFFCURVE",
"216 412 CURVE SMOOTH",
"190 412 OFFCURVE",
"141 417 OFFCURVE",
"141 459 CURVE SMOOTH",
"141 475 OFFCURVE",
"130 489 OFFCURVE",
"115 489 CURVE SMOOTH"
);
},
{
closed = 1;
nodes = (
"291 685 OFFCURVE",
"276 679 OFFCURVE",
"267 661 CURVE SMOOTH",
"249 622 OFFCURVE",
"239 598 OFFCURVE",
"224 563 CURVE SMOOTH",
"213 539 OFFCURVE",
"224 522 OFFCURVE",
"240 519 CURVE SMOOTH",
"252 517 OFFCURVE",
"268 523 OFFCURVE",
"276 539 CURVE SMOOTH",
"303 590 OFFCURVE",
"308 604 OFFCURVE",
"323 636 CURVE SMOOTH",
"334 660 OFFCURVE",
"323 680 OFFCURVE",
"304 683 CURVE SMOOTH"
);
}
);
width = 535;
}
);
leftKerningGroup = z;
leftMetricsKey = z;
rightKerningGroup = z;
unicode = 017A;
},
{
glyphname = zdotaccent;
lastChange = "2016-10-31 14:32:31 +0000";
layers = (
{
annotations = (
{
position = "{-590.774, 380.392}";
type = Plus;
}
);
layerId = "2B556C7D-ACF4-4058-9F01-0A4D9389EAED";
leftMetricsKey = z;
name = Regular;
paths = (
{
closed = 1;
nodes = (
"93 489 OFFCURVE",
"81 470 OFFCURVE",
"81 445 CURVE SMOOTH",
"81 375 OFFCURVE",
"152 354 OFFCURVE",
"212 354 CURVE SMOOTH",
"233 354 OFFCURVE",
"290 361 OFFCURVE",
"322 390 CURVE",
"311 402 LINE",
"278 342 OFFCURVE",
"250 286 OFFCURVE",
"202 202 CURVE SMOOTH",
"155 120 OFFCURVE",
"114 54 OFFCURVE",
"88 54 CURVE SMOOTH",
"70 54 OFFCURVE",
"57 69 OFFCURVE",
"58 96 CURVE SMOOTH",
"59 128 OFFCURVE",
"73 149 OFFCURVE",
"92 149 CURVE SMOOTH",
"134 149 OFFCURVE",
"222 0 OFFCURVE",
"341 0 CURVE SMOOTH",
"434 0 OFFCURVE",
"492 87 OFFCURVE",
"530 192 CURVE SMOOTH",
"551 251 OFFCURVE",
"495 255 OFFCURVE",
"482 224 CURVE SMOOTH",
"414 61 OFFCURVE",
"360 57 OFFCURVE",
"339 57 CURVE SMOOTH",
"274 57 OFFCURVE",
"162 204 OFFCURVE",
"92 204 CURVE SMOOTH",
"36 204 OFFCURVE",
"0 160 OFFCURVE",
"0 91 CURVE SMOOTH",
"0 26 OFFCURVE",
"39 0 OFFCURVE",
"82 0 CURVE SMOOTH",
"115 0 OFFCURVE",
"149 9 OFFCURVE",
"208 104 CURVE SMOOTH",
"260 188 OFFCURVE",
"371 379 OFFCURVE",
"401 432 CURVE SMOOTH",
"426 475 OFFCURVE",
"383 496 OFFCURVE",
"354 472 CURVE SMOOTH",
"296 424 OFFCURVE",
"247 412 OFFCURVE",
"216 412 CURVE SMOOTH",
"190 412 OFFCURVE",
"141 417 OFFCURVE",
"141 459 CURVE SMOOTH",
"141 475 OFFCURVE",
"130 489 OFFCURVE",
"115 489 CURVE SMOOTH"
);
},
{
closed = 1;
nodes = (
"208 655 OFFCURVE",
"180 621 OFFCURVE",
"180 580 CURVE SMOOTH",
"180 532 OFFCURVE",
"212 508 OFFCURVE",
"249 508 CURVE SMOOTH",
"285 508 OFFCURVE",
"326 534 OFFCURVE",
"326 584 CURVE SMOOTH",
"326 621 OFFCURVE",
"300 655 OFFCURVE",
"252 655 CURVE SMOOTH"
);
},
{
closed = 1;
nodes = (
"269 611 OFFCURVE",
"279 599 OFFCURVE",
"279 583 CURVE SMOOTH",
"279 565 OFFCURVE",
"265 555 OFFCURVE",
"252 555 CURVE SMOOTH",
"232 555 OFFCURVE",
"225 568 OFFCURVE",
"225 583 CURVE SMOOTH",
"225 602 OFFCURVE",
"240 611 OFFCURVE",
"252 611 CURVE SMOOTH"
);
}
);
width = 535;
}
);
leftKerningGroup = z;
leftMetricsKey = z;
rightKerningGroup = z;
unicode = 017C;
},
{
glyphname = C_z.liga;
lastChange = "2016-11-01 11:13:17 +0000";
layers = (
{
layerId = "2B556C7D-ACF4-4058-9F01-0A4D9389EAED";
name = Regular;
paths = (
{
closed = 1;
nodes = (
"77 688 OFFCURVE",
"0 419 OFFCURVE",
"0 227 CURVE SMOOTH",
"0 134 OFFCURVE",
"22 -4 OFFCURVE",
"158 -4 CURVE SMOOTH",
"307 -4 OFFCURVE",
"427 214 OFFCURVE",
"519 422 CURVE SMOOTH",
"537 462 OFFCURVE",
"489 500 OFFCURVE",
"473 461 CURVE SMOOTH",
"381 240 OFFCURVE",
"256 53 OFFCURVE",
"159 53 CURVE SMOOTH",
"76 53 OFFCURVE",
"64 162 OFFCURVE",
"64 244 CURVE SMOOTH",
"64 446 OFFCURVE",
"146 631 OFFCURVE",
"256 631 CURVE SMOOTH",
"303 631 OFFCURVE",
"336 559 OFFCURVE",
"304 448 CURVE SMOOTH",
"291 404 OFFCURVE",
"351 396 OFFCURVE",
"365 436 CURVE SMOOTH",
"401 538 OFFCURVE",
"378 690 OFFCURVE",
"253 689 CURVE SMOOTH"
);
},
{
closed = 1;
nodes = (
"484 489 OFFCURVE",
"471 470 OFFCURVE",
"471 445 CURVE SMOOTH",
"471 375 OFFCURVE",
"544 354 OFFCURVE",
"604 354 CURVE SMOOTH",
"625 354 OFFCURVE",
"703 361 OFFCURVE",
"735 390 CURVE",
"724 402 LINE",
"691 342 OFFCURVE",
"663 286 OFFCURVE",
"615 202 CURVE SMOOTH",
"568 120 OFFCURVE",
"527 54 OFFCURVE",
"501 54 CURVE SMOOTH",
"483 54 OFFCURVE",
"470 69 OFFCURVE",
"471 96 CURVE SMOOTH",
"472 128 OFFCURVE",
"486 149 OFFCURVE",
"505 149 CURVE SMOOTH",
"547 149 OFFCURVE",
"635 0 OFFCURVE",
"754 0 CURVE SMOOTH",
"847 0 OFFCURVE",
"905 87 OFFCURVE",
"943 192 CURVE SMOOTH",
"964 251 OFFCURVE",
"908 255 OFFCURVE",
"895 224 CURVE SMOOTH",
"827 61 OFFCURVE",
"780 57 OFFCURVE",
"752 57 CURVE SMOOTH",
"687 57 OFFCURVE",
"575 204 OFFCURVE",
"505 204 CURVE SMOOTH",
"449 204 OFFCURVE",
"413 160 OFFCURVE",
"413 91 CURVE SMOOTH",
"413 26 OFFCURVE",
"452 0 OFFCURVE",
"495 0 CURVE SMOOTH",
"528 0 OFFCURVE",
"562 9 OFFCURVE",
"621 104 CURVE SMOOTH",
"673 188 OFFCURVE",
"784 379 OFFCURVE",
"814 432 CURVE SMOOTH",
"839 475 OFFCURVE",
"796 496 OFFCURVE",
"767 472 CURVE SMOOTH",
"709 424 OFFCURVE",
"639 412 OFFCURVE",
"608 412 CURVE SMOOTH",
"582 412 OFFCURVE",
"533 417 OFFCURVE",
"533 459 CURVE SMOOTH",
"533 475 OFFCURVE",
"521 489 OFFCURVE",
"506 489 CURVE SMOOTH"
);
}
);
width = 992;
}
);
leftMetricsKey = C;
rightMetricsKey = z;
},
{
glyphname = F_i.liga;
lastChange = "2016-10-31 14:32:31 +0000";
layers = (
{
associatedMasterId = "2B556C7D-ACF4-4058-9F01-0A4D9389EAED";
layerId = "90844E85-D492-4C90-BC00-74B8EB5FDDE3";
name = "Regular Oct 16 16, 22:58";
paths = (
{
closed = 1;
nodes = (
"363 461 OFFCURVE",
"339 300 OFFCURVE",
"285 42 CURVE SMOOTH",
"279 14 OFFCURVE",
"297 1 OFFCURVE",
"315 1 CURVE SMOOTH",
"328 1 OFFCURVE",
"340 9 OFFCURVE",
"346 32 CURVE SMOOTH",
"381 189 OFFCURVE",
"441 532 OFFCURVE",
"452 584 CURVE SMOOTH",
"459 615 OFFCURVE",
"403 637 OFFCURVE",
"394 596 CURVE SMOOTH"
);
},
{
closed = 1;
nodes = (
"449 255 OFFCURVE",
"345 250 OFFCURVE",
"289 246 CURVE SMOOTH",
"266 244 OFFCURVE",
"263 225 OFFCURVE",
"263 220 CURVE SMOOTH",
"263 198 OFFCURVE",
"278 191 OFFCURVE",
"304 192 CURVE SMOOTH",
"422 197 OFFCURVE",
"532 202 OFFCURVE",
"571 205 CURVE SMOOTH",
"589 207 OFFCURVE",
"599 221 OFFCURVE",
"599 235 CURVE SMOOTH",
"599 252 OFFCURVE",
"584 262 OFFCURVE",
"567 261 CURVE SMOOTH"
);
},
{
closed = 1;
nodes = (
"173 463 OFFCURVE",
"63 462 OFFCURVE",
"63 524 CURVE SMOOTH",
"63 577 OFFCURVE",
"111 604 OFFCURVE",
"193 604 CURVE SMOOTH",
"377 604 OFFCURVE",
"672 476 OFFCURVE",
"826 612 CURVE SMOOTH",
"858 640 OFFCURVE",
"819 685 OFFCURVE",
"780 651 CURVE SMOOTH",
"657 544 OFFCURVE",
"374 662 OFFCURVE",
"190 662 CURVE SMOOTH",
"93 662 OFFCURVE",
"1 631 OFFCURVE",
"0 522 CURVE SMOOTH",
"-1 385 OFFCURVE",
"183 402 OFFCURVE",
"246 446 CURVE SMOOTH",
"263 458 OFFCURVE",
"272 470 OFFCURVE",
"272 485 CURVE SMOOTH",
"272 509 OFFCURVE",
"248 518 OFFCURVE",
"224 500 CURVE SMOOTH"
);
},
{
closed = 1;
nodes = (
"784 472 OFFCURVE",
"722 485 OFFCURVE",
"708 434 CURVE SMOOTH",
"680 329 OFFCURVE",
"658 222 OFFCURVE",
"658 122 CURVE SMOOTH",
"658 61 OFFCURVE",
"679 1 OFFCURVE",
"747 1 CURVE SMOOTH",
"798 1 OFFCURVE",
"888 35 OFFCURVE",
"965 240 CURVE SMOOTH",
"976 269 OFFCURVE",
"959 285 OFFCURVE",
"944 285 CURVE SMOOTH",
"932 285 OFFCURVE",
"922 277 OFFCURVE",
"916 263 CURVE SMOOTH",
"833 74 OFFCURVE",
"775 56 OFFCURVE",
"751 56 CURVE SMOOTH",
"732 56 OFFCURVE",
"719 81 OFFCURVE",
"719 131 CURVE SMOOTH",
"719 194 OFFCURVE",
"736 300 OFFCURVE",
"769 417 CURVE SMOOTH"
);
}
);
width = 939;
},
{
layerId = "2B556C7D-ACF4-4058-9F01-0A4D9389EAED";
name = Regular;
paths = (
{
closed = 1;
nodes = (
"766 723 OFFCURVE",
"751 702 OFFCURVE",
"770 669 CURVE SMOOTH",
"777 657 OFFCURVE",
"783 631 OFFCURVE",
"766 617 CURVE SMOOTH",
"752 605 OFFCURVE",
"721 604 OFFCURVE",
"697 604 CURVE SMOOTH",
"587 604 OFFCURVE",
"342 662 OFFCURVE",
"190 662 CURVE SMOOTH",
"93 662 OFFCURVE",
"1 631 OFFCURVE",
"0 522 CURVE SMOOTH",
"-1 385 OFFCURVE",
"183 402 OFFCURVE",
"246 446 CURVE SMOOTH",
"263 458 OFFCURVE",
"272 470 OFFCURVE",
"272 485 CURVE SMOOTH",
"272 509 OFFCURVE",
"246 515 OFFCURVE",
"224 500 CURVE SMOOTH",
"172 464 OFFCURVE",
"63 462 OFFCURVE",
"63 524 CURVE SMOOTH",
"63 577 OFFCURVE",
"111 604 OFFCURVE",
"193 604 CURVE SMOOTH",
"341 604 OFFCURVE",
"573 536 OFFCURVE",
"725 543 CURVE SMOOTH",
"770 545 OFFCURVE",
"811 562 OFFCURVE",
"832 604 CURVE SMOOTH",
"846 632 OFFCURVE",
"842 683 OFFCURVE",
"818 708 CURVE SMOOTH",
"808 718 OFFCURVE",
"797 723 OFFCURVE",
"787 723 CURVE SMOOTH"
);
},
{
closed = 1;
nodes = (
"449 255 OFFCURVE",
"345 250 OFFCURVE",
"289 246 CURVE SMOOTH",
"266 244 OFFCURVE",
"263 225 OFFCURVE",
"263 220 CURVE SMOOTH",
"263 198 OFFCURVE",
"278 191 OFFCURVE",
"304 192 CURVE SMOOTH",
"422 197 OFFCURVE",
"532 202 OFFCURVE",
"571 205 CURVE SMOOTH",
"589 207 OFFCURVE",
"599 221 OFFCURVE",
"599 235 CURVE SMOOTH",
"599 252 OFFCURVE",
"584 262 OFFCURVE",
"567 261 CURVE SMOOTH"
);
},
{
closed = 1;
nodes = (
"363 461 OFFCURVE",
"339 300 OFFCURVE",
"285 42 CURVE SMOOTH",
"279 14 OFFCURVE",
"297 1 OFFCURVE",
"315 1 CURVE SMOOTH",
"328 1 OFFCURVE",
"340 9 OFFCURVE",
"346 32 CURVE SMOOTH",
"381 189 OFFCURVE",
"441 532 OFFCURVE",
"452 584 CURVE SMOOTH",
"459 615 OFFCURVE",
"403 637 OFFCURVE",
"394 596 CURVE SMOOTH"
);
},
{
closed = 1;
nodes = (
"680 329 OFFCURVE",
"658 222 OFFCURVE",
"658 122 CURVE SMOOTH",
"658 61 OFFCURVE",
"679 1 OFFCURVE",
"747 1 CURVE SMOOTH",
"798 1 OFFCURVE",
"888 35 OFFCURVE",
"965 240 CURVE SMOOTH",
"976 269 OFFCURVE",
"959 285 OFFCURVE",
"944 285 CURVE SMOOTH",
"932 285 OFFCURVE",
"922 277 OFFCURVE",
"916 263 CURVE SMOOTH",
"833 74 OFFCURVE",
"775 56 OFFCURVE",
"751 56 CURVE SMOOTH",
"732 56 OFFCURVE",
"719 81 OFFCURVE",
"719 131 CURVE SMOOTH",
"719 194 OFFCURVE",
"736 300 OFFCURVE",
"769 417 CURVE SMOOTH",
"784 472 OFFCURVE",
"722 485 OFFCURVE",
"708 434 CURVE SMOOTH"
);
}
);
width = 969;
}
);
leftMetricsKey = F;
},
{
glyphname = c_z.liga;
lastChange = "2016-11-01 11:27:51 +0000";
layers = (
{
anchors = (
{
name = bottom;
position = "{422, 0}";
},
{
name = top;
position = "{422, 500}";
}
);
layerId = "2B556C7D-ACF4-4058-9F01-0A4D9389EAED";
name = Regular;
paths = (
{
closed = 1;
nodes = (
"66 490 OFFCURVE",
"0 319 OFFCURVE",
"0 178 CURVE SMOOTH",
"0 70 OFFCURVE",
"34 -3 OFFCURVE",
"126 -3 CURVE SMOOTH",
"260 -3 OFFCURVE",
"377 220 OFFCURVE",
"454 399 CURVE",
"441 399 LINE",
"457 366 OFFCURVE",
"513 354 OFFCURVE",
"552 354 CURVE SMOOTH",
"573 354 OFFCURVE",
"630 361 OFFCURVE",
"662 390 CURVE",
"651 402 LINE",
"618 342 OFFCURVE",
"590 286 OFFCURVE",
"542 202 CURVE SMOOTH",
"495 120 OFFCURVE",
"454 54 OFFCURVE",
"428 54 CURVE SMOOTH",
"410 54 OFFCURVE",
"397 69 OFFCURVE",
"398 96 CURVE SMOOTH",
"399 128 OFFCURVE",
"413 149 OFFCURVE",
"432 149 CURVE SMOOTH",
"474 149 OFFCURVE",
"562 0 OFFCURVE",
"681 0 CURVE SMOOTH",
"774 0 OFFCURVE",
"832 87 OFFCURVE",
"870 192 CURVE SMOOTH",
"891 251 OFFCURVE",
"835 255 OFFCURVE",
"822 224 CURVE SMOOTH",
"754 61 OFFCURVE",
"700 57 OFFCURVE",
"679 57 CURVE SMOOTH",
"614 57 OFFCURVE",
"502 204 OFFCURVE",
"432 204 CURVE SMOOTH",
"376 204 OFFCURVE",
"340 160 OFFCURVE",
"340 91 CURVE SMOOTH",
"340 26 OFFCURVE",
"379 0 OFFCURVE",
"422 0 CURVE SMOOTH",
"455 0 OFFCURVE",
"489 9 OFFCURVE",
"548 104 CURVE SMOOTH",
"600 188 OFFCURVE",
"711 379 OFFCURVE",
"741 432 CURVE SMOOTH",
"766 475 OFFCURVE",
"723 496 OFFCURVE",
"694 472 CURVE SMOOTH",
"636 424 OFFCURVE",
"587 412 OFFCURVE",
"556 412 CURVE SMOOTH",
"530 412 OFFCURVE",
"481 420 OFFCURVE",
"481 459 CURVE SMOOTH",
"481 475 OFFCURVE",
"470 489 OFFCURVE",
"455 489 CURVE SMOOTH",
"433 489 OFFCURVE",
"425 471 OFFCURVE",
"417 453 CURVE SMOOTH",
"348 279 OFFCURVE",
"216 52 OFFCURVE",
"130 52 CURVE SMOOTH",
"93 52 OFFCURVE",
"61 89 OFFCURVE",
"61 172 CURVE SMOOTH",
"61 262 OFFCURVE",
"102 434 OFFCURVE",
"178 434 CURVE SMOOTH",
"227 434 OFFCURVE",
"226 366 OFFCURVE",
"214 312 CURVE SMOOTH",
"208 287 OFFCURVE",
"226 273 OFFCURVE",
"239 273 CURVE SMOOTH",
"272 273 OFFCURVE",
"283 331 OFFCURVE",
"283 371 CURVE SMOOTH",
"283 435 OFFCURVE",
"253 490 OFFCURVE",
"180 490 CURVE SMOOTH"
);
}
);
width = 875;
},
{
anchors = (
{
name = bottom;
position = "{422, 0}";
},
{
name = top;
position = "{422, 500}";
}
);
associatedMasterId = "2B556C7D-ACF4-4058-9F01-0A4D9389EAED";
layerId = "AA23A719-1019-4367-8C43-7E84B12CF3B0";
name = "Regular Oct 20 16, 15:41";
paths = (
{
closed = 1;
nodes = (
"346 272 OFFCURVE",
"208 52 OFFCURVE",
"122 52 CURVE SMOOTH",
"93 52 OFFCURVE",
"61 89 OFFCURVE",
"61 172 CURVE SMOOTH",
"61 262 OFFCURVE",
"102 434 OFFCURVE",
"178 434 CURVE SMOOTH",
"227 434 OFFCURVE",
"226 366 OFFCURVE",
"214 312 CURVE SMOOTH",
"208 287 OFFCURVE",
"226 273 OFFCURVE",
"239 273 CURVE SMOOTH",
"272 273 OFFCURVE",
"283 331 OFFCURVE",
"283 371 CURVE SMOOTH",
"283 435 OFFCURVE",
"253 490 OFFCURVE",
"180 490 CURVE SMOOTH",
"66 490 OFFCURVE",
"0 319 OFFCURVE",
"0 178 CURVE SMOOTH",
"0 70 OFFCURVE",
"34 -3 OFFCURVE",
"118 -3 CURVE SMOOTH",
"252 -3 OFFCURVE",
"386 241 OFFCURVE",
"454 399 CURVE",
"441 399 LINE",
"457 366 OFFCURVE",
"513 354 OFFCURVE",
"552 354 CURVE SMOOTH",
"573 354 OFFCURVE",
"630 361 OFFCURVE",
"662 390 CURVE",
"651 402 LINE",
"618 342 OFFCURVE",
"590 286 OFFCURVE",
"542 202 CURVE SMOOTH",
"495 120 OFFCURVE",
"454 54 OFFCURVE",
"428 54 CURVE SMOOTH",
"410 54 OFFCURVE",
"397 69 OFFCURVE",
"398 96 CURVE SMOOTH",
"399 128 OFFCURVE",
"413 149 OFFCURVE",
"432 149 CURVE SMOOTH",
"474 149 OFFCURVE",
"562 0 OFFCURVE",
"681 0 CURVE SMOOTH",
"774 0 OFFCURVE",
"832 87 OFFCURVE",
"870 192 CURVE SMOOTH",
"891 251 OFFCURVE",
"835 255 OFFCURVE",
"822 224 CURVE SMOOTH",
"754 61 OFFCURVE",
"700 57 OFFCURVE",
"679 57 CURVE SMOOTH",
"614 57 OFFCURVE",
"502 204 OFFCURVE",
"432 204 CURVE SMOOTH",
"376 204 OFFCURVE",
"340 160 OFFCURVE",
"340 91 CURVE SMOOTH",
"340 26 OFFCURVE",
"379 0 OFFCURVE",
"422 0 CURVE SMOOTH",
"455 0 OFFCURVE",
"489 9 OFFCURVE",
"548 104 CURVE SMOOTH",
"600 188 OFFCURVE",
"711 379 OFFCURVE",
"741 432 CURVE SMOOTH",
"766 475 OFFCURVE",
"723 496 OFFCURVE",
"694 472 CURVE SMOOTH",
"636 424 OFFCURVE",
"587 412 OFFCURVE",
"556 412 CURVE SMOOTH",
"530 412 OFFCURVE",
"481 420 OFFCURVE",
"481 459 CURVE SMOOTH",
"481 475 OFFCURVE",
"470 489 OFFCURVE",
"455 489 CURVE SMOOTH",
"433 489 OFFCURVE",
"422 471 OFFCURVE",
"415 453 CURVE SMOOTH"
);
}
);
width = 875;
}
);
},
{
glyphname = lslash_lslash.liga;
lastChange = "2016-11-01 11:32:09 +0000";
layers = (
{
layerId = "2B556C7D-ACF4-4058-9F01-0A4D9389EAED";
name = Regular;
paths = (
{
closed = 1;
nodes = (
"358 560 OFFCURVE",
"286 269 OFFCURVE",
"286 106 CURVE SMOOTH",
"286 50 OFFCURVE",
"312 1 OFFCURVE",
"374 1 CURVE SMOOTH",
"423 1 OFFCURVE",
"512 18 OFFCURVE",
"624 242 CURVE SMOOTH",
"640 274 OFFCURVE",
"622 293 OFFCURVE",
"604 293 CURVE SMOOTH",
"592 293 OFFCURVE",
"581 284 OFFCURVE",
"575 273 CURVE SMOOTH",
"480 85 OFFCURVE",
"407 56 OFFCURVE",
"384 56 CURVE SMOOTH",
"357 56 OFFCURVE",
"348 76 OFFCURVE",
"348 120 CURVE SMOOTH",
"348 233 OFFCURVE",
"401 468 OFFCURVE",
"441 632 CURVE SMOOTH",
"455 690 OFFCURVE",
"392 692 OFFCURVE",
"383 656 CURVE SMOOTH"
);
},
{
closed = 1;
nodes = (
"83 560 OFFCURVE",
"11 269 OFFCURVE",
"11 106 CURVE SMOOTH",
"11 50 OFFCURVE",
"37 1 OFFCURVE",
"99 1 CURVE SMOOTH",
"148 1 OFFCURVE",
"237 18 OFFCURVE",
"349 242 CURVE SMOOTH",
"365 274 OFFCURVE",
"347 293 OFFCURVE",
"329 293 CURVE SMOOTH",
"317 293 OFFCURVE",
"306 284 OFFCURVE",
"300 273 CURVE SMOOTH",
"205 85 OFFCURVE",
"132 56 OFFCURVE",
"109 56 CURVE SMOOTH",
"82 56 OFFCURVE",
"73 76 OFFCURVE",
"73 120 CURVE SMOOTH",
"73 233 OFFCURVE",
"126 468 OFFCURVE",
"166 632 CURVE SMOOTH",
"180 690 OFFCURVE",
"117 692 OFFCURVE",
"108 656 CURVE SMOOTH"
);
},
{
closed = 1;
nodes = (
"395 681 OFFCURVE",
"43 686 OFFCURVE",
"34 686 CURVE SMOOTH",
"11 686 OFFCURVE",
"0 672 OFFCURVE",
"0 657 CURVE SMOOTH",
"0 645 OFFCURVE",
"9 632 OFFCURVE",
"26 631 CURVE SMOOTH",
"106 626 OFFCURVE",
"506 626 OFFCURVE",
"563 631 CURVE SMOOTH",
"585 633 OFFCURVE",
"597 648 OFFCURVE",
"597 662 CURVE SMOOTH",
"597 676 OFFCURVE",
"586 688 OFFCURVE",
"561 687 CURVE SMOOTH"
);
}
);
width = 630;
}
);
},
{
glyphname = o_o.liga;
lastChange = "2016-11-01 11:30:27 +0000";
layers = (
{
anchors = (
{
name = top;
position = "{386, 500}";
}
);
layerId = "2B556C7D-ACF4-4058-9F01-0A4D9389EAED";
rightMetricsKey = o;
name = Regular;
paths = (
{
closed = 1;
nodes = (
"110 487 OFFCURVE",
"25 421 OFFCURVE",
"25 333 CURVE SMOOTH",
"25 253 OFFCURVE",
"103 222 OFFCURVE",
"196 222 CURVE SMOOTH",
"275 222 OFFCURVE",
"365 244 OFFCURVE",
"429 278 CURVE SMOOTH",
"467 298 OFFCURVE",
"453 347 OFFCURVE",
"407 327 CURVE SMOOTH",
"252 257 OFFCURVE",
"86 259 OFFCURVE",
"86 333 CURVE SMOOTH",
"86 384 OFFCURVE",
"131 431 OFFCURVE",
"174 431 CURVE SMOOTH",
"222 431 OFFCURVE",
"245 374 OFFCURVE",
"245 298 CURVE SMOOTH",
"245 177 OFFCURVE",
"185 45 OFFCURVE",
"119 45 CURVE SMOOTH",
"76 45 OFFCURVE",
"59 90 OFFCURVE",
"59 141 CURVE SMOOTH",
"59 182 OFFCURVE",
"63 216 OFFCURVE",
"71 248 CURVE SMOOTH",
"81 290 OFFCURVE",
"24 311 OFFCURVE",
"13 263 CURVE SMOOTH",
"6 231 OFFCURVE",
"0 194 OFFCURVE",
"0 157 CURVE SMOOTH",
"0 63 OFFCURVE",
"31 -9 OFFCURVE",
"117 -9 CURVE SMOOTH",
"224 -9 OFFCURVE",
"306 141 OFFCURVE",
"306 289 CURVE SMOOTH",
"306 379 OFFCURVE",
"276 487 OFFCURVE",
"178 487 CURVE SMOOTH"
);
},
{
closed = 1;
nodes = (
"469 488 OFFCURVE",
"392 394 OFFCURVE",
"381 306 CURVE SMOOTH",
"378 285 OFFCURVE",
"391 272 OFFCURVE",
"404 272 CURVE SMOOTH",
"416 272 OFFCURVE",
"431 282 OFFCURVE",
"436 304 CURVE SMOOTH",
"451 370 OFFCURVE",
"506 434 OFFCURVE",
"549 434 CURVE SMOOTH",
"597 434 OFFCURVE",
"623 385 OFFCURVE",
"623 308 CURVE SMOOTH",
"623 179 OFFCURVE",
"569 55 OFFCURVE",
"509 55 CURVE SMOOTH",
"473 55 OFFCURVE",
"455 88 OFFCURVE",
"455 145 CURVE SMOOTH",
"455 185 OFFCURVE",
"463 236 OFFCURVE",
"482 298 CURVE SMOOTH",
"492 323 OFFCURVE",
"477 341 OFFCURVE",
"459 341 CURVE SMOOTH",
"448 341 OFFCURVE",
"434 333 OFFCURVE",
"426 315 CURVE SMOOTH",
"408 269 OFFCURVE",
"395 203 OFFCURVE",
"395 142 CURVE SMOOTH",
"395 67 OFFCURVE",
"426 1 OFFCURVE",
"504 1 CURVE SMOOTH",
"614 1 OFFCURVE",
"683 147 OFFCURVE",
"683 302 CURVE SMOOTH",
"683 422 OFFCURVE",
"632 488 OFFCURVE",
"557 488 CURVE SMOOTH"
);
}
);
width = 682;
}
);
rightMetricsKey = o;
},
{
glyphname = r_z.liga;
lastChange = "2016-11-01 11:29:40 +0000";
layers = (
{
anchors = (
{
name = bottom;
position = "{281, 0}";
},
{
name = top;
position = "{281, 500}";
}
);
associatedMasterId = "2B556C7D-ACF4-4058-9F01-0A4D9389EAED";
layerId = "A512B41F-17B9-4517-9D47-BD18C1B4992E";
name = "Regular Oct 14 16, 13:45";
paths = (
{
closed = 1;
nodes = (
"-8 236 OFFCURVE",
"-20 54 OFFCURVE",
"-20 25 CURVE SMOOTH",
"-20 7 OFFCURVE",
"-5 -4 OFFCURVE",
"10 -5 CURVE SMOOTH",
"25 -6 OFFCURVE",
"49 3 OFFCURVE",
"58 27 CURVE SMOOTH",
"113 181 OFFCURVE",
"195 336 OFFCURVE",
"250 398 CURVE SMOOTH",
"264 413 OFFCURVE",
"274 399 OFFCURVE",
"300 383 CURVE SMOOTH",
"357 348 OFFCURVE",
"364 421 OFFCURVE",
"328 444 CURVE SMOOTH",
"276 477 OFFCURVE",
"248 476 OFFCURVE",
"228 464 CURVE SMOOTH",
"144 413 OFFCURVE",
"30 124 OFFCURVE",
"8 52 CURVE SMOOTH",
"-1 22 OFFCURVE",
"27 17 OFFCURVE",
"28 38 CURVE SMOOTH",
"33 111 OFFCURVE",
"67 302 OFFCURVE",
"95 434 CURVE SMOOTH",
"107 491 OFFCURVE",
"40 490 OFFCURVE",
"33 451 CURVE SMOOTH"
);
},
{
closed = 1;
nodes = (
"309 359 OFFCURVE",
"428 333 OFFCURVE",
"507 393 CURVE SMOOTH",
"553 428 OFFCURVE",
"487 452 OFFCURVE",
"482 443 CURVE SMOOTH",
"410 326 OFFCURVE",
"289 105 OFFCURVE",
"231 53 CURVE SMOOTH",
"200 25 OFFCURVE",
"223 169 OFFCURVE",
"263 136 CURVE SMOOTH",
"314 94 OFFCURVE",
"400 -42 OFFCURVE",
"491 -33 CURVE SMOOTH",
"591 -23 OFFCURVE",
"644 147 OFFCURVE",
"682 259 CURVE SMOOTH",
"702 318 OFFCURVE",
"644 324 OFFCURVE",
"634 291 CURVE SMOOTH",
"566 70 OFFCURVE",
"510 26 OFFCURVE",
"483 26 CURVE SMOOTH",
"425 26 OFFCURVE",
"322 192 OFFCURVE",
"254 201 CURVE SMOOTH",
"182 211 OFFCURVE",
"123 28 OFFCURVE",
"198 0 CURVE SMOOTH",
"236 -14 OFFCURVE",
"267 3 OFFCURVE",
"315 64 CURVE SMOOTH",
"390 159 OFFCURVE",
"485 323 OFFCURVE",
"526 396 CURVE SMOOTH",
"554 446 OFFCURVE",
"511 469 OFFCURVE",
"481 446 CURVE SMOOTH",
"428 404 OFFCURVE",
"364 421 OFFCURVE",
"328 444 CURVE SMOOTH",
"290 468 OFFCURVE",
"268 426 OFFCURVE",
"283 401 CURVE SMOOTH"
);
}
);
width = 646;
},
{
anchors = (
{
name = bottom;
position = "{312, 0}";
},
{
name = top;
position = "{312, 500}";
}
);
layerId = "2B556C7D-ACF4-4058-9F01-0A4D9389EAED";
name = Regular;
paths = (
{
closed = 1;
nodes = (
"514 424 OFFCURVE",
"465 412 OFFCURVE",
"434 412 CURVE SMOOTH",
"371 412 OFFCURVE",
"355 470 OFFCURVE",
"297 470 CURVE SMOOTH",
"210 470 OFFCURVE",
"115 257 OFFCURVE",
"66 112 CURVE",
"69 113 LINE",
"81 204 OFFCURVE",
"102 331 OFFCURVE",
"124 434 CURVE SMOOTH",
"136 491 OFFCURVE",
"72 490 OFFCURVE",
"65 451 CURVE SMOOTH",
"24 236 OFFCURVE",
"10 59 OFFCURVE",
"10 44 CURVE SMOOTH",
"10 12 OFFCURVE",
"29 2 OFFCURVE",
"44 1 CURVE SMOOTH",
"59 0 OFFCURVE",
"83 9 OFFCURVE",
"94 42 CURVE SMOOTH",
"139 180 OFFCURVE",
"256 410 OFFCURVE",
"296 410 CURVE SMOOTH",
"329 410 OFFCURVE",
"356 354 OFFCURVE",
"430 354 CURVE SMOOTH",
"451 354 OFFCURVE",
"508 361 OFFCURVE",
"540 390 CURVE",
"529 402 LINE",
"496 342 OFFCURVE",
"468 286 OFFCURVE",
"420 202 CURVE SMOOTH",
"373 120 OFFCURVE",
"332 54 OFFCURVE",
"306 54 CURVE SMOOTH",
"288 54 OFFCURVE",
"275 69 OFFCURVE",
"276 96 CURVE SMOOTH",
"277 128 OFFCURVE",
"291 149 OFFCURVE",
"310 149 CURVE SMOOTH",
"352 149 OFFCURVE",
"440 0 OFFCURVE",
"559 0 CURVE SMOOTH",
"652 0 OFFCURVE",
"710 87 OFFCURVE",
"748 192 CURVE SMOOTH",
"769 251 OFFCURVE",
"713 255 OFFCURVE",
"700 224 CURVE SMOOTH",
"632 61 OFFCURVE",
"578 57 OFFCURVE",
"557 57 CURVE SMOOTH",
"492 57 OFFCURVE",
"380 204 OFFCURVE",
"310 204 CURVE SMOOTH",
"254 204 OFFCURVE",
"218 160 OFFCURVE",
"218 91 CURVE SMOOTH",
"218 26 OFFCURVE",
"257 0 OFFCURVE",
"300 0 CURVE SMOOTH",
"333 0 OFFCURVE",
"367 9 OFFCURVE",
"426 104 CURVE SMOOTH",
"478 188 OFFCURVE",
"589 379 OFFCURVE",
"619 432 CURVE SMOOTH",
"644 475 OFFCURVE",
"601 496 OFFCURVE",
"572 472 CURVE SMOOTH"
);
}
);
width = 753;
}
);
},
{
glyphname = s_z.liga;
lastChange = "2016-11-01 11:28:52 +0000";
layers = (
{
anchors = (
{
name = bottom;
position = "{370, 0}";
},
{
name = top;
position = "{370, 500}";
}
);
associatedMasterId = "2B556C7D-ACF4-4058-9F01-0A4D9389EAED";
layerId = "E117090D-5E11-44C5-857E-FBBC39E5C796";
name = "Regular Aug 19 16, 10:32";
paths = (
{
closed = 1;
nodes = (
"76 501 OFFCURVE",
"-11 422 OFFCURVE",
"-10 338 CURVE SMOOTH",
"-8 235 OFFCURVE",
"148 185 OFFCURVE",
"121 68 CURVE SMOOTH",
"112 30 OFFCURVE",
"76 28 OFFCURVE",
"63 55 CURVE SMOOTH",
"34 116 OFFCURVE",
"113 217 OFFCURVE",
"344 299 CURVE SMOOTH",
"384 313 OFFCURVE",
"363 364 OFFCURVE",
"328 351 CURVE SMOOTH",
"83 262 OFFCURVE",
"14 167 OFFCURVE",
"7 91 CURVE SMOOTH",
"1 24 OFFCURVE",
"41 -14 OFFCURVE",
"83 -14 CURVE SMOOTH",
"144 -14 OFFCURVE",
"189 31 OFFCURVE",
"183 109 CURVE SMOOTH",
"174 221 OFFCURVE",
"56 273 OFFCURVE",
"51 340 CURVE SMOOTH",
"49 366 OFFCURVE",
"1 348 OFFCURVE",
"1 341 CURVE SMOOTH",
"1 320 OFFCURVE",
"51 320 OFFCURVE",
"51 338 CURVE SMOOTH",
"51 365 OFFCURVE",
"75 412 OFFCURVE",
"112 427 CURVE SMOOTH",
"140 438 OFFCURVE",
"174 439 OFFCURVE",
"163 367 CURVE SMOOTH",
"157 329 OFFCURVE",
"210 333 OFFCURVE",
"219 372 CURVE SMOOTH",
"235 441 OFFCURVE",
"204 484 OFFCURVE",
"151 491 CURVE SMOOTH"
);
},
{
closed = 1;
nodes = (
"276 259 OFFCURVE",
"496 240 OFFCURVE",
"608 375 CURVE SMOOTH",
"652 427 OFFCURVE",
"591 472 OFFCURVE",
"562 415 CURVE SMOOTH",
"488 271 OFFCURVE",
"369 87 OFFCURVE",
"334 46 CURVE SMOOTH",
"311 20 OFFCURVE",
"324 165 OFFCURVE",
"374 113 CURVE SMOOTH",
"409 76 OFFCURVE",
"479 -25 OFFCURVE",
"561 -16 CURVE SMOOTH",
"656 -5 OFFCURVE",
"712 145 OFFCURVE",
"750 257 CURVE SMOOTH",
"770 316 OFFCURVE",
"713 322 OFFCURVE",
"702 289 CURVE SMOOTH",
"634 77 OFFCURVE",
"582 41 OFFCURVE",
"555 41 CURVE SMOOTH",
"490 41 OFFCURVE",
"425 171 OFFCURVE",
"360 180 CURVE SMOOTH",
"337 183 OFFCURVE",
"312 172 OFFCURVE",
"296 147 CURVE SMOOTH",
"265 95 OFFCURVE",
"261 11 OFFCURVE",
"302 -4 CURVE SMOOTH",
"325 -13 OFFCURVE",
"350 -6 OFFCURVE",
"370 13 CURVE SMOOTH",
"430 72 OFFCURVE",
"561 294 OFFCURVE",
"608 374 CURVE SMOOTH",
"638 425 OFFCURVE",
"586 451 OFFCURVE",
"565 420 CURVE SMOOTH",
"503 326 OFFCURVE",
"347 315 OFFCURVE",
"365 415 CURVE SMOOTH",
"374 463 OFFCURVE",
"319 463 OFFCURVE",
"311 424 CURVE SMOOTH"
);
}
);
width = 739;
},
{
anchors = (
{
name = bottom;
position = "{521, 0}";
},
{
name = top;
position = "{521, 500}";
}
);
layerId = "2B556C7D-ACF4-4058-9F01-0A4D9389EAED";
name = Regular;
paths = (
{
closed = 1;
nodes = (
"326 489 OFFCURVE",
"314 470 OFFCURVE",
"314 445 CURVE SMOOTH",
"314 375 OFFCURVE",
"385 354 OFFCURVE",
"445 354 CURVE SMOOTH",
"466 354 OFFCURVE",
"523 361 OFFCURVE",
"555 390 CURVE",
"544 402 LINE",
"511 342 OFFCURVE",
"483 286 OFFCURVE",
"435 202 CURVE SMOOTH",
"388 120 OFFCURVE",
"347 54 OFFCURVE",
"321 54 CURVE SMOOTH",
"303 54 OFFCURVE",
"290 69 OFFCURVE",
"291 96 CURVE SMOOTH",
"292 128 OFFCURVE",
"306 149 OFFCURVE",
"325 149 CURVE SMOOTH",
"367 149 OFFCURVE",
"455 0 OFFCURVE",
"574 0 CURVE SMOOTH",
"667 0 OFFCURVE",
"725 87 OFFCURVE",
"763 192 CURVE SMOOTH",
"784 251 OFFCURVE",
"728 255 OFFCURVE",
"715 224 CURVE SMOOTH",
"647 61 OFFCURVE",
"593 57 OFFCURVE",
"572 57 CURVE SMOOTH",
"507 57 OFFCURVE",
"395 204 OFFCURVE",
"325 204 CURVE SMOOTH",
"269 204 OFFCURVE",
"233 160 OFFCURVE",
"233 91 CURVE SMOOTH",
"233 26 OFFCURVE",
"272 0 OFFCURVE",
"315 0 CURVE SMOOTH",
"348 0 OFFCURVE",
"382 9 OFFCURVE",
"441 104 CURVE SMOOTH",
"493 188 OFFCURVE",
"604 379 OFFCURVE",
"634 432 CURVE SMOOTH",
"659 475 OFFCURVE",
"616 496 OFFCURVE",
"587 472 CURVE SMOOTH",
"529 424 OFFCURVE",
"480 412 OFFCURVE",
"449 412 CURVE SMOOTH",
"423 412 OFFCURVE",
"374 417 OFFCURVE",
"374 459 CURVE SMOOTH",
"374 475 OFFCURVE",
"363 489 OFFCURVE",
"348 489 CURVE SMOOTH"
);
},
{
closed = 1;
nodes = (
"76 492 OFFCURVE",
"9 422 OFFCURVE",
"9 343 CURVE SMOOTH",
"11 254 OFFCURVE",
"126 196 OFFCURVE",
"126 93 CURVE SMOOTH",
"126 78 OFFCURVE",
"119 49 OFFCURVE",
"92 49 CURVE SMOOTH",
"71 49 OFFCURVE",
"61 66 OFFCURVE",
"61 85 CURVE SMOOTH",
"61 160 OFFCURVE",
"152 198 OFFCURVE",
"223 210 CURVE SMOOTH",
"268 218 OFFCURVE",
"257 271 OFFCURVE",
"216 267 CURVE SMOOTH",
"135 259 OFFCURVE",
"1 194 OFFCURVE",
"1 86 CURVE SMOOTH",
"1 28 OFFCURVE",
"44 -5 OFFCURVE",
"85 -5 CURVE SMOOTH",
"142 -5 OFFCURVE",
"186 35 OFFCURVE",
"186 104 CURVE SMOOTH",
"186 153 OFFCURVE",
"167 199 OFFCURVE",
"125 252 CURVE SMOOTH",
"99 284 OFFCURVE",
"69 313 OFFCURVE",
"69 344 CURVE SMOOTH",
"69 391 OFFCURVE",
"110 433 OFFCURVE",
"158 433 CURVE SMOOTH",
"175 433 OFFCURVE",
"190 423 OFFCURVE",
"190 392 CURVE SMOOTH",
"190 364 OFFCURVE",
"185 336 OFFCURVE",
"214 335 CURVE SMOOTH",
"240 335 OFFCURVE",
"249 362 OFFCURVE",
"249 392 CURVE SMOOTH",
"249 467 OFFCURVE",
"205 492 OFFCURVE",
"163 492 CURVE SMOOTH"
);
}
);
width = 768;
}
);
},
{
glyphname = t_t.liga;
lastChange = "2016-11-01 11:40:17 +0000";
layers = (
{
anchors = (
{
name = bottom;
position = "{304, 0}";
},
{
name = center;
position = "{304, 250}";
}
);
layerId = "2B556C7D-ACF4-4058-9F01-0A4D9389EAED";
name = Regular;
paths = (
{
closed = 1;
nodes = (
"73 523 OFFCURVE",
"14 261 OFFCURVE",
"14 98 CURVE SMOOTH",
"14 42 OFFCURVE",
"40 -7 OFFCURVE",
"102 -7 CURVE SMOOTH",
"151 -7 OFFCURVE",
"237 17 OFFCURVE",
"349 241 CURVE SMOOTH",
"365 273 OFFCURVE",
"350 291 OFFCURVE",
"332 291 CURVE SMOOTH",
"320 291 OFFCURVE",
"309 282 OFFCURVE",
"303 271 CURVE SMOOTH",
"204 83 OFFCURVE",
"135 48 OFFCURVE",
"112 48 CURVE SMOOTH",
"85 48 OFFCURVE",
"76 68 OFFCURVE",
"76 112 CURVE SMOOTH",
"76 225 OFFCURVE",
"121 435 OFFCURVE",
"161 599 CURVE SMOOTH",
"175 657 OFFCURVE",
"114 659 OFFCURVE",
"103 623 CURVE SMOOTH"
);
},
{
closed = 1;
nodes = (
"381 487 OFFCURVE",
"75 476 OFFCURVE",
"22 472 CURVE SMOOTH",
"7 471 OFFCURVE",
"0 456 OFFCURVE",
"0 446 CURVE SMOOTH",
"0 435 OFFCURVE",
"7 418 OFFCURVE",
"36 418 CURVE SMOOTH",
"72 418 OFFCURVE",
"372 430 OFFCURVE",
"476 435 CURVE SMOOTH",
"501 436 OFFCURVE",
"509 453 OFFCURVE",
"509 463 CURVE SMOOTH",
"509 482 OFFCURVE",
"496 492 OFFCURVE",
"473 491 CURVE SMOOTH"
);
},
{
closed = 1;
nodes = (
"343 523 OFFCURVE",
"284 261 OFFCURVE",
"284 98 CURVE SMOOTH",
"284 42 OFFCURVE",
"310 -7 OFFCURVE",
"372 -7 CURVE SMOOTH",
"421 -7 OFFCURVE",
"507 17 OFFCURVE",
"619 241 CURVE SMOOTH",
"635 273 OFFCURVE",
"620 291 OFFCURVE",
"602 291 CURVE SMOOTH",
"590 291 OFFCURVE",
"579 282 OFFCURVE",
"573 271 CURVE SMOOTH",
"474 83 OFFCURVE",
"405 48 OFFCURVE",
"382 48 CURVE SMOOTH",
"355 48 OFFCURVE",
"346 68 OFFCURVE",
"346 112 CURVE SMOOTH",
"346 225 OFFCURVE",
"391 435 OFFCURVE",
"431 599 CURVE SMOOTH",
"445 657 OFFCURVE",
"384 659 OFFCURVE",
"373 623 CURVE SMOOTH"
);
}
);
width = 626;
}
);
},
{
glyphname = zero;
lastChange = "2016-10-31 14:32:31 +0000";
layers = (
{
associatedMasterId = "2B556C7D-ACF4-4058-9F01-0A4D9389EAED";
layerId = "3187052D-63DE-4E2F-8498-B92ECE718E71";
name = "Regular Oct 14 16, 14:04";
paths = (
{
closed = 1;
nodes = (
"40 230 OFFCURVE",
"24 6 OFFCURVE",
"164 -7 CURVE SMOOTH",
"405 -28 OFFCURVE",
"475 501 OFFCURVE",
"254 527 CURVE SMOOTH",
"136 541 OFFCURVE",
"41 422 OFFCURVE",
"30 213 CURVE SMOOTH",
"28 172 OFFCURVE",
"91 155 OFFCURVE",
"91 213 CURVE SMOOTH",
"91 323 OFFCURVE",
"161 492 OFFCURVE",
"249 468 CURVE SMOOTH",
"386 431 OFFCURVE",
"308 28 OFFCURVE",
"169 52 CURVE SMOOTH",
"111 62 OFFCURVE",
"94 188 OFFCURVE",
"148 345 CURVE SMOOTH",
"160 381 OFFCURVE",
"105 398 OFFCURVE",
"90 360 CURVE SMOOTH"
);
}
);
width = 417;
},
{
layerId = "2B556C7D-ACF4-4058-9F01-0A4D9389EAED";
name = Regular;
paths = (
{
closed = 1;
nodes = (
"96 514 OFFCURVE",
"0 392 OFFCURVE",
"0 213 CURVE SMOOTH",
"0 191 OFFCURVE",
"14 177 OFFCURVE",
"30 177 CURVE SMOOTH",
"44 177 OFFCURVE",
"61 189 OFFCURVE",
"61 216 CURVE SMOOTH",
"61 320 OFFCURVE",
"122 456 OFFCURVE",
"202 456 CURVE SMOOTH",
"249 456 OFFCURVE",
"293 411 OFFCURVE",
"293 318 CURVE SMOOTH",
"293 197 OFFCURVE",
"234 59 OFFCURVE",
"152 59 CURVE SMOOTH",
"119 59 OFFCURVE",
"85 86 OFFCURVE",
"85 171 CURVE SMOOTH",
"85 219 OFFCURVE",
"95 280 OFFCURVE",
"118 345 CURVE SMOOTH",
"127 371 OFFCURVE",
"110 386 OFFCURVE",
"93 386 CURVE SMOOTH",
"80 386 OFFCURVE",
"67 378 OFFCURVE",
"60 360 CURVE SMOOTH",
"39 305 OFFCURVE",
"24 234 OFFCURVE",
"24 169 CURVE SMOOTH",
"24 49 OFFCURVE",
"80 0 OFFCURVE",
"149 0 CURVE SMOOTH",
"281 0 OFFCURVE",
"356 173 OFFCURVE",
"356 310 CURVE SMOOTH",
"356 458 OFFCURVE",
"278 514 OFFCURVE",
"205 514 CURVE SMOOTH"
);
}
);
width = 356;
}
);
unicode = 0030;
},
{
glyphname = one;
lastChange = "2016-10-31 14:32:31 +0000";
layers = (
{
associatedMasterId = "2B556C7D-ACF4-4058-9F01-0A4D9389EAED";
layerId = "3281D043-D705-477D-84EA-0E63D222E5A2";
name = "Regular Oct 14 16, 14:17";
paths = (
{
closed = 1;
nodes = (
"189 283 OFFCURVE",
"264 351 OFFCURVE",
"335 415 CURVE SMOOTH",
"391 466 OFFCURVE",
"367 517 OFFCURVE",
"342 525 CURVE SMOOTH",
"322 531 OFFCURVE",
"296 517 OFFCURVE",
"287 473 CURVE SMOOTH",
"241 235 OFFCURVE",
"237 195 OFFCURVE",
"217 95 CURVE SMOOTH",
"217 95 OFFCURVE",
"116 69 OFFCURVE",
"76 40 CURVE SMOOTH",
"57 26 OFFCURVE",
"79 5 OFFCURVE",
"84 3 CURVE SMOOTH",
"102 -6 OFFCURVE",
"165 7 OFFCURVE",
"398 19 CURVE SMOOTH",
"447 22 OFFCURVE",
"458 82 OFFCURVE",
"405 79 CURVE SMOOTH",
"248 70 OFFCURVE",
"106 62 OFFCURVE",
"75 39 CURVE SMOOTH",
"41 13 OFFCURVE",
"76 -17 OFFCURVE",
"112 -12 CURVE SMOOTH",
"144 -8 OFFCURVE",
"259 9 OFFCURVE",
"270 55 CURVE SMOOTH",
"308 212 OFFCURVE",
"291 195 OFFCURVE",
"352 473 CURVE SMOOTH",
"359 507 OFFCURVE",
"325 495 OFFCURVE",
"311 481 CURVE SMOOTH",
"236 403 OFFCURVE",
"120 312 OFFCURVE",
"32 232 CURVE SMOOTH",
"1 203 OFFCURVE",
"32 156 OFFCURVE",
"75 191 CURVE SMOOTH"
);
}
);
width = 467;
},
{
layerId = "2B556C7D-ACF4-4058-9F01-0A4D9389EAED";
name = Regular;
paths = (
{
closed = 1;
nodes = (
"278 515 OFFCURVE",
"257 496 OFFCURVE",
"239 476 CURVE SMOOTH",
"169 402 OFFCURVE",
"86 314 OFFCURVE",
"11 233 CURVE SMOOTH",
"-10 210 OFFCURVE",
"2 178 OFFCURVE",
"26 178 CURVE SMOOTH",
"35 178 OFFCURVE",
"45 182 OFFCURVE",
"56 192 CURVE SMOOTH",
"132 264 OFFCURVE",
"226 373 OFFCURVE",
"277 428 CURVE",
"260 437 LINE",
"228 280 OFFCURVE",
"212 180 OFFCURVE",
"195 78 CURVE",
"204 96 LINE",
"197 93 OFFCURVE",
"104 65 OFFCURVE",
"68 48 CURVE SMOOTH",
"53 41 OFFCURVE",
"41 33 OFFCURVE",
"41 17 CURVE SMOOTH",
"41 -1 OFFCURVE",
"58 -5 OFFCURVE",
"83 -5 CURVE SMOOTH",
"104 -5 OFFCURVE",
"155 2 OFFCURVE",
"192 7 CURVE SMOOTH",
"236 13 OFFCURVE",
"305 15 OFFCURVE",
"386 19 CURVE SMOOTH",
"435 22 OFFCURVE",
"438 82 OFFCURVE",
"385 79 CURVE SMOOTH",
"335 77 OFFCURVE",
"283 73 OFFCURVE",
"241 71 CURVE",
"255 59 LINE",
"270 154 OFFCURVE",
"287 238 OFFCURVE",
"322 459 CURVE SMOOTH",
"329 503 OFFCURVE",
"315 516 OFFCURVE",
"299 515 CURVE SMOOTH"
);
}
);
width = 424;
}
);
unicode = 0031;
},
{
glyphname = two;
lastChange = "2016-10-31 14:32:31 +0000";
layers = (
{
layerId = "2B556C7D-ACF4-4058-9F01-0A4D9389EAED";
name = Regular;
paths = (
{
closed = 1;
nodes = (
"107 512 OFFCURVE",
"14 445 OFFCURVE",
"15 327 CURVE SMOOTH",
"15 288 OFFCURVE",
"25 257 OFFCURVE",
"47 225 CURVE SMOOTH",
"64 199 OFFCURVE",
"106 205 OFFCURVE",
"106 232 CURVE SMOOTH",
"106 238 OFFCURVE",
"105 245 OFFCURVE",
"100 253 CURVE SMOOTH",
"82 282 OFFCURVE",
"76 303 OFFCURVE",
"76 332 CURVE SMOOTH",
"76 411 OFFCURVE",
"149 454 OFFCURVE",
"213 454 CURVE SMOOTH",
"277 454 OFFCURVE",
"323 416 OFFCURVE",
"323 344 CURVE SMOOTH",
"323 223 OFFCURVE",
"172 122 OFFCURVE",
"21 34 CURVE SMOOTH",
"4 24 OFFCURVE",
"0 12 OFFCURVE",
"0 2 CURVE SMOOTH",
"0 -11 OFFCURVE",
"14 -21 OFFCURVE",
"35 -20 CURVE SMOOTH",
"82 -17 OFFCURVE",
"225 -4 OFFCURVE",
"357 2 CURVE SMOOTH",
"403 5 OFFCURVE",
"408 65 OFFCURVE",
"356 63 CURVE SMOOTH",
"306 61 OFFCURVE",
"179 53 OFFCURVE",
"134 47 CURVE",
"136 41 LINE",
"281 114 OFFCURVE",
"384 223 OFFCURVE",
"384 345 CURVE SMOOTH",
"384 451 OFFCURVE",
"309 512 OFFCURVE",
"213 512 CURVE SMOOTH"
);
}
);
width = 393;
}
);
unicode = 0032;
},
{
glyphname = three;
lastChange = "2016-10-31 14:32:31 +0000";
layers = (
{
associatedMasterId = "2B556C7D-ACF4-4058-9F01-0A4D9389EAED";
layerId = "E0556148-171F-4344-8FC1-E8719D7B144A";
name = "Regular Oct 14 16, 14:44";
paths = (
{
closed = 1;
nodes = (
"61 492 OFFCURVE",
"64 434 OFFCURVE",
"110 434 CURVE SMOOTH",
"151 434 OFFCURVE",
"317 445 OFFCURVE",
"341 449 CURVE SMOOTH",
"365 453 OFFCURVE",
"358 469 OFFCURVE",
"348 469 CURVE SMOOTH",
"340 469 OFFCURVE",
"165 244 OFFCURVE",
"157 241 CURVE SMOOTH",
"217 258 OFFCURVE",
"272 268 OFFCURVE",
"313 259 CURVE SMOOTH",
"402 240 OFFCURVE",
"415 117 OFFCURVE",
"356 23 CURVE SMOOTH",
"306 -56 OFFCURVE",
"221 -83 OFFCURVE",
"160 -61 CURVE SMOOTH",
"104 -41 OFFCURVE",
"73 36 OFFCURVE",
"98 129 CURVE SMOOTH",
"111 176 OFFCURVE",
"49 195 OFFCURVE",
"34 138 CURVE SMOOTH",
"-3 0 OFFCURVE",
"54 -131 OFFCURVE",
"205 -127 CURVE SMOOTH",
"351 -123 OFFCURVE",
"443 -6 OFFCURVE",
"456 126 CURVE SMOOTH",
"464 208 OFFCURVE",
"431 281 OFFCURVE",
"361 306 CURVE SMOOTH",
"288 332 OFFCURVE",
"187 309 OFFCURVE",
"149 273 CURVE SMOOTH",
"123 249 OFFCURVE",
"135 219 OFFCURVE",
"159 216 CURVE SMOOTH",
"177 212 OFFCURVE",
"201 221 OFFCURVE",
"218 236 CURVE SMOOTH",
"261 274 OFFCURVE",
"353 382 OFFCURVE",
"390 431 CURVE SMOOTH",
"425 477 OFFCURVE",
"405 513 OFFCURVE",
"360 510 CURVE SMOOTH",
"283 505 OFFCURVE",
"197 500 OFFCURVE",
"108 495 CURVE SMOOTH"
);
}
);
width = 506;
},
{
layerId = "2B556C7D-ACF4-4058-9F01-0A4D9389EAED";
name = Regular;
paths = (
{
closed = 1;
nodes = (
"241 508 OFFCURVE",
"192 504 OFFCURVE",
"91 498 CURVE SMOOTH",
"68 497 OFFCURVE",
"57 481 OFFCURVE",
"57 466 CURVE SMOOTH",
"57 450 OFFCURVE",
"70 436 OFFCURVE",
"93 438 CURVE SMOOTH",
"142 441 OFFCURVE",
"272 449 OFFCURVE",
"301 452 CURVE",
"288 461 LINE",
"236 410 OFFCURVE",
"192 367 OFFCURVE",
"161 338 CURVE SMOOTH",
"134 313 OFFCURVE",
"128 304 OFFCURVE",
"128 292 CURVE SMOOTH",
"128 272 OFFCURVE",
"149 268 OFFCURVE",
"159 269 CURVE SMOOTH",
"297 291 OFFCURVE",
"322 238 OFFCURVE",
"322 174 CURVE SMOOTH",
"322 97 OFFCURVE",
"265 16 OFFCURVE",
"175 3 CURVE SMOOTH",
"118 -5 OFFCURVE",
"60 21 OFFCURVE",
"60 107 CURVE SMOOTH",
"60 136 OFFCURVE",
"71 164 OFFCURVE",
"80 181 CURVE SMOOTH",
"96 213 OFFCURVE",
"82 231 OFFCURVE",
"63 231 CURVE SMOOTH",
"50 231 OFFCURVE",
"33 222 OFFCURVE",
"23 203 CURVE SMOOTH",
"5 171 OFFCURVE",
"0 135 OFFCURVE",
"0 100 CURVE SMOOTH",
"0 0 OFFCURVE",
"64 -63 OFFCURVE",
"172 -55 CURVE SMOOTH",
"325 -44 OFFCURVE",
"383 93 OFFCURVE",
"383 174 CURVE SMOOTH",
"383 242 OFFCURVE",
"354 327 OFFCURVE",
"242 327 CURVE SMOOTH",
"228 327 OFFCURVE",
"213 325 OFFCURVE",
"198 322 CURVE",
"205 298 LINE",
"261 350 OFFCURVE",
"318 413 OFFCURVE",
"350 447 CURVE SMOOTH",
"364 461 OFFCURVE",
"370 478 OFFCURVE",
"367 490 CURVE SMOOTH",
"362 510 OFFCURVE",
"346 515 OFFCURVE",
"318 513 CURVE SMOOTH"
);
}
);
width = 383;
}
);
unicode = 0033;
},
{
glyphname = four;
lastChange = "2016-10-31 14:32:31 +0000";
layers = (
{
layerId = "2B556C7D-ACF4-4058-9F01-0A4D9389EAED";
name = Regular;
paths = (
{
closed = 1;
nodes = (
"303 565 OFFCURVE",
"291 558 OFFCURVE",
"283 546 CURVE SMOOTH",
"212 446 OFFCURVE",
"78 259 OFFCURVE",
"20 178 CURVE SMOOTH",
"7 159 OFFCURVE",
"0 141 OFFCURVE",
"0 127 CURVE SMOOTH",
"0 106 OFFCURVE",
"13 94 OFFCURVE",
"38 96 CURVE SMOOTH",
"149 103 OFFCURVE",
"368 122 OFFCURVE",
"398 126 CURVE SMOOTH",
"421 129 OFFCURVE",
"433 147 OFFCURVE",
"433 162 CURVE SMOOTH",
"433 177 OFFCURVE",
"421 190 OFFCURVE",
"396 188 CURVE SMOOTH",
"249 178 OFFCURVE",
"84 160 OFFCURVE",
"68 157 CURVE",
"71 143 LINE",
"141 241 OFFCURVE",
"266 414 OFFCURVE",
"333 509 CURVE SMOOTH",
"358 545 OFFCURVE",
"338 565 OFFCURVE",
"315 565 CURVE SMOOTH"
);
},
{
closed = 1;
nodes = (
"318 304 OFFCURVE",
"303 292 OFFCURVE",
"299 268 CURVE SMOOTH",
"296 248 OFFCURVE",
"267 84 OFFCURVE",
"252 -21 CURVE SMOOTH",
"249 -44 OFFCURVE",
"263 -57 OFFCURVE",
"279 -57 CURVE SMOOTH",
"294 -57 OFFCURVE",
"309 -46 OFFCURVE",
"313 -23 CURVE SMOOTH",
"325 48 OFFCURVE",
"344 165 OFFCURVE",
"360 264 CURVE SMOOTH",
"364 291 OFFCURVE",
"349 304 OFFCURVE",
"334 304 CURVE SMOOTH"
);
}
);
width = 433;
}
);
unicode = 0034;
},
{
glyphname = five;
lastChange = "2016-10-31 14:32:31 +0000";
layers = (
{
layerId = "2B556C7D-ACF4-4058-9F01-0A4D9389EAED";
name = Regular;
paths = (
{
closed = 1;
nodes = (
"217 505 OFFCURVE",
"185 503 OFFCURVE",
"130 500 CURVE SMOOTH",
"102 498 OFFCURVE",
"93 485 OFFCURVE",
"89 463 CURVE SMOOTH",
"83 427 OFFCURVE",
"76 381 OFFCURVE",
"68 317 CURVE SMOOTH",
"64 283 OFFCURVE",
"82 253 OFFCURVE",
"133 281 CURVE SMOOTH",
"156 293 OFFCURVE",
"179 300 OFFCURVE",
"201 300 CURVE SMOOTH",
"271 300 OFFCURVE",
"307 249 OFFCURVE",
"307 184 CURVE SMOOTH",
"307 73 OFFCURVE",
"226 0 OFFCURVE",
"146 0 CURVE SMOOTH",
"58 0 OFFCURVE",
"45 73 OFFCURVE",
"75 168 CURVE SMOOTH",
"90 215 OFFCURVE",
"32 234 OFFCURVE",
"16 186 CURVE SMOOTH",
"-21 78 OFFCURVE",
"0 -59 OFFCURVE",
"144 -60 CURVE SMOOTH",
"260 -60 OFFCURVE",
"367 37 OFFCURVE",
"367 187 CURVE SMOOTH",
"367 287 OFFCURVE",
"301 357 OFFCURVE",
"211 357 CURVE SMOOTH",
"172 357 OFFCURVE",
"139 345 OFFCURVE",
"125 334 CURVE",
"129 325 LINE",
"136 365 OFFCURVE",
"144 426 OFFCURVE",
"150 454 CURVE",
"134 438 LINE",
"205 443 OFFCURVE",
"276 446 OFFCURVE",
"343 450 CURVE SMOOTH",
"401 453 OFFCURVE",
"392 513 OFFCURVE",
"344 511 CURVE SMOOTH"
);
}
);
width = 383;
}
);
unicode = 0035;
},
{
glyphname = six;
lastChange = "2016-10-31 14:32:31 +0000";
layers = (
{
associatedMasterId = "2B556C7D-ACF4-4058-9F01-0A4D9389EAED";
layerId = "6A659A43-0F7F-40C4-A3DE-F2AFCE7417B0";
name = "Regular Oct 14 16, 16:11";
paths = (
{
closed = 1;
nodes = (
"-18 512 OFFCURVE",
"-59 -29 OFFCURVE",
"203 -6 CURVE SMOOTH",
"289 1 OFFCURVE",
"408 90 OFFCURVE",
"426 260 CURVE SMOOTH",
"436 356 OFFCURVE",
"395 419 OFFCURVE",
"353 431 CURVE SMOOTH",
"247 461 OFFCURVE",
"163 344 OFFCURVE",
"155 235 CURVE SMOOTH",
"151 180 OFFCURVE",
"209 186 OFFCURVE",
"215 227 CURVE SMOOTH",
"226 305 OFFCURVE",
"274 394 OFFCURVE",
"330 372 CURVE SMOOTH",
"365 359 OFFCURVE",
"380 279 OFFCURVE",
"338 176 CURVE SMOOTH",
"298 77 OFFCURVE",
"191 13 OFFCURVE",
"135 75 CURVE SMOOTH",
"91 123 OFFCURVE",
"86 235 OFFCURVE",
"117 344 CURVE SMOOTH",
"166 514 OFFCURVE",
"293 592 OFFCURVE",
"322 606 CURVE SMOOTH",
"368 628 OFFCURVE",
"342 685 OFFCURVE",
"290 660 CURVE SMOOTH"
);
}
);
width = 448;
},
{
layerId = "2B556C7D-ACF4-4058-9F01-0A4D9389EAED";
name = Regular;
paths = (
{
closed = 1;
nodes = (
"72 530 OFFCURVE",
"0 356 OFFCURVE",
"0 227 CURVE SMOOTH",
"0 85 OFFCURVE",
"47 -7 OFFCURVE",
"154 -7 CURVE SMOOTH",
"299 -7 OFFCURVE",
"377 170 OFFCURVE",
"377 304 CURVE SMOOTH",
"377 395 OFFCURVE",
"331 449 OFFCURVE",
"269 449 CURVE SMOOTH",
"180 449 OFFCURVE",
"111 345 OFFCURVE",
"104 248 CURVE SMOOTH",
"100 193 OFFCURVE",
"158 199 OFFCURVE",
"164 240 CURVE SMOOTH",
"174 310 OFFCURVE",
"214 390 OFFCURVE",
"263 390 CURVE SMOOTH",
"292 390 OFFCURVE",
"316 365 OFFCURVE",
"316 301 CURVE SMOOTH",
"316 199 OFFCURVE",
"257 51 OFFCURVE",
"153 51 CURVE SMOOTH",
"96 51 OFFCURVE",
"61 111 OFFCURVE",
"61 219 CURVE SMOOTH",
"61 358 OFFCURVE",
"140 497 OFFCURVE",
"286 553 CURVE SMOOTH",
"333 571 OFFCURVE",
"311 627 OFFCURVE",
"257 605 CURVE SMOOTH"
);
}
);
width = 377;
}
);
unicode = 0036;
},
{
glyphname = seven;
lastChange = "2016-10-31 14:32:31 +0000";
layers = (
{
associatedMasterId = "2B556C7D-ACF4-4058-9F01-0A4D9389EAED";
layerId = "3F7BD890-7EB2-4BAA-B7D1-D7A9D298D565";
name = "Regular Oct 15 16, 22:48";
paths = (
{
closed = 1;
nodes = (
"15 487 OFFCURVE",
"15 422 OFFCURVE",
"70 427 CURVE SMOOTH",
"116 431 OFFCURVE",
"256 439 OFFCURVE",
"352 451 CURVE SMOOTH",
"372 453 OFFCURVE",
"352 484 OFFCURVE",
"344 471 CURVE SMOOTH",
"267 344 OFFCURVE",
"122 18 OFFCURVE",
"93 -81 CURVE SMOOTH",
"76 -138 OFFCURVE",
"141 -143 OFFCURVE",
"157 -101 CURVE SMOOTH",
"233 104 OFFCURVE",
"307 261 OFFCURVE",
"393 425 CURVE SMOOTH",
"423 482 OFFCURVE",
"410 517 OFFCURVE",
"352 512 CURVE SMOOTH",
"243 502 OFFCURVE",
"138 495 OFFCURVE",
"65 490 CURVE SMOOTH"
);
},
{
closed = 1;
nodes = (
"48 100 OFFCURVE",
"42 44 OFFCURVE",
"91 48 CURVE SMOOTH",
"191 57 OFFCURVE",
"293 69 OFFCURVE",
"323 73 CURVE SMOOTH",
"366 78 OFFCURVE",
"365 133 OFFCURVE",
"317 129 CURVE SMOOTH",
"150 113 OFFCURVE",
"90 105 OFFCURVE",
"84 104 CURVE SMOOTH"
);
}
);
width = 440;
},
{
layerId = "2B556C7D-ACF4-4058-9F01-0A4D9389EAED";
name = Regular;
paths = (
{
closed = 1;
nodes = (
"187 501 OFFCURVE",
"149 500 OFFCURVE",
"37 500 CURVE SMOOTH",
"9 500 OFFCURVE",
"0 483 OFFCURVE",
"0 469 CURVE SMOOTH",
"0 453 OFFCURVE",
"11 440 OFFCURVE",
"42 440 CURVE SMOOTH",
"131 440 OFFCURVE",
"214 442 OFFCURVE",
"299 446 CURVE",
"289 461 LINE",
"219 337 OFFCURVE",
"91 82 OFFCURVE",
"62 -13 CURVE SMOOTH",
"53 -44 OFFCURVE",
"66 -58 OFFCURVE",
"85 -58 CURVE SMOOTH",
"100 -58 OFFCURVE",
"113 -49 OFFCURVE",
"119 -32 CURVE SMOOTH",
"195 173 OFFCURVE",
"250 256 OFFCURVE",
"336 420 CURVE SMOOTH",
"346 440 OFFCURVE",
"352 455 OFFCURVE",
"352 469 CURVE SMOOTH",
"352 497 OFFCURVE",
"333 506 OFFCURVE",
"295 505 CURVE SMOOTH"
);
},
{
closed = 1;
nodes = (
"144 183 OFFCURVE",
"51 181 OFFCURVE",
"42 181 CURVE SMOOTH",
"20 181 OFFCURVE",
"10 166 OFFCURVE",
"9 151 CURVE SMOOTH",
"10 135 OFFCURVE",
"21 120 OFFCURVE",
"40 121 CURVE SMOOTH",
"111 121 OFFCURVE",
"219 122 OFFCURVE",
"312 122 CURVE SMOOTH",
"332 122 OFFCURVE",
"343 138 OFFCURVE",
"344 154 CURVE SMOOTH",
"344 169 OFFCURVE",
"332 184 OFFCURVE",
"310 183 CURVE SMOOTH"
);
}
);
width = 352;
}
);
unicode = 0037;
},
{
glyphname = eight;
lastChange = "2016-10-31 14:32:31 +0000";
layers = (
{
associatedMasterId = "2B556C7D-ACF4-4058-9F01-0A4D9389EAED";
layerId = "3B49083B-4FAF-4F44-825A-FF6B110884E9";
name = "Regular Oct 15 16, 23:01";
paths = (
{
closed = 1;
nodes = (
"245 354 OFFCURVE",
"315 220 OFFCURVE",
"309 127 CURVE SMOOTH",
"302 9 OFFCURVE",
"218 -20 OFFCURVE",
"161 -3 CURVE SMOOTH",
"107 13 OFFCURVE",
"70 95 OFFCURVE",
"142 198 CURVE SMOOTH",
"215 303 OFFCURVE",
"359 355 OFFCURVE",
"359 486 CURVE SMOOTH",
"359 638 OFFCURVE",
"188 669 OFFCURVE",
"113 543 CURVE SMOOTH",
"80 486 OFFCURVE",
"80 415 OFFCURVE",
"128 350 CURVE SMOOTH",
"144 328 OFFCURVE",
"126 287 OFFCURVE",
"90 312 CURVE SMOOTH",
"36 349 OFFCURVE",
"9 475 OFFCURVE",
"57 568 CURVE SMOOTH",
"99 649 OFFCURVE",
"192 699 OFFCURVE",
"286 676 CURVE SMOOTH",
"388 651 OFFCURVE",
"447 551 OFFCURVE",
"414 433 CURVE SMOOTH",
"377 299 OFFCURVE",
"237 259 OFFCURVE",
"178 147 CURVE SMOOTH",
"149 92 OFFCURVE",
"162 53 OFFCURVE",
"185 45 CURVE SMOOTH",
"218 32 OFFCURVE",
"259 82 OFFCURVE",
"251 155 CURVE SMOOTH",
"242 240 OFFCURVE",
"194 323 OFFCURVE",
"156 377 CURVE SMOOTH",
"125 422 OFFCURVE",
"179 443 OFFCURVE",
"202 412 CURVE SMOOTH"
);
}
);
width = 453;
},
{
layerId = "2B556C7D-ACF4-4058-9F01-0A4D9389EAED";
name = Regular;
paths = (
{
closed = 1;
nodes = (
"68 613 OFFCURVE",
"0 513 OFFCURVE",
"0 431 CURVE SMOOTH",
"0 283 OFFCURVE",
"212 258 OFFCURVE",
"212 132 CURVE SMOOTH",
"212 85 OFFCURVE",
"183 50 OFFCURVE",
"140 50 CURVE SMOOTH",
"112 50 OFFCURVE",
"86 62 OFFCURVE",
"86 103 CURVE SMOOTH",
"86 223 OFFCURVE",
"357 264 OFFCURVE",
"357 443 CURVE SMOOTH",
"357 555 OFFCURVE",
"273 612 OFFCURVE",
"185 612 CURVE SMOOTH"
);
},
{
closed = 1;
nodes = (
"245 552 OFFCURVE",
"296 512 OFFCURVE",
"296 450 CURVE SMOOTH",
"296 290 OFFCURVE",
"25 274 OFFCURVE",
"25 104 CURVE SMOOTH",
"25 21 OFFCURVE",
"83 -8 OFFCURVE",
"137 -8 CURVE SMOOTH",
"202 -8 OFFCURVE",
"272 36 OFFCURVE",
"272 130 CURVE SMOOTH",
"272 300 OFFCURVE",
"61 322 OFFCURVE",
"61 428 CURVE SMOOTH",
"61 500 OFFCURVE",
"114 552 OFFCURVE",
"190 552 CURVE SMOOTH"
);
}
);
width = 357;
}
);
unicode = 0038;
},
{
glyphname = nine;
lastChange = "2016-10-31 14:32:31 +0000";
layers = (
{
associatedMasterId = "2B556C7D-ACF4-4058-9F01-0A4D9389EAED";
layerId = "0D03FEE1-D4EB-4448-A774-E3B04C09CAF4";
name = "Regular Oct 16 16, 21:50";
paths = (
{
closed = 1;
nodes = (
"452 54 OFFCURVE",
"499 533 OFFCURVE",
"236 513 CURVE SMOOTH",
"142 506 OFFCURVE",
"26 395 OFFCURVE",
"26 212 CURVE SMOOTH",
"26 123 OFFCURVE",
"68 79 OFFCURVE",
"112 69 CURVE SMOOTH",
"218 45 OFFCURVE",
"277 161 OFFCURVE",
"285 240 CURVE SMOOTH",
"290 289 OFFCURVE",
"233 286 OFFCURVE",
"227 250 CURVE SMOOTH",
"215 176 OFFCURVE",
"177 112 OFFCURVE",
"125 128 CURVE SMOOTH",
"46 152 OFFCURVE",
"94 427 OFFCURVE",
"238 455 CURVE SMOOTH",
"343 476 OFFCURVE",
"355 334 OFFCURVE",
"334 237 CURVE SMOOTH",
"292 41 OFFCURVE",
"137 -54 OFFCURVE",
"108 -68 CURVE SMOOTH",
"66 -88 OFFCURVE",
"91 -145 OFFCURVE",
"139 -119 CURVE SMOOTH"
);
}
);
width = 450;
},
{
layerId = "2B556C7D-ACF4-4058-9F01-0A4D9389EAED";
name = Regular;
paths = (
{
closed = 1;
nodes = (
"59 513 OFFCURVE",
"0 339 OFFCURVE",
"0 216 CURVE SMOOTH",
"0 78 OFFCURVE",
"72 35 OFFCURVE",
"145 35 CURVE SMOOTH",
"270 35 OFFCURVE",
"346 161 OFFCURVE",
"353 258 CURVE SMOOTH",
"357 313 OFFCURVE",
"300 307 OFFCURVE",
"294 266 CURVE SMOOTH",
"284 196 OFFCURVE",
"239 95 OFFCURVE",
"155 94 CURVE SMOOTH",
"125 94 OFFCURVE",
"60 101 OFFCURVE",
"60 218 CURVE SMOOTH",
"60 304 OFFCURVE",
"101 455 OFFCURVE",
"205 455 CURVE SMOOTH",
"262 455 OFFCURVE",
"295 404 OFFCURVE",
"295 296 CURVE SMOOTH",
"295 157 OFFCURVE",
"234 6 OFFCURVE",
"91 -50 CURVE SMOOTH",
"44 -68 OFFCURVE",
"65 -122 OFFCURVE",
"120 -102 CURVE SMOOTH",
"292 -38 OFFCURVE",
"356 159 OFFCURVE",
"356 288 CURVE SMOOTH",
"356 430 OFFCURVE",
"311 513 OFFCURVE",
"204 513 CURVE SMOOTH"
);
}
);
width = 356;
}
);
unicode = 0039;
},
{
glyphname = fraction;
lastChange = "2016-10-31 14:32:31 +0000";
layers = (
{
associatedMasterId = "2B556C7D-ACF4-4058-9F01-0A4D9389EAED";
layerId = "4F320668-8FA4-4D5E-9074-AFDBC12EBBBF";
name = "Regular Oct 19 16, 00:17";
paths = (
{
closed = 1;
nodes = (
"-9 2 OFFCURVE",
"11 -15 OFFCURVE",
"30 -15 CURVE SMOOTH",
"44 -15 OFFCURVE",
"58 -7 OFFCURVE",
"68 13 CURVE SMOOTH",
"192 260 OFFCURVE",
"278 433 OFFCURVE",
"384 666 CURVE SMOOTH",
"398 697 OFFCURVE",
"378 717 OFFCURVE",
"357 717 CURVE SMOOTH",
"344 717 OFFCURVE",
"330 710 OFFCURVE",
"322 692 CURVE SMOOTH",
"169 365 OFFCURVE",
"111 242 OFFCURVE",
"6 32 CURVE SMOOTH"
);
}
);
width = 389;
},
{
layerId = "2B556C7D-ACF4-4058-9F01-0A4D9389EAED";
name = Regular;
paths = (
{
closed = 1;
nodes = (
"252 550 OFFCURVE",
"236 543 OFFCURVE",
"230 525 CURVE SMOOTH",
"154 307 OFFCURVE",
"126 209 OFFCURVE",
"43 -33 CURVE SMOOTH",
"32 -64 OFFCURVE",
"48 -80 OFFCURVE",
"67 -80 CURVE SMOOTH",
"81 -80 OFFCURVE",
"97 -72 OFFCURVE",
"105 -52 CURVE SMOOTH",
"190 195 OFFCURVE",
"208 266 OFFCURVE",
"292 499 CURVE SMOOTH",
"303 530 OFFCURVE",
"286 550 OFFCURVE",
"265 550 CURVE SMOOTH"
);
}
);
width = 389;
}
);
unicode = 2044;
},
{
glyphname = asterisk;
lastChange = "2016-10-31 14:32:31 +0000";
layers = (
{
layerId = "2B556C7D-ACF4-4058-9F01-0A4D9389EAED";
name = Regular;
paths = (
{
closed = 1;
nodes = (
"121 600 OFFCURVE",
"87 574 OFFCURVE",
"106 548 CURVE SMOOTH",
"123 528 OFFCURVE",
"145 500 OFFCURVE",
"163 481 CURVE SMOOTH",
"190 450 OFFCURVE",
"228 481 OFFCURVE",
"204 513 CURVE SMOOTH",
"188 531 OFFCURVE",
"169 550 OFFCURVE",
"143 579 CURVE SMOOTH"
);
},
{
closed = 1;
nodes = (
"63 550 OFFCURVE",
"44 531 OFFCURVE",
"28 513 CURVE SMOOTH",
"4 481 OFFCURVE",
"42 450 OFFCURVE",
"69 481 CURVE SMOOTH",
"87 500 OFFCURVE",
"109 528 OFFCURVE",
"126 548 CURVE SMOOTH",
"145 574 OFFCURVE",
"111 600 OFFCURVE",
"89 579 CURVE SMOOTH"
);
},
{
closed = 1;
nodes = (
"7 662 OFFCURVE",
"-18 620 OFFCURVE",
"16 599 CURVE SMOOTH",
"37 585 OFFCURVE",
"61 574 OFFCURVE",
"95 556 CURVE SMOOTH",
"124 544 OFFCURVE",
"147 581 OFFCURVE",
"120 599 CURVE SMOOTH",
"97 612 OFFCURVE",
"66 630 OFFCURVE",
"43 642 CURVE SMOOTH"
);
},
{
closed = 1;
nodes = (
"91 653 OFFCURVE",
"90 631 OFFCURVE",
"92 592 CURVE SMOOTH",
"94 561 OFFCURVE",
"140 560 OFFCURVE",
"142 592 CURVE SMOOTH",
"142 616 OFFCURVE",
"144 654 OFFCURVE",
"144 680 CURVE SMOOTH",
"144 720 OFFCURVE",
"91 717 OFFCURVE",
"91 682 CURVE SMOOTH"
);
},
{
closed = 1;
nodes = (
"168 630 OFFCURVE",
"137 612 OFFCURVE",
"114 599 CURVE SMOOTH",
"87 581 OFFCURVE",
"110 544 OFFCURVE",
"139 556 CURVE SMOOTH",
"173 574 OFFCURVE",
"197 585 OFFCURVE",
"218 599 CURVE SMOOTH",
"252 620 OFFCURVE",
"227 662 OFFCURVE",
"191 642 CURVE SMOOTH"
);
}
);
width = 234;
}
);
unicode = 002A;
},
{
glyphname = backslash;
lastChange = "2016-10-31 14:32:31 +0000";
layers = (
{
layerId = "2B556C7D-ACF4-4058-9F01-0A4D9389EAED";
name = Regular;
paths = (
{
closed = 1;
nodes = (
"24 743 OFFCURVE",
"5 725 OFFCURVE",
"11 695 CURVE SMOOTH",
"48 500 OFFCURVE",
"113 127 OFFCURVE",
"142 10 CURVE SMOOTH",
"146 -8 OFFCURVE",
"160 -15 OFFCURVE",
"174 -15 CURVE SMOOTH",
"192 -15 OFFCURVE",
"210 0 OFFCURVE",
"205 27 CURVE SMOOTH",
"186 120 OFFCURVE",
"132 399 OFFCURVE",
"75 713 CURVE SMOOTH",
"71 733 OFFCURVE",
"57 743 OFFCURVE",
"43 743 CURVE SMOOTH"
);
}
);
width = 286;
}
);
unicode = 005C;
},
{
glyphname = periodcentered;
lastChange = "2016-10-31 14:32:31 +0000";
layers = (
{
layerId = "2B556C7D-ACF4-4058-9F01-0A4D9389EAED";
name = Regular;
paths = (
{
closed = 1;
nodes = (
"99 310 OFFCURVE",
"80 284 OFFCURVE",
"80 257 CURVE SMOOTH",
"80 228 OFFCURVE",
"99 211 OFFCURVE",
"131 211 CURVE SMOOTH",
"156 211 OFFCURVE",
"182 227 OFFCURVE",
"182 260 CURVE SMOOTH",
"182 284 OFFCURVE",
"167 310 OFFCURVE",
"133 310 CURVE SMOOTH"
);
}
);
width = 262;
}
);
unicode = 00B7;
},
{
glyphname = bullet;
lastChange = "2016-10-31 14:32:31 +0000";
layers = (
{
layerId = "2B556C7D-ACF4-4058-9F01-0A4D9389EAED";
name = Regular;
paths = (
{
closed = 1;
nodes = (
"116 353 OFFCURVE",
"80 301 OFFCURVE",
"80 247 CURVE SMOOTH",
"80 197 OFFCURVE",
"116 150 OFFCURVE",
"180 150 CURVE SMOOTH",
"230 150 OFFCURVE",
"282 187 OFFCURVE",
"282 256 CURVE SMOOTH",
"282 302 OFFCURVE",
"252 353 OFFCURVE",
"184 353 CURVE SMOOTH"
);
}
);
width = 362;
}
);
unicode = 2022;
},
{
glyphname = colon;
lastChange = "2016-10-31 14:32:31 +0000";
layers = (
{
layerId = "2B556C7D-ACF4-4058-9F01-0A4D9389EAED";
name = Regular;
paths = (
{
closed = 1;
nodes = (
"69 107 OFFCURVE",
"50 81 OFFCURVE",
"50 54 CURVE SMOOTH",
"50 25 OFFCURVE",
"69 8 OFFCURVE",
"101 8 CURVE SMOOTH",
"131 9 OFFCURVE",
"151 29 OFFCURVE",
"151 56 CURVE SMOOTH",
"151 80 OFFCURVE",
"137 107 OFFCURVE",
"103 107 CURVE SMOOTH"
);
},
{
closed = 1;
nodes = (
"110 369 OFFCURVE",
"92 344 OFFCURVE",
"92 317 CURVE SMOOTH",
"92 288 OFFCURVE",
"110 270 OFFCURVE",
"142 270 CURVE SMOOTH",
"172 271 OFFCURVE",
"192 293 OFFCURVE",
"192 320 CURVE SMOOTH",
"192 344 OFFCURVE",
"178 369 OFFCURVE",
"144 369 CURVE SMOOTH"
);
}
);
width = 260;
}
);
unicode = 003A;
},
{
glyphname = comma;
lastChange = "2016-10-31 14:32:31 +0000";
layers = (
{
layerId = "2B556C7D-ACF4-4058-9F01-0A4D9389EAED";
name = Regular;
paths = (
{
closed = 1;
nodes = (
"83 32 OFFCURVE",
"70 -20 OFFCURVE",
"61 -57 CURVE SMOOTH",
"50 -101 OFFCURVE",
"103 -114 OFFCURVE",
"116 -73 CURVE SMOOTH",
"133 -18 OFFCURVE",
"145 18 OFFCURVE",
"154 52 CURVE SMOOTH",
"166 96 OFFCURVE",
"108 115 OFFCURVE",
"94 68 CURVE SMOOTH"
);
}
);
width = 186;
}
);
unicode = 002C;
},
{
glyphname = ellipsis;
lastChange = "2016-10-31 14:32:31 +0000";
layers = (
{
layerId = "2B556C7D-ACF4-4058-9F01-0A4D9389EAED";
leftMetricsKey = period;
name = Regular;
paths = (
{
closed = 1;
nodes = (
"408 101 OFFCURVE",
"389 75 OFFCURVE",
"389 48 CURVE SMOOTH",
"389 19 OFFCURVE",
"408 2 OFFCURVE",
"440 2 CURVE SMOOTH",
"465 2 OFFCURVE",
"491 18 OFFCURVE",
"491 51 CURVE SMOOTH",
"491 75 OFFCURVE",
"476 101 OFFCURVE",
"442 101 CURVE SMOOTH"
);
},
{
closed = 1;
nodes = (
"69 101 OFFCURVE",
"50 75 OFFCURVE",
"50 48 CURVE SMOOTH",
"50 19 OFFCURVE",
"69 2 OFFCURVE",
"101 2 CURVE SMOOTH",
"126 2 OFFCURVE",
"152 18 OFFCURVE",
"152 51 CURVE SMOOTH",
"152 75 OFFCURVE",
"137 101 OFFCURVE",
"103 101 CURVE SMOOTH"
);
},
{
closed = 1;
nodes = (
"235 101 OFFCURVE",
"216 75 OFFCURVE",
"216 48 CURVE SMOOTH",
"216 19 OFFCURVE",
"235 2 OFFCURVE",
"267 2 CURVE SMOOTH",
"292 2 OFFCURVE",
"318 18 OFFCURVE",
"318 51 CURVE SMOOTH",
"318 75 OFFCURVE",
"303 101 OFFCURVE",
"269 101 CURVE SMOOTH"
);
}
);
width = 571;
}
);
leftMetricsKey = period;
unicode = 2026;
},
{
glyphname = exclam;
lastChange = "2016-10-31 14:32:31 +0000";
layers = (
{
associatedMasterId = "2B556C7D-ACF4-4058-9F01-0A4D9389EAED";
layerId = "5A1F518D-EDC7-4F2E-9DFC-7FBD57B0BA0D";
name = "Regular Oct 14 16, 15:25";
paths = (
{
closed = 1;
nodes = (
"132 649 OFFCURVE",
"81 318 OFFCURVE",
"81 249 CURVE SMOOTH",
"81 205 OFFCURVE",
"140 202 OFFCURVE",
"145 249 CURVE SMOOTH",
"161 411 OFFCURVE",
"196 600 OFFCURVE",
"231 754 CURVE SMOOTH",
"244 811 OFFCURVE",
"185 813 OFFCURVE",
"175 782 CURVE SMOOTH"
);
},
{
closed = 1;
nodes = (
"14 94 OFFCURVE",
"62 91 OFFCURVE",
"55 58 CURVE SMOOTH",
"49 31 OFFCURVE",
"56 12 OFFCURVE",
"72 10 CURVE SMOOTH",
"109 5 OFFCURVE",
"136 39 OFFCURVE",
"126 59 CURVE SMOOTH",
"115 80 OFFCURVE",
"69 78 OFFCURVE",
"69 62 CURVE SMOOTH",
"69 38 OFFCURVE",
"42 45 OFFCURVE",
"28 61 CURVE SMOOTH",
"14 77 OFFCURVE",
"37 122 OFFCURVE",
"95 122 CURVE SMOOTH",
"143 122 OFFCURVE",
"175 84 OFFCURVE",
"175 48 CURVE SMOOTH",
"175 -12 OFFCURVE",
"116 -35 OFFCURVE",
"81 -35 CURVE SMOOTH",
"49 -35 OFFCURVE",
"-18 -20 OFFCURVE",
"10 79 CURVE SMOOTH"
);
}
);
width = 253;
},
{
layerId = "2B556C7D-ACF4-4058-9F01-0A4D9389EAED";
name = Regular;
paths = (
{
closed = 1;
nodes = (
"218 717 OFFCURVE",
"204 709 OFFCURVE",
"200 693 CURVE SMOOTH",
"172 550 OFFCURVE",
"138 298 OFFCURVE",
"129 230 CURVE SMOOTH",
"126 203 OFFCURVE",
"142 191 OFFCURVE",
"157 191 CURVE SMOOTH",
"173 191 OFFCURVE",
"186 203 OFFCURVE",
"189 227 CURVE SMOOTH",
"205 355 OFFCURVE",
"216 416 OFFCURVE",
"256 672 CURVE SMOOTH",
"261 701 OFFCURVE",
"248 717 OFFCURVE",
"230 717 CURVE SMOOTH"
);
},
{
closed = 1;
nodes = (
"95 132 OFFCURVE",
"67 99 OFFCURVE",
"67 58 CURVE SMOOTH",
"67 10 OFFCURVE",
"99 -14 OFFCURVE",
"136 -14 CURVE SMOOTH",
"172 -14 OFFCURVE",
"213 12 OFFCURVE",
"213 62 CURVE SMOOTH",
"213 99 OFFCURVE",
"187 134 OFFCURVE",
"139 133 CURVE SMOOTH"
);
},
{
closed = 1;
nodes = (
"156 89 OFFCURVE",
"166 77 OFFCURVE",
"166 61 CURVE SMOOTH",
"166 43 OFFCURVE",
"152 33 OFFCURVE",
"139 33 CURVE SMOOTH",
"119 33 OFFCURVE",
"112 46 OFFCURVE",
"112 61 CURVE SMOOTH",
"112 80 OFFCURVE",
"127 89 OFFCURVE",
"139 89 CURVE SMOOTH"
);
}
);
width = 297;
}
);
unicode = 0021;
},
{
glyphname = exclamdown;
lastChange = "2016-10-31 14:32:31 +0000";
layers = (
{
associatedMasterId = "2B556C7D-ACF4-4058-9F01-0A4D9389EAED";
layerId = "B4E4F6A9-015A-4CDE-8B5D-4EB614C561D6";
name = "Regular Oct 14 16, 15:27";
paths = (
{
closed = 1;
nodes = (
"126 77 OFFCURVE",
"177 408 OFFCURVE",
"177 477 CURVE SMOOTH",
"177 521 OFFCURVE",
"118 524 OFFCURVE",
"113 477 CURVE SMOOTH",
"97 315 OFFCURVE",
"62 126 OFFCURVE",
"27 -28 CURVE SMOOTH",
"14 -85 OFFCURVE",
"73 -87 OFFCURVE",
"83 -56 CURVE SMOOTH"
);
},
{
closed = 1;
nodes = (
"224 632 OFFCURVE",
"176 635 OFFCURVE",
"183 668 CURVE SMOOTH",
"189 695 OFFCURVE",
"182 714 OFFCURVE",
"166 716 CURVE SMOOTH",
"129 721 OFFCURVE",
"102 687 OFFCURVE",
"112 667 CURVE SMOOTH",
"123 646 OFFCURVE",
"169 648 OFFCURVE",
"169 664 CURVE SMOOTH",
"169 688 OFFCURVE",
"196 681 OFFCURVE",
"210 665 CURVE SMOOTH",
"224 649 OFFCURVE",
"201 604 OFFCURVE",
"143 604 CURVE SMOOTH",
"95 604 OFFCURVE",
"63 642 OFFCURVE",
"63 678 CURVE SMOOTH",
"63 738 OFFCURVE",
"122 761 OFFCURVE",
"157 761 CURVE SMOOTH",
"189 761 OFFCURVE",
"256 746 OFFCURVE",
"228 647 CURVE SMOOTH"
);
}
);
width = 255;
},
{
layerId = "2B556C7D-ACF4-4058-9F01-0A4D9389EAED";
name = Regular;
paths = (
{
closed = 1;
nodes = (
"145 512 OFFCURVE",
"131 500 OFFCURVE",
"128 476 CURVE SMOOTH",
"112 348 OFFCURVE",
"101 287 OFFCURVE",
"61 31 CURVE SMOOTH",
"56 2 OFFCURVE",
"70 -14 OFFCURVE",
"88 -14 CURVE SMOOTH",
"100 -14 OFFCURVE",
"115 -6 OFFCURVE",
"119 10 CURVE SMOOTH",
"147 153 OFFCURVE",
"181 405 OFFCURVE",
"190 473 CURVE SMOOTH",
"193 500 OFFCURVE",
"176 512 OFFCURVE",
"161 512 CURVE SMOOTH"
);
},
{
closed = 1;
nodes = (
"134 716 OFFCURVE",
"106 683 OFFCURVE",
"106 642 CURVE SMOOTH",
"106 594 OFFCURVE",
"138 570 OFFCURVE",
"175 570 CURVE SMOOTH",
"211 570 OFFCURVE",
"252 596 OFFCURVE",
"252 646 CURVE SMOOTH",
"252 683 OFFCURVE",
"226 718 OFFCURVE",
"178 717 CURVE SMOOTH"
);
},
{
closed = 1;
nodes = (
"195 673 OFFCURVE",
"205 661 OFFCURVE",
"205 645 CURVE SMOOTH",
"205 627 OFFCURVE",
"191 617 OFFCURVE",
"178 617 CURVE SMOOTH",
"158 617 OFFCURVE",
"151 630 OFFCURVE",
"151 645 CURVE SMOOTH",
"151 664 OFFCURVE",
"166 673 OFFCURVE",
"178 673 CURVE SMOOTH"
);
}
);
width = 271;
}
);
unicode = 00A1;
},
{
glyphname = numbersign;
lastChange = "2016-10-31 14:32:31 +0000";
layers = (
{
associatedMasterId = "2B556C7D-ACF4-4058-9F01-0A4D9389EAED";
layerId = "170AE3BF-C864-4E1E-B9BB-23E7AE829571";
name = "Regular Oct 14 16, 15:31";
paths = (
{
closed = 1;
nodes = (
"228 0 OFFCURVE",
"291 -10 OFFCURVE",
"309 36 CURVE SMOOTH",
"394 283 OFFCURVE",
"422 375 OFFCURVE",
"506 608 CURVE SMOOTH",
"524 657 OFFCURVE",
"461 681 OFFCURVE",
"444 634 CURVE SMOOTH",
"314 278 OFFCURVE",
"316 251 OFFCURVE",
"247 55 CURVE SMOOTH"
);
},
{
closed = 1;
nodes = (
"68 10 OFFCURVE",
"131 0 OFFCURVE",
"149 46 CURVE SMOOTH",
"234 293 OFFCURVE",
"262 385 OFFCURVE",
"346 618 CURVE SMOOTH",
"364 667 OFFCURVE",
"301 691 OFFCURVE",
"284 644 CURVE SMOOTH",
"154 288 OFFCURVE",
"156 261 OFFCURVE",
"87 65 CURVE SMOOTH"
);
},
{
closed = 1;
nodes = (
"18 449 OFFCURVE",
"26 383 OFFCURVE",
"69 383 CURVE SMOOTH",
"337 383 OFFCURVE",
"340 384 OFFCURVE",
"587 387 CURVE SMOOTH",
"639 385 OFFCURVE",
"642 455 OFFCURVE",
"591 454 CURVE SMOOTH",
"212 448 OFFCURVE",
"405 452 OFFCURVE",
"70 449 CURVE SMOOTH"
);
},
{
closed = 1;
nodes = (
"-19 299 OFFCURVE",
"-11 233 OFFCURVE",
"32 233 CURVE SMOOTH",
"300 233 OFFCURVE",
"303 234 OFFCURVE",
"550 237 CURVE SMOOTH",
"602 235 OFFCURVE",
"605 305 OFFCURVE",
"554 304 CURVE SMOOTH",
"175 298 OFFCURVE",
"368 302 OFFCURVE",
"33 299 CURVE SMOOTH"
);
}
);
width = 630;
},
{
layerId = "2B556C7D-ACF4-4058-9F01-0A4D9389EAED";
name = Regular;
paths = (
{
closed = 1;
nodes = (
"272 456 OFFCURVE",
"259 449 OFFCURVE",
"254 430 CURVE SMOOTH",
"155 64 OFFCURVE",
"208 255 OFFCURVE",
"156 53 CURVE SMOOTH",
"149 25 OFFCURVE",
"163 11 OFFCURVE",
"180 11 CURVE SMOOTH",
"194 11 OFFCURVE",
"209 21 OFFCURVE",
"215 40 CURVE SMOOTH",
"278 293 OFFCURVE",
"248 171 OFFCURVE",
"311 411 CURVE SMOOTH",
"319 440 OFFCURVE",
"303 456 OFFCURVE",
"285 456 CURVE SMOOTH"
);
},
{
closed = 1;
nodes = (
"337 185 OFFCURVE",
"295 187 OFFCURVE",
"120 185 CURVE SMOOTH",
"70 184 OFFCURVE",
"78 126 OFFCURVE",
"119 126 CURVE SMOOTH",
"237 126 OFFCURVE",
"376 127 OFFCURVE",
"503 130 CURVE SMOOTH",
"548 131 OFFCURVE",
"551 191 OFFCURVE",
"507 190 CURVE SMOOTH"
);
},
{
closed = 1;
nodes = (
"424 456 OFFCURVE",
"411 449 OFFCURVE",
"406 430 CURVE SMOOTH",
"307 64 OFFCURVE",
"360 255 OFFCURVE",
"308 53 CURVE SMOOTH",
"301 25 OFFCURVE",
"315 11 OFFCURVE",
"332 11 CURVE SMOOTH",
"346 11 OFFCURVE",
"361 21 OFFCURVE",
"367 40 CURVE SMOOTH",
"430 293 OFFCURVE",
"400 171 OFFCURVE",
"463 411 CURVE SMOOTH",
"471 440 OFFCURVE",
"455 456 OFFCURVE",
"437 456 CURVE SMOOTH"
);
},
{
closed = 1;
nodes = (
"371 319 OFFCURVE",
"329 321 OFFCURVE",
"154 319 CURVE SMOOTH",
"104 318 OFFCURVE",
"112 260 OFFCURVE",
"153 260 CURVE SMOOTH",
"271 260 OFFCURVE",
"410 261 OFFCURVE",
"537 264 CURVE SMOOTH",
"582 265 OFFCURVE",
"585 325 OFFCURVE",
"541 324 CURVE SMOOTH"
);
}
);
width = 630;
}
);
unicode = 0023;
},
{
glyphname = period;
lastChange = "2016-10-31 14:32:31 +0000";
layers = (
{
layerId = "2B556C7D-ACF4-4058-9F01-0A4D9389EAED";
name = Regular;
paths = (
{
closed = 1;
nodes = (
"69 101 OFFCURVE",
"50 75 OFFCURVE",
"50 48 CURVE SMOOTH",
"50 19 OFFCURVE",
"69 2 OFFCURVE",
"101 2 CURVE SMOOTH",
"126 2 OFFCURVE",
"152 18 OFFCURVE",
"152 51 CURVE SMOOTH",
"152 75 OFFCURVE",
"137 101 OFFCURVE",
"103 101 CURVE SMOOTH"
);
}
);
width = 212;
}
);
unicode = 002E;
},
{
glyphname = question;
lastChange = "2016-10-31 14:32:31 +0000";
layers = (
{
layerId = "2B556C7D-ACF4-4058-9F01-0A4D9389EAED";
name = Regular;
paths = (
{
closed = 1;
nodes = (
"134 710 OFFCURVE",
"60 612 OFFCURVE",
"60 515 CURVE SMOOTH",
"60 460 OFFCURVE",
"92 412 OFFCURVE",
"126 389 CURVE SMOOTH",
"163 363 OFFCURVE",
"192 405 OFFCURVE",
"168 427 CURVE SMOOTH",
"133 459 OFFCURVE",
"120 481 OFFCURVE",
"120 522 CURVE SMOOTH",
"120 592 OFFCURVE",
"175 652 OFFCURVE",
"260 652 CURVE SMOOTH",
"329 652 OFFCURVE",
"377 599 OFFCURVE",
"377 534 CURVE SMOOTH",
"377 386 OFFCURVE",
"143 380 OFFCURVE",
"140 207 CURVE SMOOTH",
"139 177 OFFCURVE",
"157 168 OFFCURVE",
"171 168 CURVE SMOOTH",
"185 168 OFFCURVE",
"199 177 OFFCURVE",
"199 206 CURVE SMOOTH",
"199 347 OFFCURVE",
"441 346 OFFCURVE",
"439 535 CURVE SMOOTH",
"438 639 OFFCURVE",
"361 710 OFFCURVE",
"259 710 CURVE SMOOTH"
);
},
{
closed = 1;
nodes = (
"126 132 OFFCURVE",
"98 99 OFFCURVE",
"98 58 CURVE SMOOTH",
"98 10 OFFCURVE",
"130 -14 OFFCURVE",
"167 -14 CURVE SMOOTH",
"203 -14 OFFCURVE",
"244 12 OFFCURVE",
"244 62 CURVE SMOOTH",
"244 99 OFFCURVE",
"218 134 OFFCURVE",
"170 133 CURVE SMOOTH"
);
},
{
closed = 1;
nodes = (
"187 89 OFFCURVE",
"197 77 OFFCURVE",
"197 61 CURVE SMOOTH",
"197 43 OFFCURVE",
"183 33 OFFCURVE",
"170 33 CURVE SMOOTH",
"150 33 OFFCURVE",
"143 46 OFFCURVE",
"143 61 CURVE SMOOTH",
"143 80 OFFCURVE",
"158 89 OFFCURVE",
"170 89 CURVE SMOOTH"
);
}
);
width = 479;
}
);
unicode = 003F;
},
{
glyphname = questiondown;
lastChange = "2016-10-31 14:32:31 +0000";
layers = (
{
layerId = "2B556C7D-ACF4-4058-9F01-0A4D9389EAED";
name = Regular;
paths = (
{
closed = 1;
nodes = (
"314 538 OFFCURVE",
"300 529 OFFCURVE",
"300 500 CURVE SMOOTH",
"300 359 OFFCURVE",
"58 360 OFFCURVE",
"60 171 CURVE SMOOTH",
"61 67 OFFCURVE",
"138 -4 OFFCURVE",
"240 -4 CURVE SMOOTH",
"365 -4 OFFCURVE",
"439 94 OFFCURVE",
"439 191 CURVE SMOOTH",
"439 246 OFFCURVE",
"407 294 OFFCURVE",
"373 317 CURVE SMOOTH",
"336 343 OFFCURVE",
"307 301 OFFCURVE",
"331 279 CURVE SMOOTH",
"366 247 OFFCURVE",
"379 225 OFFCURVE",
"379 184 CURVE SMOOTH",
"379 114 OFFCURVE",
"324 54 OFFCURVE",
"239 54 CURVE SMOOTH",
"170 54 OFFCURVE",
"122 107 OFFCURVE",
"122 172 CURVE SMOOTH",
"122 320 OFFCURVE",
"356 326 OFFCURVE",
"359 499 CURVE SMOOTH",
"360 529 OFFCURVE",
"342 538 OFFCURVE",
"328 538 CURVE SMOOTH"
);
},
{
closed = 1;
nodes = (
"284 719 OFFCURVE",
"256 686 OFFCURVE",
"256 645 CURVE SMOOTH",
"256 597 OFFCURVE",
"288 573 OFFCURVE",
"325 573 CURVE SMOOTH",
"361 573 OFFCURVE",
"402 599 OFFCURVE",
"402 649 CURVE SMOOTH",
"402 686 OFFCURVE",
"376 721 OFFCURVE",
"328 720 CURVE SMOOTH"
);
},
{
closed = 1;
nodes = (
"345 676 OFFCURVE",
"355 664 OFFCURVE",
"355 648 CURVE SMOOTH",
"355 630 OFFCURVE",
"341 620 OFFCURVE",
"328 620 CURVE SMOOTH",
"308 620 OFFCURVE",
"301 633 OFFCURVE",
"301 648 CURVE SMOOTH",
"301 667 OFFCURVE",
"316 676 OFFCURVE",
"328 676 CURVE SMOOTH"
);
}
);
width = 499;
}
);
unicode = 00BF;
},
{
glyphname = quotedbl;
lastChange = "2016-10-31 14:32:31 +0000";
layers = (
{
layerId = "2B556C7D-ACF4-4058-9F01-0A4D9389EAED";
name = Regular;
paths = (
{
closed = 1;
nodes = (
"177 680 OFFCURVE",
"164 628 OFFCURVE",
"155 591 CURVE SMOOTH",
"144 547 OFFCURVE",
"197 534 OFFCURVE",
"210 575 CURVE SMOOTH",
"227 630 OFFCURVE",
"239 666 OFFCURVE",
"248 700 CURVE SMOOTH",
"260 744 OFFCURVE",
"202 763 OFFCURVE",
"188 716 CURVE SMOOTH"
);
},
{
closed = 1;
nodes = (
"74 680 OFFCURVE",
"61 628 OFFCURVE",
"52 591 CURVE SMOOTH",
"41 547 OFFCURVE",
"94 534 OFFCURVE",
"107 575 CURVE SMOOTH",
"124 630 OFFCURVE",
"136 666 OFFCURVE",
"145 700 CURVE SMOOTH",
"157 744 OFFCURVE",
"99 763 OFFCURVE",
"85 716 CURVE SMOOTH"
);
}
);
width = 295;
}
);
unicode = 0022;
},
{
glyphname = quotesingle;
lastChange = "2016-10-31 14:32:31 +0000";
layers = (
{
layerId = "2B556C7D-ACF4-4058-9F01-0A4D9389EAED";
name = Regular;
paths = (
{
closed = 1;
nodes = (
"36 680 OFFCURVE",
"23 628 OFFCURVE",
"14 591 CURVE SMOOTH",
"3 547 OFFCURVE",
"56 534 OFFCURVE",
"69 575 CURVE SMOOTH",
"86 630 OFFCURVE",
"98 666 OFFCURVE",
"107 700 CURVE SMOOTH",
"119 744 OFFCURVE",
"61 763 OFFCURVE",
"47 716 CURVE SMOOTH"
);
}
);
width = 122;
}
);
unicode = 0027;
},
{
glyphname = semicolon;
lastChange = "2016-10-31 14:32:31 +0000";
layers = (
{
layerId = "2B556C7D-ACF4-4058-9F01-0A4D9389EAED";
name = Regular;
paths = (
{
closed = 1;
nodes = (
"70 32 OFFCURVE",
"57 -20 OFFCURVE",
"48 -57 CURVE SMOOTH",
"37 -101 OFFCURVE",
"90 -114 OFFCURVE",
"103 -73 CURVE SMOOTH",
"120 -18 OFFCURVE",
"132 18 OFFCURVE",
"141 52 CURVE SMOOTH",
"153 96 OFFCURVE",
"95 115 OFFCURVE",
"81 68 CURVE SMOOTH"
);
},
{
closed = 1;
nodes = (
"123 371 OFFCURVE",
"105 346 OFFCURVE",
"105 319 CURVE SMOOTH",
"105 290 OFFCURVE",
"123 272 OFFCURVE",
"155 272 CURVE SMOOTH",
"185 273 OFFCURVE",
"205 295 OFFCURVE",
"205 322 CURVE SMOOTH",
"205 346 OFFCURVE",
"191 371 OFFCURVE",
"157 371 CURVE SMOOTH"
);
}
);
width = 287;
}
);
unicode = 003B;
},
{
glyphname = slash;
lastChange = "2016-10-31 14:32:31 +0000";
layers = (
{
layerId = "2B556C7D-ACF4-4058-9F01-0A4D9389EAED";
name = Regular;
paths = (
{
closed = 1;
nodes = (
"343 717 OFFCURVE",
"329 710 OFFCURVE",
"321 692 CURVE SMOOTH",
"168 365 OFFCURVE",
"110 242 OFFCURVE",
"5 32 CURVE SMOOTH",
"-10 2 OFFCURVE",
"10 -15 OFFCURVE",
"29 -15 CURVE SMOOTH",
"43 -15 OFFCURVE",
"57 -7 OFFCURVE",
"67 13 CURVE SMOOTH",
"191 260 OFFCURVE",
"277 433 OFFCURVE",
"383 666 CURVE SMOOTH",
"397 697 OFFCURVE",
"377 717 OFFCURVE",
"356 717 CURVE SMOOTH"
);
}
);
width = 388;
}
);
unicode = 002F;
},
{
glyphname = underscore;
lastChange = "2016-10-31 14:32:31 +0000";
layers = (
{
layerId = "2B556C7D-ACF4-4058-9F01-0A4D9389EAED";
name = Regular;
paths = (
{
closed = 1;
nodes = (
"239 21 OFFCURVE",
"59 21 OFFCURVE",
"50 21 CURVE SMOOTH",
"3 21 OFFCURVE",
"6 -39 OFFCURVE",
"46 -39 CURVE SMOOTH",
"114 -39 OFFCURVE",
"338 -40 OFFCURVE",
"419 -40 CURVE SMOOTH",
"460 -40 OFFCURVE",
"460 21 OFFCURVE",
"417 21 CURVE SMOOTH"
);
}
);
width = 480;
}
);
unicode = 005F;
},
{
glyphname = braceleft;
lastChange = "2016-10-31 14:32:31 +0000";
layers = (
{
layerId = "2B556C7D-ACF4-4058-9F01-0A4D9389EAED";
name = Regular;
paths = (
{
closed = 1;
nodes = (
"394 723 OFFCURVE",
"331 722 OFFCURVE",
"297 722 CURVE SMOOTH",
"205 722 OFFCURVE",
"186 696 OFFCURVE",
"167 607 CURVE SMOOTH",
"145 505 OFFCURVE",
"138 406 OFFCURVE",
"73 406 CURVE SMOOTH",
"37 406 OFFCURVE",
"26 358 OFFCURVE",
"65 344 CURVE SMOOTH",
"114 328 OFFCURVE",
"108 245 OFFCURVE",
"80 94 CURVE SMOOTH",
"65 12 OFFCURVE",
"62 -62 OFFCURVE",
"191 -62 CURVE SMOOTH",
"247 -62 OFFCURVE",
"271 -61 OFFCURVE",
"287 -61 CURVE SMOOTH",
"333 -61 OFFCURVE",
"329 -1 OFFCURVE",
"288 -1 CURVE SMOOTH",
"275 -1 OFFCURVE",
"225 -1 OFFCURVE",
"176 -1 CURVE SMOOTH",
"144 -1 OFFCURVE",
"128 17 OFFCURVE",
"134 56 CURVE SMOOTH",
"145 124 OFFCURVE",
"163 223 OFFCURVE",
"163 264 CURVE SMOOTH",
"163 348 OFFCURVE",
"136 383 OFFCURVE",
"110 383 CURVE",
"102 359 LINE",
"168 359 OFFCURVE",
"194 430 OFFCURVE",
"216 547 CURVE SMOOTH",
"230 626 OFFCURVE",
"229 664 OFFCURVE",
"293 664 CURVE SMOOTH",
"312 664 OFFCURVE",
"374 663 OFFCURVE",
"398 663 CURVE SMOOTH",
"422 663 OFFCURVE",
"434 678 OFFCURVE",
"434 693 CURVE SMOOTH",
"434 706 OFFCURVE",
"424 720 OFFCURVE",
"405 722 CURVE SMOOTH"
);
}
);
width = 434;
}
);
unicode = 007B;
},
{
glyphname = braceright;
lastChange = "2016-10-31 14:32:31 +0000";
layers = (
{
layerId = "2B556C7D-ACF4-4058-9F01-0A4D9389EAED";
name = Regular;
paths = (
{
closed = 1;
nodes = (
"187 727 OFFCURVE",
"163 726 OFFCURVE",
"147 726 CURVE SMOOTH",
"101 726 OFFCURVE",
"105 666 OFFCURVE",
"146 666 CURVE SMOOTH",
"159 666 OFFCURVE",
"209 666 OFFCURVE",
"258 666 CURVE SMOOTH",
"315 666 OFFCURVE",
"296 604 OFFCURVE",
"290 551 CURVE SMOOTH",
"286 520 OFFCURVE",
"284 505 OFFCURVE",
"280 475 CURVE SMOOTH",
"270 403 OFFCURVE",
"310 371 OFFCURVE",
"345 371 CURVE",
"348 391 LINE",
"303 391 OFFCURVE",
"275 356 OFFCURVE",
"255 296 CURVE SMOOTH",
"245 267 OFFCURVE",
"231 197 OFFCURVE",
"218 118 CURVE SMOOTH",
"205 41 OFFCURVE",
"205 1 OFFCURVE",
"141 1 CURVE SMOOTH",
"122 1 OFFCURVE",
"60 2 OFFCURVE",
"36 2 CURVE SMOOTH",
"12 2 OFFCURVE",
"0 -13 OFFCURVE",
"0 -28 CURVE SMOOTH",
"0 -41 OFFCURVE",
"10 -55 OFFCURVE",
"29 -57 CURVE SMOOTH",
"40 -58 OFFCURVE",
"103 -57 OFFCURVE",
"131 -57 CURVE SMOOTH",
"229 -57 OFFCURVE",
"248 -31 OFFCURVE",
"267 58 CURVE SMOOTH",
"281 121 OFFCURVE",
"290 197 OFFCURVE",
"305 255 CURVE SMOOTH",
"316 298 OFFCURVE",
"340 344 OFFCURVE",
"371 344 CURVE SMOOTH",
"421 344 OFFCURVE",
"424 410 OFFCURVE",
"379 410 CURVE SMOOTH",
"330 410 OFFCURVE",
"335 444 OFFCURVE",
"354 571 CURVE SMOOTH",
"366 650 OFFCURVE",
"366 727 OFFCURVE",
"251 727 CURVE SMOOTH"
);
}
);
width = 451;
}
);
unicode = 007D;
},
{
glyphname = bracketleft;
lastChange = "2016-10-31 14:32:31 +0000";
layers = (
{
layerId = "2B556C7D-ACF4-4058-9F01-0A4D9389EAED";
name = Regular;
paths = (
{
closed = 1;
nodes = (
"190 730 OFFCURVE",
"159 726 OFFCURVE",
"149 673 CURVE SMOOTH",
"114 491 OFFCURVE",
"61 165 OFFCURVE",
"42 22 CURVE SMOOTH",
"32 -56 OFFCURVE",
"65 -56 OFFCURVE",
"140 -56 CURVE SMOOTH",
"182 -56 OFFCURVE",
"228 -56 OFFCURVE",
"250 -56 CURVE SMOOTH",
"295 -56 OFFCURVE",
"294 4 OFFCURVE",
"254 4 CURVE SMOOTH",
"247 4 OFFCURVE",
"158 5 OFFCURVE",
"86 5 CURVE SMOOTH",
"74 5 OFFCURVE",
"98 -15 OFFCURVE",
"98 -12 CURVE SMOOTH",
"120 134 OFFCURVE",
"179 511 OFFCURVE",
"213 680 CURVE SMOOTH",
"214 684 OFFCURVE",
"174 669 OFFCURVE",
"188 669 CURVE SMOOTH",
"273 669 OFFCURVE",
"351 670 OFFCURVE",
"364 670 CURVE SMOOTH",
"418 670 OFFCURVE",
"412 729 OFFCURVE",
"371 729 CURVE SMOOTH",
"350 729 OFFCURVE",
"327 730 OFFCURVE",
"236 730 CURVE SMOOTH"
);
}
);
width = 445;
}
);
unicode = 005B;
},
{
glyphname = bracketright;
lastChange = "2016-10-31 14:32:31 +0000";
layers = (
{
associatedMasterId = "2B556C7D-ACF4-4058-9F01-0A4D9389EAED";
layerId = "7BEEC0EC-0CC0-47BD-8D93-5A1B3BDFA0BE";
name = "Regular Oct 19 16, 19:24";
paths = (
{
closed = 1;
nodes = (
"252 -71 OFFCURVE",
"262 -41 OFFCURVE",
"266 -21 CURVE SMOOTH",
"306 144 OFFCURVE",
"362 493 OFFCURVE",
"374 626 CURVE SMOOTH",
"376 644 OFFCURVE",
"380 679 OFFCURVE",
"347 697 CURVE SMOOTH",
"322 710 OFFCURVE",
"202 711 OFFCURVE",
"162 702 CURVE SMOOTH",
"118 692 OFFCURVE",
"118 644 OFFCURVE",
"158 644 CURVE SMOOTH",
"165 644 OFFCURVE",
"248 651 OFFCURVE",
"326 643 CURVE SMOOTH",
"338 642 OFFCURVE",
"312 663 OFFCURVE",
"312 660 CURVE SMOOTH",
"295 514 OFFCURVE",
"230 136 OFFCURVE",
"196 -33 CURVE SMOOTH",
"195 -37 OFFCURVE",
"237 -18 OFFCURVE",
"223 -19 CURVE SMOOTH",
"138 -28 OFFCURVE",
"56 -20 OFFCURVE",
"47 -20 CURVE SMOOTH",
"0 -20 OFFCURVE",
"-1 -72 OFFCURVE",
"39 -80 CURVE SMOOTH",
"90 -90 OFFCURVE",
"170 -86 OFFCURVE",
"207 -79 CURVE SMOOTH"
);
}
);
width = 425;
},
{
layerId = "2B556C7D-ACF4-4058-9F01-0A4D9389EAED";
name = Regular;
paths = (
{
closed = 1;
nodes = (
"230 730 OFFCURVE",
"184 730 OFFCURVE",
"162 730 CURVE SMOOTH",
"117 730 OFFCURVE",
"118 670 OFFCURVE",
"158 670 CURVE SMOOTH",
"165 670 OFFCURVE",
"254 669 OFFCURVE",
"326 669 CURVE SMOOTH",
"338 669 OFFCURVE",
"314 689 OFFCURVE",
"314 686 CURVE SMOOTH",
"292 540 OFFCURVE",
"233 163 OFFCURVE",
"199 -6 CURVE SMOOTH",
"198 -10 OFFCURVE",
"238 5 OFFCURVE",
"224 5 CURVE SMOOTH",
"139 5 OFFCURVE",
"61 4 OFFCURVE",
"48 4 CURVE SMOOTH",
"-6 4 OFFCURVE",
"0 -55 OFFCURVE",
"41 -55 CURVE SMOOTH",
"62 -55 OFFCURVE",
"85 -56 OFFCURVE",
"176 -56 CURVE SMOOTH",
"222 -56 OFFCURVE",
"253 -52 OFFCURVE",
"263 1 CURVE SMOOTH",
"298 183 OFFCURVE",
"351 509 OFFCURVE",
"370 652 CURVE SMOOTH",
"380 730 OFFCURVE",
"347 730 OFFCURVE",
"272 730 CURVE SMOOTH"
);
}
);
width = 425;
}
);
unicode = 005D;
},
{
glyphname = parenleft;
lastChange = "2016-10-31 14:32:31 +0000";
layers = (
{
layerId = "2B556C7D-ACF4-4058-9F01-0A4D9389EAED";
name = Regular;
paths = (
{
closed = 1;
nodes = (
"177 637 OFFCURVE",
"80 449 OFFCURVE",
"80 288 CURVE SMOOTH",
"80 186 OFFCURVE",
"111 54 OFFCURVE",
"191 -17 CURVE SMOOTH",
"230 -52 OFFCURVE",
"266 -4 OFFCURVE",
"233 26 CURVE SMOOTH",
"173 82 OFFCURVE",
"142 175 OFFCURVE",
"142 293 CURVE SMOOTH",
"142 420 OFFCURVE",
"217 578 OFFCURVE",
"337 656 CURVE SMOOTH",
"370 677 OFFCURVE",
"354 732 OFFCURVE",
"305 706 CURVE SMOOTH"
);
}
);
width = 354;
}
);
unicode = 0028;
},
{
glyphname = parenright;
lastChange = "2016-10-31 14:32:31 +0000";
layers = (
{
associatedMasterId = "2B556C7D-ACF4-4058-9F01-0A4D9389EAED";
layerId = "A8251881-A989-41A1-96BC-E97F84FA5BF4";
name = "Regular Oct 19 16, 19:29";
paths = (
{
closed = 1;
nodes = (
"126 717 OFFCURVE",
"86 666 OFFCURVE",
"118 637 CURVE SMOOTH",
"272 493 OFFCURVE",
"216 144 OFFCURVE",
"18 16 CURVE SMOOTH",
"-15 -5 OFFCURVE",
"1 -64 OFFCURVE",
"50 -40 CURVE SMOOTH",
"253 58 OFFCURVE",
"382 490 OFFCURVE",
"164 683 CURVE SMOOTH"
);
}
);
width = 356;
},
{
layerId = "2B556C7D-ACF4-4058-9F01-0A4D9389EAED";
name = Regular;
paths = (
{
closed = 1;
nodes = (
"155 736 OFFCURVE",
"119 688 OFFCURVE",
"152 658 CURVE SMOOTH",
"212 602 OFFCURVE",
"243 509 OFFCURVE",
"243 391 CURVE SMOOTH",
"243 264 OFFCURVE",
"168 106 OFFCURVE",
"48 28 CURVE SMOOTH",
"15 7 OFFCURVE",
"31 -48 OFFCURVE",
"80 -22 CURVE SMOOTH",
"208 47 OFFCURVE",
"305 235 OFFCURVE",
"305 396 CURVE SMOOTH",
"305 498 OFFCURVE",
"274 630 OFFCURVE",
"194 701 CURVE SMOOTH"
);
}
);
width = 385;
}
);
unicode = 0029;
},
{
glyphname = emdash;
lastChange = "2016-10-31 14:32:31 +0000";
layers = (
{
layerId = "2B556C7D-ACF4-4058-9F01-0A4D9389EAED";
name = Regular;
paths = (
{
closed = 1;
nodes = (
"178 319 OFFCURVE",
"94 319 OFFCURVE",
"85 319 CURVE SMOOTH",
"38 319 OFFCURVE",
"41 259 OFFCURVE",
"81 259 CURVE SMOOTH",
"149 259 OFFCURVE",
"277 258 OFFCURVE",
"358 258 CURVE SMOOTH",
"407 258 OFFCURVE",
"407 319 OFFCURVE",
"356 319 CURVE SMOOTH"
);
}
);
width = 445;
}
);
unicode = 2014;
},
{
glyphname = endash;
lastChange = "2016-10-31 14:32:31 +0000";
layers = (
{
layerId = "2B556C7D-ACF4-4058-9F01-0A4D9389EAED";
name = Regular;
paths = (
{
closed = 1;
nodes = (
"115 317 OFFCURVE",
"94 317 OFFCURVE",
"85 317 CURVE SMOOTH",
"38 317 OFFCURVE",
"41 257 OFFCURVE",
"81 257 CURVE SMOOTH",
"149 257 OFFCURVE",
"214 256 OFFCURVE",
"295 256 CURVE SMOOTH",
"344 256 OFFCURVE",
"344 317 OFFCURVE",
"293 317 CURVE SMOOTH"
);
}
);
width = 382;
}
);
unicode = 2013;
},
{
glyphname = hyphen;
lastChange = "2016-10-31 14:32:31 +0000";
layers = (
{
layerId = "2B556C7D-ACF4-4058-9F01-0A4D9389EAED";
name = Regular;
paths = (
{
closed = 1;
nodes = (
"95 317 OFFCURVE",
"94 317 OFFCURVE",
"85 317 CURVE SMOOTH",
"38 317 OFFCURVE",
"41 257 OFFCURVE",
"81 257 CURVE SMOOTH",
"149 257 OFFCURVE",
"194 256 OFFCURVE",
"275 256 CURVE SMOOTH",
"324 256 OFFCURVE",
"324 317 OFFCURVE",
"273 317 CURVE SMOOTH"
);
}
);
width = 362;
}
);
unicode = 002D;
},
{
glyphname = guillemotleft;
lastChange = "2016-10-31 14:32:31 +0000";
layers = (
{
layerId = "2B556C7D-ACF4-4058-9F01-0A4D9389EAED";
name = Regular;
paths = (
{
closed = 1;
nodes = (
"173 375 OFFCURVE",
"109 324 OFFCURVE",
"67 288 CURVE SMOOTH",
"50 274 OFFCURVE",
"37 249 OFFCURVE",
"71 222 CURVE SMOOTH",
"98 201 OFFCURVE",
"192 125 OFFCURVE",
"228 98 CURVE SMOOTH",
"260 74 OFFCURVE",
"293 121 OFFCURVE",
"258 147 CURVE SMOOTH",
"228 170 OFFCURVE",
"155 230 OFFCURVE",
"112 263 CURVE",
"112 250 LINE",
"135 267 OFFCURVE",
"191 313 OFFCURVE",
"279 383 CURVE SMOOTH",
"313 410 OFFCURVE",
"278 455 OFFCURVE",
"243 428 CURVE SMOOTH"
);
},
{
closed = 1;
nodes = (
"351 371 OFFCURVE",
"289 322 OFFCURVE",
"254 292 CURVE SMOOTH",
"230 271 OFFCURVE",
"220 244 OFFCURVE",
"252 219 CURVE SMOOTH",
"279 198 OFFCURVE",
"366 127 OFFCURVE",
"405 97 CURVE SMOOTH",
"437 72 OFFCURVE",
"475 116 OFFCURVE",
"437 146 CURVE SMOOTH",
"403 173 OFFCURVE",
"328 232 OFFCURVE",
"287 267 CURVE",
"292 252 LINE",
"317 271 OFFCURVE",
"370 312 OFFCURVE",
"457 381 CURVE SMOOTH",
"492 408 OFFCURVE",
"456 454 OFFCURVE",
"421 426 CURVE SMOOTH"
);
}
);
width = 550;
}
);
unicode = 00AB;
},
